STARTFONT 2.3
FONT -FontForge-Bungee Shade-Book-R-Normal--12-120-72-72-P-102-ISO10646-1
SIZE 12 72 72  4
FONTBOUNDINGBOX 32 31 -8 -11
COMMENT "Generated by fontforge, http://fontforge.sourceforge.net"
COMMENT "Copyright 2008 The Bungee Project Authors (david@djr.com)"
STARTPROPERTIES 40
FOUNDRY "FontForge"
FAMILY_NAME "Bungee Shade"
WEIGHT_NAME "Book"
SLANT "R"
SETWIDTH_NAME "Normal"
ADD_STYLE_NAME ""
PIXEL_SIZE 12
POINT_SIZE 120
RESOLUTION_X 72
RESOLUTION_Y 72
SPACING "P"
AVERAGE_WIDTH 102
CHARSET_REGISTRY "ISO10646"
CHARSET_ENCODING "1"
FONTNAME_REGISTRY ""
CHARSET_COLLECTIONS "ISO8859-2 ISO8859-9 ISO8859-4 ISO10646-1"
BITS_PER_PIXEL 4
FONT_NAME "BungeeShade-Regular"
FACE_NAME "Bungee Shade"
COPYRIGHT "Copyright 2008 The Bungee Project Authors (david@djr.com)"
FONT_VERSION "1.000;PS 1.0;hotconv 1.0.72;makeotf.lib2.5.5900"
FONT_ASCENT 10
FONT_DESCENT 2
UNDERLINE_POSITION 0
UNDERLINE_THICKNESS 0
X_HEIGHT 8
CAP_HEIGHT 8
RAW_ASCENT 860
RAW_DESCENT 140
NORM_SPACE 4
RELATIVE_WEIGHT 40
RELATIVE_SETWIDTH 50
SUPERSCRIPT_X 0
SUPERSCRIPT_Y 4
SUPERSCRIPT_SIZE 7
SUBSCRIPT_X 0
SUBSCRIPT_Y 0
SUBSCRIPT_SIZE 7
AVG_LOWERCASE_WIDTH 97
AVG_UPPERCASE_WIDTH 99
ENDPROPERTIES
CHARS 1065
STARTCHAR space
ENCODING 32
SWIDTH 325 0
DWIDTH 4 0
BBX 1 1 0 0
BITMAP
00
ENDCHAR
STARTCHAR exclam
ENCODING 33
SWIDTH 524 0
DWIDTH 6 0
BBX 6 10 0 -1
BITMAP
046222
3F6202
4F7202
3F7202
3F8102
2FA222
1FC872
1D6102
4FA664
3FFF60
ENDCHAR
STARTCHAR quotedbl
ENCODING 34
SWIDTH 746 0
DWIDTH 9 0
BBX 9 7 0 2
BITMAP
0722382230
8E022A0220
BF023B0220
AF013B0120
AF326D2220
9FFDEFFA00
2441344000
ENDCHAR
STARTCHAR numbersign
ENCODING 35
SWIDTH 850 0
DWIDTH 10 0
BBX 11 10 0 -1
BITMAP
001723632200
019423811300
2D4142242110
7FB127623700
4D9127422200
4B0322241200
DD0200020200
DF914F117100
5FB69F751000
1FF79FC20000
ENDCHAR
STARTCHAR dollar
ENCODING 36
SWIDTH 750 0
DWIDTH 9 0
BBX 9 14 0 -3
BITMAP
0001322000
002D102000
0183021220
1D11232020
8F022DFA10
AF02000210
AF71112020
6FFEC90220
0A21110220
6F02232020
AF43012610
9FFF424100
009FFC1000
0025500000
ENDCHAR
STARTCHAR percent
ENCODING 37
SWIDTH 1131 0
DWIDTH 14 0
BBX 14 10 0 -1
BITMAP
02334467230000
3C2562D4220000
BD2562C2120000
CE2002A2112220
BF744782522212
7FFFCF42923822
03435F11D23922
00009B02F22212
0000DD89FC7750
0000FF83DFE700
ENDCHAR
STARTCHAR ampersand
ENCODING 38
SWIDTH 866 0
DWIDTH 10 0
BBX 11 10 0 -1
BITMAP
002222230000
049022220000
0EA11AF90000
0FC210522210
1D1010912020
9D017EF12220
CD0212202200
CF2222221100
9FD766673000
1BFFFFD60000
ENDCHAR
STARTCHAR quotesingle
ENCODING 39
SWIDTH 456 0
DWIDTH 5 0
BBX 6 7 0 2
BITMAP
063221
6F1211
9F2211
9F2111
8F5230
8FFE30
144100
ENDCHAR
STARTCHAR parenleft
ENCODING 40
SWIDTH 529 0
DWIDTH 6 0
BBX 7 14 0 -3
BITMAP
00021200
01400020
1D122020
8E022600
AE022000
BE022000
BE022000
BE022000
BE022000
BF021200
BF412020
9FD52310
2DFFE400
00452000
ENDCHAR
STARTCHAR parenright
ENCODING 41
SWIDTH 529 0
DWIDTH 6 0
BBX 7 14 0 -3
BITMAP
02222000
3C000200
BE022200
BFF22110
4BF32110
07F32110
07F32110
07F32110
07F22110
08002100
7E021200
BE234100
BFFC2000
35300000
ENDCHAR
STARTCHAR asterisk
ENCODING 42
SWIDTH 818 0
DWIDTH 10 0
BBX 10 9 0 0
BITMAP
0001724000
003BB12120
0660421112
2F41242213
7FFD122790
26C2151020
05F71E6220
09FFAFC200
0054071000
ENDCHAR
STARTCHAR plus
ENCODING 43
SWIDTH 834 0
DWIDTH 10 0
BBX 10 10 0 -1
BITMAP
0000222000
0004901100
000E921100
0038520221
1B31232202
7F52120222
7FFF921F80
155FA23400
001FFE6000
0004420000
ENDCHAR
STARTCHAR comma
ENCODING 44
SWIDTH 484 0
DWIDTH 6 0
BBX 6 7 0 -3
BITMAP
012221
2D1002
9F1222
9FA622
7F3221
6FDA20
387100
ENDCHAR
STARTCHAR hyphen
ENCODING 45
SWIDTH 520 0
DWIDTH 6 0
BBX 7 5 0 1
BITMAP
02222200
5C021110
CE222310
CFFFE400
35552000
ENDCHAR
STARTCHAR period
ENCODING 46
SWIDTH 484 0
DWIDTH 6 0
BBX 6 5 0 -1
BITMAP
012221
3D1202
9F1002
9F7662
8FFE40
ENDCHAR
STARTCHAR slash
ENCODING 47
SWIDTH 487 0
DWIDTH 6 0
BBX 6 14 0 -3
BITMAP
001322
01C102
08E022
0AC022
0CA112
0E8202
2F6201
4F4220
6F2220
8E0220
AC0120
CC2220
EFF700
453000
ENDCHAR
STARTCHAR zero
ENCODING 48
SWIDTH 827 0
DWIDTH 10 0
BBX 10 10 0 -1
BITMAP
0022444320
0542000212
4F122E9022
8F123FB022
9F122EB022
9F122EA022
9F22053202
8F70222112
5FFB877830
06CEFEA200
ENDCHAR
STARTCHAR one
ENCODING 49
SWIDTH 701 0
DWIDTH 8 0
BBX 9 10 0 -1
BITMAP
0442222000
4F31212000
7F95022000
6FFB022000
00EB022000
00EB022000
0286022210
4D02232020
BF66666620
AFFFFFD300
ENDCHAR
STARTCHAR two
ENCODING 50
SWIDTH 739 0
DWIDTH 9 0
BBX 9 10 0 -1
BITMAP
0452222200
4F63432020
5FFFE61120
1584001110
0820111110
6D02047200
BD02384210
CD02222120
CE66666630
BFFFFFE500
ENDCHAR
STARTCHAR three
ENCODING 51
SWIDTH 737 0
DWIDTH 9 0
BBX 9 10 0 -1
BITMAP
0722222200
9F02221200
BFFED12200
47D0002300
09E0223020
0BFEEB0220
0A22210220
6F02222020
BF76667400
AFFFFD5000
ENDCHAR
STARTCHAR four
ENCODING 52
SWIDTH 809 0
DWIDTH 10 0
BBX 10 10 0 -1
BITMAP
0542345221
5F222F5202
8F222F5202
8F222F5202
8F22031202
8F41222302
6FC4221202
1DFFFF5102
01448FA651
00004FFC20
ENDCHAR
STARTCHAR five
ENCODING 53
SWIDTH 747 0
DWIDTH 9 0
BBX 9 10 0 -1
BITMAP
0542222220
5F22222020
8F221CC910
8F22000120
8F32223020
8FEEEC0220
4D31110220
5F12222020
9F76667400
8FFFFD6000
ENDCHAR
STARTCHAR six
ENCODING 54
SWIDTH 793 0
DWIDTH 10 0
BBX 10 10 0 -1
BITMAP
0022344220
0642000020
4F122CCA10
8F12122220
9F12000202
9F123F5202
9F22193202
8F70222120
4FFB767710
06CFFD8100
ENDCHAR
STARTCHAR seven
ENCODING 55
SWIDTH 727 0
DWIDTH 9 0
BBX 9 10 0 -1
BITMAP
1822222220
BD24433020
CFFFF82020
3557402020
0071022120
07B0226400
0DB0264000
0EB0120000
0ED6620000
0DFF600000
ENDCHAR
STARTCHAR eight
ENCODING 56
SWIDTH 811 0
DWIDTH 10 0
BBX 10 10 0 -1
BITMAP
0012444320
0582010220
1F921F6120
2FB1465230
0E12000202
7E025F9112
AE02284202
AF51222111
7FFA767830
07DFFEA200
ENDCHAR
STARTCHAR nine
ENCODING 57
SWIDTH 793 0
DWIDTH 10 0
BBX 10 10 0 -1
BITMAP
0023344320
0822000220
7E024F3202
AF02282302
BF81122302
8FFDCC3202
17D0000211
09D0222120
0CE6666610
0BFFFD8000
ENDCHAR
STARTCHAR colon
ENCODING 58
SWIDTH 484 0
DWIDTH 6 0
BBX 6 10 0 -1
BITMAP
012221
2C1002
9F1202
9F1002
9F7661
6E9851
5F1202
9F1002
9F7662
8FFE40
ENDCHAR
STARTCHAR semicolon
ENCODING 59
SWIDTH 484 0
DWIDTH 6 0
BBX 6 11 0 -3
BITMAP
012221
3D1002
9F1202
9F7662
9F9861
2D1002
9F1222
9FA622
7F3221
6FDA20
387100
ENDCHAR
STARTCHAR less
ENCODING 60
SWIDTH 814 0
DWIDTH 10 0
BBX 9 9 0 -1
BITMAP
0000022230
0012202120
0361220340
1E521AE900
5F62113220
5FC2122120
2EFFC84020
027BFFFE60
0000159700
ENDCHAR
STARTCHAR equal
ENCODING 61
SWIDTH 834 0
DWIDTH 10 0
BBX 10 9 0 -1
BITMAP
0032222221
1B30000002
7F31222202
7FB9999950
2896666600
2D31222202
7F52222222
7FFFFFFF80
1444444300
ENDCHAR
STARTCHAR greater
ENCODING 62
SWIDTH 814 0
DWIDTH 10 0
BBX 10 9 0 -1
BITMAP
0262220000
2E71201210
3FB4122220
2FFFFB4202
0169620211
0461222140
2F7027B800
3FDDD94000
2B73000000
ENDCHAR
STARTCHAR question
ENCODING 63
SWIDTH 756 0
DWIDTH 9 0
BBX 9 10 0 -1
BITMAP
0822222100
AE24432100
BFFEB90220
35C0001230
0AF1111460
0BFBBDF900
09E2236000
09D0111000
0CE6650000
0BFFB10000
ENDCHAR
STARTCHAR at
ENCODING 64
SWIDTH 967 0
DWIDTH 12 0
BBX 12 14 0 -3
BITMAP
000122222100
002100000120
0654DFFFE620
4F4688888C22
7F3622221B22
8F3B11E22B22
8F3B11F22B22
8F3B11A22821
8F3B32223230
8F57EA999710
7F9258888100
2FFB74443200
05DFFFFF8000
000345530000
ENDCHAR
STARTCHAR A
ENCODING 65
SWIDTH 830 0
DWIDTH 10 0
BBX 10 10 0 -1
BITMAP
0004222210
00B2122020
05C01B3120
0B611F7102
2F21010012
7F03222222
9F02121022
AF025FC022
AF767EE663
9FF91CFF60
ENDCHAR
STARTCHAR B
ENCODING 66
SWIDTH 825 0
DWIDTH 10 0
BBX 10 10 0 -1
BITMAP
0442222220
4F32232120
7F321F5220
7F32031230
7F32244302
7F321FD022
7F32043022
7F32222202
7F96666750
6FFFFFD700
ENDCHAR
STARTCHAR C
ENCODING 67
SWIDTH 728 0
DWIDTH 9 0
BBX 9 10 0 -1
BITMAP
0022222220
0641234230
4F222FFA10
8F12254000
9F12200000
9F12200000
9F22022210
8F71222120
4FFA766630
06DFFFE500
ENDCHAR
STARTCHAR D
ENCODING 68
SWIDTH 846 0
DWIDTH 10 0
BBX 10 10 0 -1
BITMAP
0442222221
4F32222202
7F32064022
7F321FE022
7F321CE022
7F321CE022
7F32177022
7F32222202
7F96666750
6FFFFEC400
ENDCHAR
STARTCHAR E
ENCODING 69
SWIDTH 754 0
DWIDTH 9 0
BBX 9 10 0 -1
BITMAP
0442222230
4F32222120
7F321EED30
7F32000200
7F32221200
7F32177300
7F32187220
7F32222120
7F96666640
6FFFFFF800
ENDCHAR
STARTCHAR F
ENCODING 70
SWIDTH 718 0
DWIDTH 9 0
BBX 9 10 0 -1
BITMAP
0442222220
4F32222120
7F321FFB20
7F32033200
7F33221200
7F32022200
7F321F9000
7F31140000
7F96500000
6FFB100000
ENDCHAR
STARTCHAR G
ENCODING 71
SWIDTH 808 0
DWIDTH 10 0
BBX 10 10 0 -1
BITMAP
0022222220
0641234330
4F122FFB10
8F12257221
9F12268002
9F123F8202
9F22032202
8F71222302
4FFA766651
06DFFFFD20
ENDCHAR
STARTCHAR H
ENCODING 72
SWIDTH 859 0
DWIDTH 10 0
BBX 10 10 0 -1
BITMAP
0442318223
4F321BE022
7F32078022
7F32000022
7F32222222
7F32022022
7F321FE022
7F311DE012
7F966BF664
6FFB2AFF80
ENDCHAR
STARTCHAR I
ENCODING 73
SWIDTH 705 0
DWIDTH 8 0
BBX 9 10 0 -1
BITMAP
0622222210
7F02222020
AF85115600
8EFA116100
00FA112000
00FA112000
0295112200
3E02222020
AF76666610
9FFFFFC200
ENDCHAR
STARTCHAR J
ENCODING 74
SWIDTH 788 0
DWIDTH 9 0
BBX 9 10 0 -1
BITMAP
0000063230
00007F2220
00008F2220
02229F2220
4C008F2220
CD028F2220
CE02130220
BF51222020
6FFA768610
07DFFC6000
ENDCHAR
STARTCHAR K
ENCODING 75
SWIDTH 846 0
DWIDTH 10 0
BBX 10 10 0 -1
BITMAP
0442316222
4F321D3211
7F321B1120
7F32022021
7F33223202
7F32076022
7F321FE022
7F311CE012
7F965CF663
6FFB1AFF70
ENDCHAR
STARTCHAR L
ENCODING 76
SWIDTH 795 0
DWIDTH 10 0
BBX 10 10 0 -1
BITMAP
0442300000
4F32110000
7F32110000
7F32112221
7F32168002
7F321F9202
7F32042202
7F32222302
7F96666651
6FFFFFFD20
ENDCHAR
STARTCHAR M
ENCODING 77
SWIDTH 949 0
DWIDTH 11 0
BBX 11 10 0 -1
BITMAP
044221042230
4F3121932120
7F3212421220
7F3211220220
7F3226080220
7F322EBF0220
7F322BBF0220
7F3120AF0120
7F9640AF7640
6FFA008FF900
ENDCHAR
STARTCHAR N
ENCODING 78
SWIDTH 853 0
DWIDTH 10 0
BBX 10 10 0 -1
BITMAP
0442318222
4F3316E022
7F32116022
7F32021022
7F32132022
7F322D1222
7F322FB022
7F312FE012
7F965BF663
6FFA1AFF70
ENDCHAR
STARTCHAR O
ENCODING 79
SWIDTH 837 0
DWIDTH 10 0
BBX 10 10 0 -1
BITMAP
0012444320
0542000112
4F122EB022
8F122EC022
9F122DC022
9F122DC022
9F22053112
8F70222212
4FFB877840
05CEFEB300
ENDCHAR
STARTCHAR P
ENCODING 80
SWIDTH 782 0
DWIDTH 9 0
BBX 10 10 0 -1
BITMAP
0442222220
4F32222111
7F321C6202
7F321F7202
7F32000212
7F32244540
7F321FE500
7F30141000
7F96400000
6FFA000000
ENDCHAR
STARTCHAR Q
ENCODING 81
SWIDTH 837 0
DWIDTH 10 0
BBX 10 12 0 -3
BITMAP
0012222220
0440222202
3F12064112
8F123FC022
9F122DC022
9F122DC022
9F221DB112
9F81232214
6FFC410880
0AFF922600
004FFF6000
0004530000
ENDCHAR
STARTCHAR R
ENCODING 82
SWIDTH 843 0
DWIDTH 10 0
BBX 10 10 0 -1
BITMAP
0442222220
4F32222111
7F321F4202
7F32182230
7F32222302
7F32021022
7F321FF122
7F311CF112
7F9659F764
6FFB18FF90
ENDCHAR
STARTCHAR S
ENCODING 83
SWIDTH 750 0
DWIDTH 9 0
BBX 9 10 0 -1
BITMAP
0022222220
0921222020
7F022CFA10
AF02000220
AF71112020
7FFEB90220
0A21110210
6F02222010
AF76667400
9FFFFD6000
ENDCHAR
STARTCHAR T
ENCODING 84
SWIDTH 756 0
DWIDTH 9 0
BBX 9 10 0 -1
BITMAP
1722222230
DC24232330
EFFE024E50
45CE023200
00BE022000
00BE022000
00BE022000
00BE012000
00BF663000
00AFF80000
ENDCHAR
STARTCHAR U
ENCODING 85
SWIDTH 846 0
DWIDTH 10 0
BBX 10 10 0 -1
BITMAP
0542307223
5F222AD022
8F222CD022
8F222CD022
8F222CD022
8F222CD022
8F32043112
7F80222202
3FFC877840
05CEFEB300
ENDCHAR
STARTCHAR V
ENCODING 86
SWIDTH 830 0
DWIDTH 10 0
BBX 10 10 0 -1
BITMAP
0632307222
7F012BB012
AF022EB022
AF022EB022
AF220E8112
9F711A3201
5FD0210220
0DF5122020
07FC666500
01EFFFA100
ENDCHAR
STARTCHAR W
ENCODING 87
SWIDTH 931 0
DWIDTH 11 0
BBX 11 10 0 -1
BITMAP
053230082230
6F12209F0220
8F12227E0220
8F1234080220
8F1221220220
8F2202020220
8F5211920220
7FA124E03010
2FF76AF96400
0AFE67FF8000
ENDCHAR
STARTCHAR X
ENCODING 88
SWIDTH 837 0
DWIDTH 10 0
BBX 10 10 0 -1
BITMAP
0532307222
5F122BC022
8F42094202
7FC0200221
1EF5223020
05B1221211
0C221E9112
7F113FC012
8F864DE663
7FF90CFF60
ENDCHAR
STARTCHAR Y
ENCODING 89
SWIDTH 805 0
DWIDTH 10 0
BBX 10 10 0 -1
BITMAP
0722317222
8E022DA102
BE022F9102
BF121D3202
BF80201120
5FF5131110
09FE120200
00CF310200
007F965100
006FFC2000
ENDCHAR
STARTCHAR Z
ENCODING 90
SWIDTH 760 0
DWIDTH 9 0
BBX 9 10 0 -1
BITMAP
0642222220
6F43422120
8FFFA01120
255B111110
0082021200
0550202000
3E02022220
AE02222120
BF66666650
AFFFFFF900
ENDCHAR
STARTCHAR bracketleft
ENCODING 91
SWIDTH 529 0
DWIDTH 6 0
BBX 7 14 0 -3
BITMAP
02222200
3D000020
BE032020
BE023600
BE022000
BE022000
BE022000
BE022000
BE022000
BE021200
BE022020
BF322310
BFFFE400
25552000
ENDCHAR
STARTCHAR backslash
ENCODING 92
SWIDTH 487 0
DWIDTH 6 0
BBX 6 14 0 -3
BITMAP
022210
6B0020
ED0220
CF0220
AF3220
8F5211
6F7202
4F9202
2FB112
0FD022
0DF012
0BF423
08FFC2
025510
ENDCHAR
STARTCHAR bracketright
ENCODING 93
SWIDTH 529 0
DWIDTH 6 0
BBX 7 14 0 -3
BITMAP
02222200
3C000110
BE023110
BFF32110
4AF32110
07F32110
07F32110
07F32110
07F32110
08002110
7E022110
BE222310
BFFFE300
35552000
ENDCHAR
STARTCHAR asciicircum
ENCODING 94
SWIDTH 814 0
DWIDTH 10 0
BBX 10 9 0 0
BITMAP
0003222200
0084222200
04E0212120
09A11B1120
0D622F2220
2F216F6220
7E228FB222
AFF81FFF60
3430034200
ENDCHAR
STARTCHAR underscore
ENCODING 95
SWIDTH 834 0
DWIDTH 10 0
BBX 10 5 0 -3
BITMAP
0132222221
2C31222202
7F52222223
7FFFFFFF90
1555555400
ENDCHAR
STARTCHAR grave
ENCODING 96
SWIDTH 600 0
DWIDTH 7 0
BBX 7 5 0 7
BITMAP
03222210
5D022220
CF864230
AFFFFE40
00135200
ENDCHAR
STARTCHAR a
ENCODING 97
SWIDTH 830 0
DWIDTH 10 0
BBX 10 10 0 -1
BITMAP
0004222210
00B2122020
05C01B3120
0B611F7102
2F21010012
7F03222222
9F02121022
AF025FC022
AF767EE663
9FF91CFF60
ENDCHAR
STARTCHAR b
ENCODING 98
SWIDTH 825 0
DWIDTH 10 0
BBX 10 10 0 -1
BITMAP
0442222220
4F32232120
7F321F5220
7F32031230
7F32244302
7F321FD022
7F32043022
7F32222202
7F96666750
6FFFFFD700
ENDCHAR
STARTCHAR c
ENCODING 99
SWIDTH 728 0
DWIDTH 9 0
BBX 9 10 0 -1
BITMAP
0022222220
0641234230
4F222FFA10
8F12254000
9F12200000
9F12200000
9F22022210
8F71222120
4FFA766630
06DFFFE500
ENDCHAR
STARTCHAR d
ENCODING 100
SWIDTH 846 0
DWIDTH 10 0
BBX 10 10 0 -1
BITMAP
0442222221
4F32222202
7F32064022
7F321FE022
7F321CE022
7F321CE022
7F32177022
7F32222202
7F96666750
6FFFFEC400
ENDCHAR
STARTCHAR e
ENCODING 101
SWIDTH 754 0
DWIDTH 9 0
BBX 9 10 0 -1
BITMAP
0442222230
4F32222120
7F321EED30
7F32000200
7F32221200
7F32177300
7F32187220
7F32222120
7F96666640
6FFFFFF800
ENDCHAR
STARTCHAR f
ENCODING 102
SWIDTH 718 0
DWIDTH 9 0
BBX 9 10 0 -1
BITMAP
0442222220
4F32222120
7F321FFB20
7F32033200
7F33221200
7F32022200
7F321F9000
7F31140000
7F96500000
6FFB100000
ENDCHAR
STARTCHAR g
ENCODING 103
SWIDTH 808 0
DWIDTH 10 0
BBX 10 10 0 -1
BITMAP
0022222220
0641234330
4F122FFB10
8F12257221
9F12268002
9F123F8202
9F22032202
8F71222302
4FFA766651
06DFFFFD20
ENDCHAR
STARTCHAR h
ENCODING 104
SWIDTH 859 0
DWIDTH 10 0
BBX 10 10 0 -1
BITMAP
0442318223
4F321BE022
7F32078022
7F32000022
7F32222222
7F32022022
7F321FE022
7F311DE012
7F966BF664
6FFB2AFF80
ENDCHAR
STARTCHAR i
ENCODING 105
SWIDTH 705 0
DWIDTH 8 0
BBX 9 10 0 -1
BITMAP
0622222210
7F02222020
AF85115600
8EFA116100
00FA112000
00FA112000
0295112200
3E02222020
AF76666610
9FFFFFC200
ENDCHAR
STARTCHAR j
ENCODING 106
SWIDTH 788 0
DWIDTH 9 0
BBX 9 10 0 -1
BITMAP
0000063230
00007F2220
00008F2220
02229F2220
4C008F2220
CD028F2220
CE02130220
BF51222020
6FFA768610
07DFFC6000
ENDCHAR
STARTCHAR k
ENCODING 107
SWIDTH 846 0
DWIDTH 10 0
BBX 10 10 0 -1
BITMAP
0442316222
4F321D3211
7F321B1120
7F32022021
7F33223202
7F32076022
7F321FE022
7F311CE012
7F965CF663
6FFB1AFF70
ENDCHAR
STARTCHAR l
ENCODING 108
SWIDTH 795 0
DWIDTH 10 0
BBX 10 10 0 -1
BITMAP
0442300000
4F32110000
7F32110000
7F32112221
7F32168002
7F321F9202
7F32042202
7F32222302
7F96666651
6FFFFFFD20
ENDCHAR
STARTCHAR m
ENCODING 109
SWIDTH 949 0
DWIDTH 11 0
BBX 11 10 0 -1
BITMAP
044221042230
4F3121932120
7F3212421220
7F3211220220
7F3226080220
7F322EBF0220
7F322BBF0220
7F3120AF0120
7F9640AF7640
6FFA008FF900
ENDCHAR
STARTCHAR n
ENCODING 110
SWIDTH 853 0
DWIDTH 10 0
BBX 10 10 0 -1
BITMAP
0442318222
4F3316E022
7F32116022
7F32021022
7F32132022
7F322D1222
7F322FB022
7F312FE012
7F965BF663
6FFA1AFF70
ENDCHAR
STARTCHAR o
ENCODING 111
SWIDTH 837 0
DWIDTH 10 0
BBX 10 10 0 -1
BITMAP
0012444320
0542000112
4F122EB022
8F122EC022
9F122DC022
9F122DC022
9F22053112
8F70222212
4FFB877840
05CEFEB300
ENDCHAR
STARTCHAR p
ENCODING 112
SWIDTH 782 0
DWIDTH 9 0
BBX 10 10 0 -1
BITMAP
0442222220
4F32222111
7F321C6202
7F321F7202
7F32000212
7F32244540
7F321FE500
7F30141000
7F96400000
6FFA000000
ENDCHAR
STARTCHAR q
ENCODING 113
SWIDTH 837 0
DWIDTH 10 0
BBX 10 12 0 -3
BITMAP
0012222220
0440222202
3F12064112
8F123FC022
9F122DC022
9F122DC022
9F221DB112
9F81232214
6FFC410880
0AFF922600
004FFF6000
0004530000
ENDCHAR
STARTCHAR r
ENCODING 114
SWIDTH 843 0
DWIDTH 10 0
BBX 10 10 0 -1
BITMAP
0442222220
4F32222111
7F321F4202
7F32182230
7F32222302
7F32021022
7F321FF122
7F311CF112
7F9659F764
6FFB18FF90
ENDCHAR
STARTCHAR s
ENCODING 115
SWIDTH 750 0
DWIDTH 9 0
BBX 9 10 0 -1
BITMAP
0022222220
0921222020
7F022CFA10
AF02000220
AF71112020
7FFEB90220
0A21110210
6F02222010
AF76667400
9FFFFD6000
ENDCHAR
STARTCHAR t
ENCODING 116
SWIDTH 756 0
DWIDTH 9 0
BBX 9 10 0 -1
BITMAP
1722222230
DC24232330
EFFE024E50
45CE023200
00BE022000
00BE022000
00BE022000
00BE012000
00BF663000
00AFF80000
ENDCHAR
STARTCHAR u
ENCODING 117
SWIDTH 846 0
DWIDTH 10 0
BBX 10 10 0 -1
BITMAP
0542307223
5F222AD022
8F222CD022
8F222CD022
8F222CD022
8F222CD022
8F32043112
7F80222202
3FFC877840
05CEFEB300
ENDCHAR
STARTCHAR v
ENCODING 118
SWIDTH 830 0
DWIDTH 10 0
BBX 10 10 0 -1
BITMAP
0632307222
7F012BB012
AF022EB022
AF022EB022
AF220E8112
9F711A3201
5FD0210220
0DF5122020
07FC666500
01EFFFA100
ENDCHAR
STARTCHAR w
ENCODING 119
SWIDTH 931 0
DWIDTH 11 0
BBX 11 10 0 -1
BITMAP
053230082230
6F12209F0220
8F12227E0220
8F1234080220
8F1221220220
8F2202020220
8F5211920220
7FA124E03010
2FF76AF96400
0AFE67FF8000
ENDCHAR
STARTCHAR x
ENCODING 120
SWIDTH 837 0
DWIDTH 10 0
BBX 10 10 0 -1
BITMAP
0532307222
5F122BC022
8F42094202
7FC0200221
1EF5223020
05B1221211
0C221E9112
7F113FC012
8F864DE663
7FF90CFF60
ENDCHAR
STARTCHAR y
ENCODING 121
SWIDTH 805 0
DWIDTH 10 0
BBX 10 10 0 -1
BITMAP
0722317222
8E022DA102
BE022F9102
BF121D3202
BF80201120
5FF5131110
09FE120200
00CF310200
007F965100
006FFC2000
ENDCHAR
STARTCHAR z
ENCODING 122
SWIDTH 760 0
DWIDTH 9 0
BBX 9 10 0 -1
BITMAP
0642222220
6F43422120
8FFFA01120
255B111110
0082021200
0550202000
3E02022220
AE02222120
BF66666650
AFFFFFF900
ENDCHAR
STARTCHAR braceleft
ENCODING 123
SWIDTH 555 0
DWIDTH 7 0
BBX 7 14 0 -3
BITMAP
00011210
00410020
06812020
1E620610
4F620200
4D120200
8A116000
FE220200
EF620200
5F620210
4FA02020
2FF83220
09FFF800
00243000
ENDCHAR
STARTCHAR bar
ENCODING 124
SWIDTH 447 0
DWIDTH 5 0
BBX 5 14 0 -3
BITMAP
013220
1C2020
8F2220
8F2220
8F2220
8F2220
8F2220
8F2220
8F2220
8F2220
8F2120
8F5230
8FFC20
155100
ENDCHAR
STARTCHAR braceright
ENCODING 125
SWIDTH 555 0
DWIDTH 7 0
BBX 7 14 0 -3
BITMAP
02221000
3C000200
BE022200
BFF12200
4CF12210
09F61120
08F61120
04F12210
09F12200
09002200
7E021100
BE233000
BFFA1000
34200000
ENDCHAR
STARTCHAR asciitilde
ENCODING 126
SWIDTH 834 0
DWIDTH 10 0
BBX 10 5 0 1
BITMAP
0012222221
0631222212
5F43431022
7FFFFFFE60
2634687300
ENDCHAR
STARTCHAR uni00A0
ENCODING 160
SWIDTH 325 0
DWIDTH 4 0
BBX 1 1 0 0
BITMAP
00
ENDCHAR
STARTCHAR exclamdown
ENCODING 161
SWIDTH 523 0
DWIDTH 6 0
BBX 6 10 0 -1
BITMAP
036222
3F6102
4FEBA3
2C8002
1E8202
2F7202
3F7202
3F6102
4FA662
3FFF60
ENDCHAR
STARTCHAR cent
ENCODING 162
SWIDTH 728 0
DWIDTH 9 0
BBX 9 13 0 -3
BITMAP
0000322000
0009600100
0099310620
0A61232120
5F22022230
8F122FF900
9F12254000
9F22122210
8F61222020
5FF9310430
0AFF822800
004FFE5000
0004520000
ENDCHAR
STARTCHAR sterling
ENCODING 163
SWIDTH 795 0
DWIDTH 10 0
BBX 11 10 -1 -1
BITMAP
000111223000
004512212000
02E320EF8000
06A020250000
0BA020142210
1FF321E81020
0CF320002020
07F322223020
07F966666510
06FFFFFFD200
ENDCHAR
STARTCHAR currency
ENCODING 164
SWIDTH 921 0
DWIDTH 11 0
BBX 11 11 0 -2
BITMAP
001200001200
032022223020
3E5212212120
8FF220002200
0BF328F32200
07F329F52200
07F336B23200
077122232120
1D3077783030
9FE9FFEFE500
2D80101C8000
ENDCHAR
STARTCHAR yen
ENCODING 165
SWIDTH 803 0
DWIDTH 10 0
BBX 10 10 0 -1
BITMAP
0622317222
8E022EA102
CF122F8202
BFA1141120
9FD3010120
2E80020020
0C81232110
2FEA310800
07AF965200
005FFB1000
ENDCHAR
STARTCHAR brokenbar
ENCODING 166
SWIDTH 447 0
DWIDTH 5 0
BBX 5 14 0 -3
BITMAP
013220
1C2020
8F2220
8F2220
8F2120
8F8640
7FA820
1C2020
7F2220
8F2220
8F2120
8F5230
8FFC20
155100
ENDCHAR
STARTCHAR section
ENCODING 167
SWIDTH 750 0
DWIDTH 9 0
BBX 9 10 0 -1
BITMAP
0023444220
0733000020
5F0229A910
9F03222220
AF214C0220
9FA1122320
3FDCA90220
1C22222120
8F86667500
7FFFEC6000
ENDCHAR
STARTCHAR dieresis
ENCODING 168
SWIDTH 600 0
DWIDTH 7 0
BBX 9 5 -1 7
BITMAP
0032242210
07910A1020
1F900B0020
1FFFFFF700
0674674000
ENDCHAR
STARTCHAR copyright
ENCODING 169
SWIDTH 967 0
DWIDTH 12 0
BBX 12 14 0 -3
BITMAP
000122222100
002100000120
0655DFFFE620
4F4494335C22
7F3942125D22
8F3B42CDDD22
8F3B4251CD22
8F3B42229D22
8F3AB4224D22
8F54EFFED631
7F9202310130
3FFB75446600
05DFFFFE8000
000344310000
ENDCHAR
STARTCHAR ordfeminine
ENCODING 170
SWIDTH 620 0
DWIDTH 7 0
BBX 8 10 0 -1
BITMAP
00534320
0A625220
3E219121
8C211122
CC22B222
DD36F632
DE878861
6C011102
CE666651
CFFFFD20
ENDCHAR
STARTCHAR guillemotleft
ENCODING 171
SWIDTH 912 0
DWIDTH 11 0
BBX 11 9 0 -1
BITMAP
000002000110
001220222120
052220712120
5F025B622610
AF0215720220
AF7120B12120
7FFD95EFB730
06BEE69DF700
000010001000
ENDCHAR
STARTCHAR logicalnot
ENCODING 172
SWIDTH 834 0
DWIDTH 10 0
BBX 10 8 0 -1
BITMAP
0032222221
1B31222212
7F52222022
7FFFFFF022
15555CF012
00000AF222
00000AFF80
0000024300
ENDCHAR
STARTCHAR uni00AD
ENCODING 173
SWIDTH 520 0
DWIDTH 6 0
BBX 7 5 0 1
BITMAP
02222200
5C021110
CE222310
CFFFE400
35552000
ENDCHAR
STARTCHAR registered
ENCODING 174
SWIDTH 660 0
DWIDTH 8 0
BBX 8 8 0 1
BITMAP
005DFFA1
1B7522B3
7F6553A4
9F663474
9F65A563
9FB89983
5FFFFE40
04897100
ENDCHAR
STARTCHAR macron
ENCODING 175
SWIDTH 600 0
DWIDTH 7 0
BBX 7 5 0 7
BITMAP
02222220
3C000020
CD022210
CFFFFE30
47777200
ENDCHAR
STARTCHAR degree
ENCODING 176
SWIDTH 583 0
DWIDTH 7 0
BBX 7 7 0 2
BITMAP
01344320
2C200220
AE24D220
BE239220
BF322210
8FFCB600
06984000
ENDCHAR
STARTCHAR plusminus
ENCODING 177
SWIDTH 834 0
DWIDTH 10 0
BBX 10 10 0 -1
BITMAP
0002723100
000E921100
0038520221
1C31242202
7F86320663
7FFF921F80
1578500521
2C31222202
7F96666662
6FFFFFFE50
ENDCHAR
STARTCHAR twosuperior
ENCODING 178
SWIDTH 585 0
DWIDTH 7 0
BBX 7 8 0 1
BITMAP
06443320
6FBA5220
6E921220
19121410
9D218320
CD344330
CFFFFC20
35555100
ENDCHAR
STARTCHAR threesuperior
ENCODING 179
SWIDTH 584 0
DWIDTH 7 0
BBX 7 8 0 1
BITMAP
07244200
7F000120
BFCA2220
5CA12220
0FDB8220
3E244440
BFFFF700
35542000
ENDCHAR
STARTCHAR acute
ENCODING 180
SWIDTH 600 0
DWIDTH 7 0
BBX 7 5 0 7
BITMAP
00222220
18022220
AD135650
CFFFE800
44310000
ENDCHAR
STARTCHAR mu
ENCODING 181
SWIDTH 813 0
DWIDTH 10 0
BBX 10 10 0 -2
BITMAP
0122202221
2D20248002
8F222E9202
8F222F9202
8F222F9202
8F23073201
8F22222100
8F21022310
8F989EA100
7EE8000000
ENDCHAR
STARTCHAR paragraph
ENCODING 182
SWIDTH 782 0
DWIDTH 9 0
BBX 9 10 0 -1
BITMAP
0021222230
0912222220
8C11000220
DC20000220
DD11000220
DF32322320
9FE7214220
07FA127120
00FC68B640
00EFBFF900
ENDCHAR
STARTCHAR periodcentered
ENCODING 183
SWIDTH 464 0
DWIDTH 6 0
BBX 6 5 0 2
BITMAP
022221
4D0202
BE0002
BF6662
AFFD30
ENDCHAR
STARTCHAR cedilla
ENCODING 184
SWIDTH 600 0
DWIDTH 7 0
BBX 5 6 1 -4
BITMAP
004210
086120
2F1120
8C2220
DFF500
452000
ENDCHAR
STARTCHAR onesuperior
ENCODING 185
SWIDTH 557 0
DWIDTH 7 0
BBX 7 8 0 1
BITMAP
06443200
6F712200
8FF42200
07F42200
06922210
5E234330
BFFFFB10
35554000
ENDCHAR
STARTCHAR ordmasculine
ENCODING 186
SWIDTH 625 0
DWIDTH 8 0
BBX 8 10 0 -1
BITMAP
01233320
2B100022
BD21F222
CD22F322
CD12F322
CF843440
8F888821
3C011102
CE666651
BFFFFD20
ENDCHAR
STARTCHAR guillemotright
ENCODING 187
SWIDTH 912 0
DWIDTH 11 0
BBX 11 9 0 -1
BITMAP
000000100000
041331333200
5F2212712010
8FC620D81210
7F7120A30220
1B1226612240
8F79DF97B800
8FFB6FFD6000
351017300000
ENDCHAR
STARTCHAR onequarter
ENCODING 188
SWIDTH 1303 0
DWIDTH 16 0
BBX 16 10 0 -1
BITMAP
0644321822200000
7F7122AB20100000
7EF422E822323321
06F423F52642C422
069224D32942C422
5E2343A11C437422
BFFFFFC20E922022
35554D902FFFF412
00001FB62349F962
00002FF80005FE40
ENDCHAR
STARTCHAR onehalf
ENCODING 189
SWIDTH 1260 0
DWIDTH 15 0
BBX 15 10 0 -1
BITMAP
0544321822200000
5F7122AB20100000
8FF422E822322210
29F423F526422220
069224D329EC6220
5E2343A119721310
BFFFFFC20E207420
35554D902E122120
00001FB69F666620
00002FF8AFFFF800
ENDCHAR
STARTCHAR threequarters
ENCODING 190
SWIDTH 1313 0
DWIDTH 16 0
BBX 16 10 0 -1
BITMAP
1924422932200000
AFCA22CD20100000
5BA123CA21402301
0EA002572452A622
0FDB82542752A622
3E2444B12A637522
BFFFEDE11DB32122
35541BB01FFFF612
00000EC63247FA62
00000EF90004FE50
ENDCHAR
STARTCHAR questiondown
ENCODING 191
SWIDTH 756 0
DWIDTH 9 0
BBX 9 10 0 -1
BITMAP
0000722300
000BA01200
000FC44400
0019642200
0521221200
6E02035400
BE02387220
BF21222120
9FE8666640
2BEFFFF900
ENDCHAR
STARTCHAR Agrave
ENCODING 192
SWIDTH 830 0
DWIDTH 10 0
BBX 10 13 0 -1
BITMAP
0049777720
04F4122020
06FA753100
03C8000110
00B2122020
05B01B3110
0B611F7102
2F21010012
7F03222222
9F02121022
AF025FC022
AF767EE663
9FF91CFF60
ENDCHAR
STARTCHAR Aacute
ENCODING 193
SWIDTH 830 0
DWIDTH 10 0
BBX 10 13 0 -1
BITMAP
0004555530
0094122020
06F5246400
06F9222210
02E2122020
05C01B3120
0B611F7102
2F21010012
7F03222222
9F02121022
AF025FC022
AF767EE663
9FF91CFF60
ENDCHAR
STARTCHAR Acircumflex
ENCODING 194
SWIDTH 830 0
DWIDTH 10 0
BBX 10 14 0 -1
BITMAP
0000122000
0013222220
01B4000020
06F9AEC820
06F8000110
02D2122020
05B01B3110
0B511F7102
2F21010012
7F03222222
9F02121022
AF025FC022
AF767EE663
9FF91CFF60
ENDCHAR
STARTCHAR Atilde
ENCODING 195
SWIDTH 830 0
DWIDTH 10 0
BBX 10 13 0 -1
BITMAP
0002221210
0084122020
05F5431220
06FC666510
02D4122020
05D01B3120
0B711F7101
2F21010012
7F03222222
9F02121022
AF025FC022
AF767EE663
9FF91CFF60
ENDCHAR
STARTCHAR Adieresis
ENCODING 196
SWIDTH 830 0
DWIDTH 10 0
BBX 10 13 0 -1
BITMAP
0022233210
03D0191120
0BF0091020
0BFD888820
03E4122020
05D01B3120
0B711F7101
2F21010012
7F03222222
9F02121022
AF025FC022
AF767EE663
9FF91CFF60
ENDCHAR
STARTCHAR Aring
ENCODING 197
SWIDTH 830 0
DWIDTH 10 0
BBX 10 14 0 -1
BITMAP
0001222200
0024122120
02E3210220
07F32D7220
08F6253120
05F1122020
07B01B3110
0C511F7102
3F11010012
8F03222222
AF02121022
AF025FC022
AF767EE662
9FF91CFF50
ENDCHAR
STARTCHAR AE
ENCODING 198
SWIDTH 1105 0
DWIDTH 13 0
BBX 13 10 0 -1
BITMAP
00152222222230
01D12222222120
07B02AA018EE50
0D520EA0100200
3F121860322200
8F032222158500
9F021210158220
AF015FA0222120
AF767FC6666650
9FF91EFFFFFA10
ENDCHAR
STARTCHAR Ccedilla
ENCODING 199
SWIDTH 728 0
DWIDTH 9 0
BBX 9 12 0 -3
BITMAP
0022222220
0641222120
4F12022210
8F122FF800
9F12254000
9F12200000
9F22122210
8F71223120
3FFB421730
04BF526400
006FFB2000
0025400000
ENDCHAR
STARTCHAR Egrave
ENCODING 200
SWIDTH 754 0
DWIDTH 9 0
BBX 9 13 0 -1
BITMAP
0065555400
09C0221200
0DE8642100
0B52222230
3E32222120
7F321EED30
7F32000200
7F32221200
7F32177300
7F32187220
7F32222120
7F96666640
6FFFFFF800
ENDCHAR
STARTCHAR Eacute
ENCODING 201
SWIDTH 754 0
DWIDTH 9 0
BBX 9 13 0 -1
BITMAP
0005555520
01A3122020
07F3246400
0952222230
4F32222120
7F321EED30
7F32000200
7F32221200
7F32177300
7F32187220
7F32222120
7F96666640
6FFFFFF800
ENDCHAR
STARTCHAR Ecircumflex
ENCODING 202
SWIDTH 754 0
DWIDTH 9 0
BBX 9 14 0 -1
BITMAP
0000222000
0044222300
06D0101110
0BE6AC9500
0D52222230
6F32222120
7F321EED30
7F32000200
7F32221200
7F32177300
7F32187220
7F32222120
7F96666640
6FFFFFF800
ENDCHAR
STARTCHAR Edieresis
ENCODING 203
SWIDTH 754 0
DWIDTH 9 0
BBX 9 13 0 -1
BITMAP
0022242210
05B10A0120
0EC00B0000
0EA8888860
2E32222120
7F321EED30
7F32000200
7F32221200
7F32177300
7F32187220
7F32222120
7F96666640
6FFFFFF800
ENDCHAR
STARTCHAR Igrave
ENCODING 204
SWIDTH 705 0
DWIDTH 8 0
BBX 9 13 0 -1
BITMAP
0175555200
1D71221200
3FC7532100
1E32222210
6F02222020
AF85115600
8EFA116100
00FA112000
00FA112000
0295112200
3E02222020
AF76666610
9FFFFFC200
ENDCHAR
STARTCHAR Iacute
ENCODING 205
SWIDTH 705 0
DWIDTH 8 0
BBX 9 13 0 -1
BITMAP
0035555400
0681221200
2F82356000
3F32222210
5F02222020
AF85115600
8EFA116100
00FA112000
00FA112000
0295112200
3E02222020
AF76666610
9FFFFFC200
ENDCHAR
STARTCHAR Icircumflex
ENCODING 206
SWIDTH 705 0
DWIDTH 8 0
BBX 9 14 0 -1
BITMAP
0001221000
0032222200
0871001200
2FA7BB7300
3F32222210
5F02222020
AF85115600
8EFA116100
00FA112000
00FA112000
0295112200
3E02222020
AF76666610
9FFFFFC200
ENDCHAR
STARTCHAR Idieresis
ENCODING 207
SWIDTH 705 0
DWIDTH 8 0
BBX 9 13 0 -1
BITMAP
0132332200
1C31541200
7F40650000
7F88888810
6F02222020
AF85115500
8EFA116100
00FA112000
00FA112000
0295112200
3E02222020
AF76666610
9FFFFFC200
ENDCHAR
STARTCHAR Eth
ENCODING 208
SWIDTH 856 0
DWIDTH 10 0
BBX 11 10 -1 -1
BITMAP
003522222210
03E522222020
05F520ED0220
05A0203F1220
0BA1421F1220
1FF520DE0220
0BF520000220
05F522222020
05FA66667500
04FFFFFD6000
ENDCHAR
STARTCHAR Ntilde
ENCODING 209
SWIDTH 853 0
DWIDTH 10 0
BBX 10 13 0 -1
BITMAP
0002222220
0076122120
04F7331100
07526FE222
5F3316E022
7F32116022
7F32021022
7F32132022
7F322D1222
7F322FB022
7F312FE012
7F965BF663
6FFA1AFF70
ENDCHAR
STARTCHAR Ograve
ENCODING 210
SWIDTH 837 0
DWIDTH 10 0
BBX 10 14 0 -1
BITMAP
0004420000
009AACCC40
05F4012020
05F8124400
0170222111
1D22000112
7F122EB022
9F122EC022
9F122DC022
9F122DC022
9F22053112
8F80222212
3FFB877830
05CEFEA200
ENDCHAR
STARTCHAR Oacute
ENCODING 211
SWIDTH 837 0
DWIDTH 10 0
BBX 10 14 0 -1
BITMAP
0000013410
002BCCB840
02D5110000
06F3431100
0490211111
1E22000112
7F122EB022
9F122EC022
9F122DC022
9F122DC022
9F22053112
8F80222212
3FFB877830
05CEFEA200
ENDCHAR
STARTCHAR Ocircumflex
ENCODING 212
SWIDTH 837 0
DWIDTH 10 0
BBX 10 14 0 -1
BITMAP
0000222000
0026222220
03E4100020
06F99CA720
05D4222231
1E32000112
7F122EB022
9F122EC022
9F122DC022
9F122DC022
9F22053112
8F70222212
3FFB877840
05CEFEB300
ENDCHAR
STARTCHAR Otilde
ENCODING 213
SWIDTH 837 0
DWIDTH 10 0
BBX 10 14 0 -1
BITMAP
0003211110
0075122020
05F4001020
06F6541110
04E6433420
1E42000112
7F122EB022
9F122EC022
9F122DC022
9F122DC022
9F22053112
8F70222212
3FFB877840
05CEFEB300
ENDCHAR
STARTCHAR Odieresis
ENCODING 214
SWIDTH 837 0
DWIDTH 10 0
BBX 10 14 0 -1
BITMAP
0012212210
02D0071020
0AF0181120
0AF1092010
06FA877940
1E62000113
7F222EB022
9F122EC022
9F122DC022
9F122DC022
9F22053112
8F70222202
3FFB867840
05CEFEB300
ENDCHAR
STARTCHAR multiply
ENCODING 215
SWIDTH 834 0
DWIDTH 10 0
BBX 10 9 0 0
BITMAP
0001100110
0040114011
09B0221121
2FFA132110
05FB122110
0081221121
09B02EA011
2FFA6FF910
05B207C200
ENDCHAR
STARTCHAR Oslash
ENCODING 216
SWIDTH 837 0
DWIDTH 10 0
BBX 10 13 0 -2
BITMAP
0000001220
0000004020
0013443411
0542003422
4F125B4022
8F12773122
9F12547122
9F1214D122
9F25527112
9F71522212
5FC0177840
0DECDEB300
09A4000000
ENDCHAR
STARTCHAR Ugrave
ENCODING 217
SWIDTH 846 0
DWIDTH 10 0
BBX 10 13 0 -1
BITMAP
0037555510
04E3122020
07FA753110
08424FE223
5F222AD022
8F222CD022
8F222CD022
8F222CD022
8F222CD022
8F32043112
7F80222202
3FFC877840
05CEFEB300
ENDCHAR
STARTCHAR Uacute
ENCODING 218
SWIDTH 846 0
DWIDTH 10 0
BBX 10 13 0 -1
BITMAP
0003555540
0067122120
03F8235600
06424BD223
5F222AD022
8F222CD022
8F222CD022
8F222CD022
8F222CD022
8F32043112
7F80222202
3FFC877840
05CEFEB300
ENDCHAR
STARTCHAR Ucircumflex
ENCODING 219
SWIDTH 846 0
DWIDTH 10 0
BBX 10 14 0 -1
BITMAP
0000021000
0002122010
01B5275120
05FFFFFF60
07424CE223
6F222AD022
8F222CD022
8F222CD022
8F222CD022
8F221CC022
8F32000112
7F80222202
3FFC877840
05CEFEB300
ENDCHAR
STARTCHAR Udieresis
ENCODING 220
SWIDTH 846 0
DWIDTH 10 0
BBX 10 14 0 -1
BITMAP
0013212220
02D1062020
09F1172120
09F2083000
3E989FE886
8F212CD012
8F222CD022
8F222CD022
8F222CD022
8F222CD022
8F32054122
7F80222201
3FFB877840
04BEFEB300
ENDCHAR
STARTCHAR Yacute
ENCODING 221
SWIDTH 805 0
DWIDTH 10 0
BBX 10 13 0 -1
BITMAP
0004555520
0094122020
06F4246400
09227CB222
9E022CA102
BE022F9102
BF121D3202
BF80201120
5FF5131110
09FE120200
00CF310200
007F965100
006FFC2000
ENDCHAR
STARTCHAR Thorn
ENCODING 222
SWIDTH 792 0
DWIDTH 10 0
BBX 10 10 0 -1
BITMAP
0442300000
4F32022220
7F33222111
7F321C6202
7F321F7202
7F32000211
7F32234530
7F311FE500
7F96131000
6FF9000000
ENDCHAR
STARTCHAR germandbls
ENCODING 223
SWIDTH 859 0
DWIDTH 10 0
BBX 11 10 0 -1
BITMAP
044222222000
4F3222212000
7F3206022000
7F321E022100
7F321C122110
7F321FF52020
7F321B202020
7F311A021210
7F967D667200
6FFBEFEB2000
ENDCHAR
STARTCHAR agrave
ENCODING 224
SWIDTH 830 0
DWIDTH 10 0
BBX 10 13 0 -1
BITMAP
0049777720
04F4122020
06FA753100
03C8000110
00B2122020
05B01B3110
0B611F7102
2F21010012
7F03222222
9F02121022
AF025FC022
AF767EE663
9FF91CFF60
ENDCHAR
STARTCHAR aacute
ENCODING 225
SWIDTH 830 0
DWIDTH 10 0
BBX 10 13 0 -1
BITMAP
0004555530
0094122020
06F5246400
06F9222210
02E2122020
05C01B3120
0B611F7102
2F21010012
7F03222222
9F02121022
AF025FC022
AF767EE663
9FF91CFF60
ENDCHAR
STARTCHAR acircumflex
ENCODING 226
SWIDTH 830 0
DWIDTH 10 0
BBX 10 14 0 -1
BITMAP
0000122000
0013222220
01B4000020
06F9AEC820
06F8000110
02D2122020
05B01B3110
0B511F7102
2F21010012
7F03222222
9F02121022
AF025FC022
AF767EE663
9FF91CFF60
ENDCHAR
STARTCHAR atilde
ENCODING 227
SWIDTH 830 0
DWIDTH 10 0
BBX 10 13 0 -1
BITMAP
0002221210
0084122020
05F5431220
06FC666510
02D4122020
05D01B3120
0B711F7101
2F21010012
7F03222222
9F02121022
AF025FC022
AF767EE663
9FF91CFF60
ENDCHAR
STARTCHAR adieresis
ENCODING 228
SWIDTH 830 0
DWIDTH 10 0
BBX 10 13 0 -1
BITMAP
0022233210
03D0191120
0BF0091020
0BFD888820
03E4122020
05D01B3120
0B711F7101
2F21010012
7F03222222
9F02121022
AF025FC022
AF767EE663
9FF91CFF60
ENDCHAR
STARTCHAR aring
ENCODING 229
SWIDTH 830 0
DWIDTH 10 0
BBX 10 14 0 -1
BITMAP
0001222200
0024122120
02E3210220
07F32D7220
08F6253120
05F1122020
07B01B3110
0C511F7102
3F11010012
8F03222222
AF02121022
AF025FC022
AF767EE662
9FF91CFF50
ENDCHAR
STARTCHAR ae
ENCODING 230
SWIDTH 1105 0
DWIDTH 13 0
BBX 13 10 0 -1
BITMAP
00152222222230
01D12222222120
07B02AA018EE50
0D520EA0100200
3F121860322200
8F032222158500
9F021210158220
AF015FA0222120
AF767FC6666650
9FF91EFFFFFA10
ENDCHAR
STARTCHAR ccedilla
ENCODING 231
SWIDTH 728 0
DWIDTH 9 0
BBX 9 12 0 -3
BITMAP
0022222220
0641222120
4F12022210
8F122FF800
9F12254000
9F12200000
9F22122210
8F71223120
3FFB421730
04BF526400
006FFB2000
0025400000
ENDCHAR
STARTCHAR egrave
ENCODING 232
SWIDTH 754 0
DWIDTH 9 0
BBX 9 13 0 -1
BITMAP
0065555400
09C0221200
0DE8642100
0B52222230
3E32222120
7F321EED30
7F32000200
7F32221200
7F32177300
7F32187220
7F32222120
7F96666640
6FFFFFF800
ENDCHAR
STARTCHAR eacute
ENCODING 233
SWIDTH 754 0
DWIDTH 9 0
BBX 9 13 0 -1
BITMAP
0005555520
01A3122020
07F3246400
0952222230
4F32222120
7F321EED30
7F32000200
7F32221200
7F32177300
7F32187220
7F32222120
7F96666640
6FFFFFF800
ENDCHAR
STARTCHAR ecircumflex
ENCODING 234
SWIDTH 754 0
DWIDTH 9 0
BBX 9 14 0 -1
BITMAP
0000222000
0044222300
06D0101110
0BE6AC9500
0D52222230
6F32222120
7F321EED30
7F32000200
7F32221200
7F32177300
7F32187220
7F32222120
7F96666640
6FFFFFF800
ENDCHAR
STARTCHAR edieresis
ENCODING 235
SWIDTH 754 0
DWIDTH 9 0
BBX 9 13 0 -1
BITMAP
0022242210
05B10A0120
0EC00B0000
0EA8888860
2E32222120
7F321EED30
7F32000200
7F32221200
7F32177300
7F32187220
7F32222120
7F96666640
6FFFFFF800
ENDCHAR
STARTCHAR igrave
ENCODING 236
SWIDTH 705 0
DWIDTH 8 0
BBX 9 13 0 -1
BITMAP
0175555200
1D71221200
3FC7532100
1E32222210
6F02222020
AF85115600
8EFA116100
00FA112000
00FA112000
0295112200
3E02222020
AF76666610
9FFFFFC200
ENDCHAR
STARTCHAR iacute
ENCODING 237
SWIDTH 705 0
DWIDTH 8 0
BBX 9 13 0 -1
BITMAP
0035555400
0681221200
2F82356000
3F32222210
5F02222020
AF85115600
8EFA116100
00FA112000
00FA112000
0295112200
3E02222020
AF76666610
9FFFFFC200
ENDCHAR
STARTCHAR icircumflex
ENCODING 238
SWIDTH 705 0
DWIDTH 8 0
BBX 9 14 0 -1
BITMAP
0001221000
0032222200
0871001200
2FA7BB7300
3F32222210
5F02222020
AF85115600
8EFA116100
00FA112000
00FA112000
0295112200
3E02222020
AF76666610
9FFFFFC200
ENDCHAR
STARTCHAR idieresis
ENCODING 239
SWIDTH 705 0
DWIDTH 8 0
BBX 9 13 0 -1
BITMAP
0132332200
1C31541200
7F40650000
7F88888810
6F02222020
AF85115500
8EFA116100
00FA112000
00FA112000
0295112200
3E02222020
AF76666610
9FFFFFC200
ENDCHAR
STARTCHAR eth
ENCODING 240
SWIDTH 856 0
DWIDTH 10 0
BBX 11 10 -1 -1
BITMAP
003522222210
03E522222020
05F520ED0220
05A0203F1220
0BA1421F1220
1FF520DE0220
0BF520000220
05F522222020
05FA66667500
04FFFFFD6000
ENDCHAR
STARTCHAR ntilde
ENCODING 241
SWIDTH 853 0
DWIDTH 10 0
BBX 10 13 0 -1
BITMAP
0002222220
0076122120
04F7331100
07526FE222
5F3316E022
7F32116022
7F32021022
7F32132022
7F322D1222
7F322FB022
7F312FE012
7F965BF663
6FFA1AFF70
ENDCHAR
STARTCHAR ograve
ENCODING 242
SWIDTH 837 0
DWIDTH 10 0
BBX 10 14 0 -1
BITMAP
0004420000
009AACCC40
05F4012020
05F8124400
0170222111
1D22000112
7F122EB022
9F122EC022
9F122DC022
9F122DC022
9F22053112
8F80222212
3FFB877830
05CEFEA200
ENDCHAR
STARTCHAR oacute
ENCODING 243
SWIDTH 837 0
DWIDTH 10 0
BBX 10 14 0 -1
BITMAP
0000013410
002BCCB840
02D5110000
06F3431100
0490211111
1E22000112
7F122EB022
9F122EC022
9F122DC022
9F122DC022
9F22053112
8F80222212
3FFB877830
05CEFEA200
ENDCHAR
STARTCHAR ocircumflex
ENCODING 244
SWIDTH 837 0
DWIDTH 10 0
BBX 10 14 0 -1
BITMAP
0000222000
0026222220
03E4100020
06F99CA720
05D4222231
1E32000112
7F122EB022
9F122EC022
9F122DC022
9F122DC022
9F22053112
8F70222212
3FFB877840
05CEFEB300
ENDCHAR
STARTCHAR otilde
ENCODING 245
SWIDTH 837 0
DWIDTH 10 0
BBX 10 14 0 -1
BITMAP
0003211110
0075122020
05F4001020
06F6541110
04E6433420
1E42000112
7F122EB022
9F122EC022
9F122DC022
9F122DC022
9F22053112
8F70222212
3FFB877840
05CEFEB300
ENDCHAR
STARTCHAR odieresis
ENCODING 246
SWIDTH 837 0
DWIDTH 10 0
BBX 10 14 0 -1
BITMAP
0012212210
02D0071020
0AF0181120
0AF1092010
06FA877940
1E62000113
7F222EB022
9F122EC022
9F122DC022
9F122DC022
9F22053112
8F70222202
3FFB867840
05CEFEB300
ENDCHAR
STARTCHAR divide
ENCODING 247
SWIDTH 834 0
DWIDTH 10 0
BBX 10 10 0 -2
BITMAP
0001322100
002D610200
0058877321
0A30000002
6F31222202
7FDB977B80
4BBF610810
004F722200
004FFF7000
0014430000
ENDCHAR
STARTCHAR oslash
ENCODING 248
SWIDTH 837 0
DWIDTH 10 0
BBX 10 13 0 -2
BITMAP
0000001220
0000004020
0013443411
0542003422
4F125B4022
8F12773122
9F12547122
9F1214D122
9F25527112
9F71522212
5FC0177840
0DECDEB300
09A4000000
ENDCHAR
STARTCHAR ugrave
ENCODING 249
SWIDTH 846 0
DWIDTH 10 0
BBX 10 13 0 -1
BITMAP
0037555510
04E3122020
07FA753110
08424FE223
5F222AD022
8F222CD022
8F222CD022
8F222CD022
8F222CD022
8F32043112
7F80222202
3FFC877840
05CEFEB300
ENDCHAR
STARTCHAR uacute
ENCODING 250
SWIDTH 846 0
DWIDTH 10 0
BBX 10 13 0 -1
BITMAP
0003555540
0067122120
03F8235600
06424BD223
5F222AD022
8F222CD022
8F222CD022
8F222CD022
8F222CD022
8F32043112
7F80222202
3FFC877840
05CEFEB300
ENDCHAR
STARTCHAR ucircumflex
ENCODING 251
SWIDTH 846 0
DWIDTH 10 0
BBX 10 14 0 -1
BITMAP
0000021000
0002122010
01B5275120
05FFFFFF60
07424CE223
6F222AD022
8F222CD022
8F222CD022
8F222CD022
8F221CC022
8F32000112
7F80222202
3FFC877840
05CEFEB300
ENDCHAR
STARTCHAR udieresis
ENCODING 252
SWIDTH 846 0
DWIDTH 10 0
BBX 10 14 0 -1
BITMAP
0013212220
02D1062020
09F1172120
09F2083000
3E989FE886
8F212CD012
8F222CD022
8F222CD022
8F222CD022
8F222CD022
8F32054122
7F80222201
3FFB877840
04BEFEB300
ENDCHAR
STARTCHAR yacute
ENCODING 253
SWIDTH 805 0
DWIDTH 10 0
BBX 10 13 0 -1
BITMAP
0004555520
0094122020
06F4246400
09227CB222
9E022CA102
BE022F9102
BF121D3202
BF80201120
5FF5131110
09FE120200
00CF310200
007F965100
006FFC2000
ENDCHAR
STARTCHAR thorn
ENCODING 254
SWIDTH 792 0
DWIDTH 10 0
BBX 10 10 0 -1
BITMAP
0442300000
4F32022220
7F33222111
7F321C6202
7F321F7202
7F32000211
7F32234530
7F311FE500
7F96131000
6FF9000000
ENDCHAR
STARTCHAR ydieresis
ENCODING 255
SWIDTH 805 0
DWIDTH 10 0
BBX 10 13 0 -1
BITMAP
0022242210
05C01A0120
0DC00B0000
0D88BFD874
8E014DA102
BE022FA102
BE021E4201
BF71211110
5FF4131110
09FE120200
00CF310200
007F965100
006FFC2000
ENDCHAR
STARTCHAR Amacron
ENCODING 256
SWIDTH 830 0
DWIDTH 10 0
BBX 10 13 0 -1
BITMAP
0003222210
01B4122020
06F4000020
06FD888810
01E4122020
05D01B3120
0B711F7101
2F21010012
7F03222222
9F02121022
AF025FC022
AF767EE663
9FF91CFF60
ENDCHAR
STARTCHAR amacron
ENCODING 257
SWIDTH 830 0
DWIDTH 10 0
BBX 10 13 0 -1
BITMAP
0003222210
01B4122020
06F4000020
06FD888810
01E4122020
05D01B3120
0B711F7101
2F21010012
7F03222222
9F02121022
AF025FC022
AF767EE663
9FF91CFF60
ENDCHAR
STARTCHAR Abreve
ENCODING 258
SWIDTH 830 0
DWIDTH 10 0
BBX 10 14 0 -1
BITMAP
0003213210
00B2154120
07F4222110
07FC301100
03FC666720
00B4122030
05D01B3130
0B711F7102
2F21010012
7F03222222
9F02121022
AF025FC022
AF767EE663
9FF91CFF60
ENDCHAR
STARTCHAR abreve
ENCODING 259
SWIDTH 830 0
DWIDTH 10 0
BBX 10 14 0 -1
BITMAP
0003213210
00B2154120
07F4222110
07FC301100
03FC666720
00B4122030
05D01B3130
0B711F7102
2F21010012
7F03222222
9F02121022
AF025FC022
AF767EE663
9FF91CFF60
ENDCHAR
STARTCHAR Aogonek
ENCODING 260
SWIDTH 830 0
DWIDTH 10 0
BBX 10 13 0 -4
BITMAP
0004222210
00B2122020
05C01B3120
0B611F7102
2F21010012
7F03222222
9F02121022
AF025FC022
AF767EB212
9FF91E8221
00001FC223
00001FFFC2
0000025400
ENDCHAR
STARTCHAR aogonek
ENCODING 261
SWIDTH 830 0
DWIDTH 10 0
BBX 10 13 0 -4
BITMAP
0004222210
00B2122020
05C01B3120
0B611F7102
2F21010012
7F03222222
9F02121022
AF025FC022
AF767EB212
9FF91E8221
00001FC223
00001FFFC2
0000025400
ENDCHAR
STARTCHAR Cacute
ENCODING 262
SWIDTH 728 0
DWIDTH 9 0
BBX 9 13 0 -1
BITMAP
0003555530
0076122120
04F6245500
05E6322220
0451234230
2E222FFA10
8F12254000
9F12200000
9F12200000
9F22022210
8F71222120
4FFA766630
06DFFFE500
ENDCHAR
STARTCHAR cacute
ENCODING 263
SWIDTH 728 0
DWIDTH 9 0
BBX 9 13 0 -1
BITMAP
0003555530
0076122120
04F6245500
05E6322220
0451234230
2E222FFA10
8F12254000
9F12200000
9F12200000
9F22022210
8F71222120
4FFA766630
06DFFFE500
ENDCHAR
STARTCHAR Ccircumflex
ENCODING 264
SWIDTH 728 0
DWIDTH 9 0
BBX 9 14 0 -1
BITMAP
0000222000
0023222310
02D0101020
0AF69C9510
0AE6322220
0641234230
2E222FFA10
8F12254000
9F12200000
9F12200000
9F22022210
8F71222120
4FFA766630
06DFFFE500
ENDCHAR
STARTCHAR ccircumflex
ENCODING 265
SWIDTH 728 0
DWIDTH 9 0
BBX 9 14 0 -1
BITMAP
0000222000
0023222310
02D0101020
0AF69C9510
0AE6322220
0641234230
2E222FFA10
8F12254000
9F12200000
9F12200000
9F22022210
8F71222120
4FFA766630
06DFFFE500
ENDCHAR
STARTCHAR Cdotaccent
ENCODING 266
SWIDTH 728 0
DWIDTH 9 0
BBX 9 14 0 -1
BITMAP
0000322000
001B400200
006F410200
006F501100
01A6322220
1C51234230
6F222FFA10
9F12254000
9F12200000
9F12200000
9F22022210
8F71222120
3FFA766630
06DFFFE500
ENDCHAR
STARTCHAR cdotaccent
ENCODING 267
SWIDTH 728 0
DWIDTH 9 0
BBX 9 14 0 -1
BITMAP
0000322000
001B400200
006F410200
006F501100
01A6322220
1C51234230
6F222FFA10
9F12254000
9F12200000
9F12200000
9F22022210
8F71222120
3FFA766630
06DFFFE500
ENDCHAR
STARTCHAR Ccaron
ENCODING 268
SWIDTH 728 0
DWIDTH 9 0
BBX 9 14 0 -1
BITMAP
0016100100
02D1422120
0AF0222010
0AFC515200
04C6322220
0431234230
3F222FFA10
8F12254000
9F12200000
9F12200000
9F22022210
8F71222120
4FFA766630
06DFFFE500
ENDCHAR
STARTCHAR ccaron
ENCODING 269
SWIDTH 728 0
DWIDTH 9 0
BBX 9 14 0 -1
BITMAP
0016100100
02D1422120
0AF0222010
0AFC515200
04C6322220
0431234230
3F222FFA10
8F12254000
9F12200000
9F12200000
9F22022210
8F71222120
4FFA766630
06DFFFE500
ENDCHAR
STARTCHAR Dcaron
ENCODING 270
SWIDTH 846 0
DWIDTH 10 0
BBX 10 14 0 -1
BITMAP
0006200010
00A6332220
05F5122010
05FE713400
0541111121
4F32222202
7F32064022
7F321FE022
7F321CE022
7F321CE022
7F32177022
7F32222202
7F96666750
6FFFFEC400
ENDCHAR
STARTCHAR dcaron
ENCODING 271
SWIDTH 846 0
DWIDTH 10 0
BBX 10 14 0 -1
BITMAP
0006200010
00A6332220
05F5122010
05FE713400
0541111121
4F32222202
7F32064022
7F321FE022
7F321CE022
7F321CE022
7F32177022
7F32222202
7F96666750
6FFFFEC400
ENDCHAR
STARTCHAR Dcroat
ENCODING 272
SWIDTH 856 0
DWIDTH 10 0
BBX 11 10 -1 -1
BITMAP
003522222210
03E522222020
05F520ED0220
05A0203F1220
0BA1421F1220
1FF520DE0220
0BF520000220
05F522222020
05FA66667500
04FFFFFD6000
ENDCHAR
STARTCHAR dcroat
ENCODING 273
SWIDTH 856 0
DWIDTH 10 0
BBX 11 10 -1 -1
BITMAP
003522222210
03E522222020
05F520ED0220
05A0203F1220
0BA1421F1220
1FF520DE0220
0BF520000220
05F522222020
05FA66667500
04FFFFFD6000
ENDCHAR
STARTCHAR Emacron
ENCODING 274
SWIDTH 754 0
DWIDTH 9 0
BBX 9 13 0 -1
BITMAP
0022222300
03C0222110
0BE0000000
0B52222230
3E32222120
7F321EED30
7F32000200
7F32221200
7F32177300
7F32187220
7F32222120
7F96666640
6FFFFFF800
ENDCHAR
STARTCHAR emacron
ENCODING 275
SWIDTH 754 0
DWIDTH 9 0
BBX 9 13 0 -1
BITMAP
0022222300
03C0222110
0BE0000000
0B52222230
3E32222120
7F321EED30
7F32000200
7F32221200
7F32177300
7F32187220
7F32222120
7F96666640
6FFFFFF800
ENDCHAR
STARTCHAR Ebreve
ENCODING 276
SWIDTH 754 0
DWIDTH 9 0
BBX 9 14 0 -1
BITMAP
0022213210
02C1172120
0AF1222010
0AFA201000
0752222230
4E32222120
7F321EED30
7F32000200
7F32221200
7F32177300
7F32187220
7F32222120
7F96666640
6FFFFFF800
ENDCHAR
STARTCHAR ebreve
ENCODING 277
SWIDTH 754 0
DWIDTH 9 0
BBX 9 14 0 -1
BITMAP
0022213210
02C1172120
0AF1222010
0AFA201000
0752222230
4E32222120
7F321EED30
7F32000200
7F32221200
7F32177300
7F32187220
7F32222120
7F96666640
6FFFFFF800
ENDCHAR
STARTCHAR Edotaccent
ENCODING 278
SWIDTH 754 0
DWIDTH 9 0
BBX 9 14 0 -1
BITMAP
0001222000
001B002000
00AE012000
00BE000000
0442222230
4F32222120
7F321EED30
7F32000200
7F32221200
7F32177300
7F32187220
7F32222120
7F96666640
6FFFFFF800
ENDCHAR
STARTCHAR edotaccent
ENCODING 279
SWIDTH 754 0
DWIDTH 9 0
BBX 9 14 0 -1
BITMAP
0001222000
001B002000
00AE012000
00BE000000
0442222230
4F32222120
7F321EED30
7F32000200
7F32221200
7F32177300
7F32187220
7F32222120
7F96666640
6FFFFFF800
ENDCHAR
STARTCHAR Eogonek
ENCODING 280
SWIDTH 754 0
DWIDTH 9 0
BBX 9 13 0 -4
BITMAP
0442222230
4F32222120
7F321EED30
7F32000200
7F32221200
7F32177200
7F32187220
7F32222120
7F96652160
6FFFFA2340
0000ED3230
0000DFFD30
0000255100
ENDCHAR
STARTCHAR eogonek
ENCODING 281
SWIDTH 754 0
DWIDTH 9 0
BBX 9 13 0 -4
BITMAP
0442222230
4F32222120
7F321EED30
7F32000200
7F32221200
7F32177200
7F32187220
7F32222120
7F96652160
6FFFFA2340
0000ED3230
0000DFFD30
0000255100
ENDCHAR
STARTCHAR Ecaron
ENCODING 282
SWIDTH 754 0
DWIDTH 9 0
BBX 9 14 0 -1
BITMAP
0016100100
02D1422120
0AF0222010
0AFC515200
0752222230
4F32222120
7F321EED30
7F32000200
7F32221200
7F32177300
7F32187220
7F32222120
7F96666640
6FFFFFF800
ENDCHAR
STARTCHAR ecaron
ENCODING 283
SWIDTH 754 0
DWIDTH 9 0
BBX 9 14 0 -1
BITMAP
0016100100
02D1422120
0AF0222010
0AFC515200
0752222230
4F32222120
7F321EED30
7F32000200
7F32221200
7F32177300
7F32187220
7F32222120
7F96666640
6FFFFFF800
ENDCHAR
STARTCHAR Gcircumflex
ENCODING 284
SWIDTH 808 0
DWIDTH 10 0
BBX 10 14 0 -1
BITMAP
0000122100
0003222220
0087000020
03FBAED930
03D4100020
0441234330
2E122FFB10
8F12257221
9F12268002
9F123F8202
9F22032202
8F71222302
4FFA766651
06DFFFFD20
ENDCHAR
STARTCHAR gcircumflex
ENCODING 285
SWIDTH 808 0
DWIDTH 10 0
BBX 10 14 0 -1
BITMAP
0000122100
0003222220
0087000020
03FBAED930
03D4100020
0441234330
2E122FFB10
8F12257221
9F12268002
9F123F8202
9F22032202
8F71222302
4FFA766651
06DFFFFD20
ENDCHAR
STARTCHAR Gbreve
ENCODING 286
SWIDTH 808 0
DWIDTH 10 0
BBX 10 14 0 -1
BITMAP
0003213210
00A4145120
05F6222110
05FD301100
02C6322220
0431234330
3F122FFB10
8F12257221
9F12268002
9F123F8202
9F22032202
8F71222302
4FFA766651
06DFFFFD20
ENDCHAR
STARTCHAR gbreve
ENCODING 287
SWIDTH 808 0
DWIDTH 10 0
BBX 10 14 0 -1
BITMAP
0003213210
00A4145120
05F6222110
05FD301100
02C6322220
0431234330
3F122FFB10
8F12257221
9F12268002
9F123F8202
9F22032202
8F71222302
4FFA766651
06DFFFFD20
ENDCHAR
STARTCHAR Gdotaccent
ENCODING 288
SWIDTH 808 0
DWIDTH 10 0
BBX 10 14 0 -1
BITMAP
0000222100
0005700200
002F810200
003F800000
0026322220
0541234330
3F122FFB10
8F12257221
9F12268002
9F123F8202
9F22032202
8F71222302
4FFA766651
06DFFFFD20
ENDCHAR
STARTCHAR gdotaccent
ENCODING 289
SWIDTH 808 0
DWIDTH 10 0
BBX 10 14 0 -1
BITMAP
0000222100
0005700200
002F810200
003F800000
0026322220
0541234330
3F122FFB10
8F12257221
9F12268002
9F123F8202
9F22032202
8F71222302
4FFA766651
06DFFFFD20
ENDCHAR
STARTCHAR Gcommaaccent
ENCODING 290
SWIDTH 808 0
DWIDTH 10 0
BBX 10 14 0 -5
BITMAP
0023444320
0642012230
4F122FFB10
8F12257221
9F12268002
9F123F8202
9F32032202
8FA1222302
4FFEB88BA2
06DF721930
001E702200
003FC62100
002EA21000
000EE80000
ENDCHAR
STARTCHAR gcommaaccent
ENCODING 291
SWIDTH 808 0
DWIDTH 10 0
BBX 10 14 0 -5
BITMAP
0023444320
0642012230
4F122FFB10
8F12257221
9F12268002
9F123F8202
9F32032202
8FA1222302
4FFEB88BA2
06DF721930
001E702200
003FC62100
002EA21000
000EE80000
ENDCHAR
STARTCHAR Hcircumflex
ENCODING 292
SWIDTH 859 0
DWIDTH 10 0
BBX 10 14 0 -1
BITMAP
0000122100
0003222110
00A6011020
04FCCFFB50
06523CE223
5F321BE022
7F32078022
7F32000022
7F32222222
7F32022022
7F321FE022
7F311DE012
7F966BF664
6FFB2AFF80
ENDCHAR
STARTCHAR hcircumflex
ENCODING 293
SWIDTH 859 0
DWIDTH 10 0
BBX 10 14 0 -1
BITMAP
0000122100
0003222110
00A6011020
04FCCFFB50
06523CE223
5F321BE022
7F32078022
7F32000022
7F32222222
7F32022022
7F321FE022
7F311DE012
7F966BF664
6FFB2AFF80
ENDCHAR
STARTCHAR Hbar
ENCODING 294
SWIDTH 879 0
DWIDTH 11 0
BBX 11 10 0 -1
BITMAP
035221632300
3D3204812110
8B0422224120
EF520EE12210
AF5200002200
5F5222223200
5F5202202200
5F510FF11200
5FA65BF86300
4FFC28FF9000
ENDCHAR
STARTCHAR hbar
ENCODING 295
SWIDTH 879 0
DWIDTH 11 0
BBX 11 10 0 -1
BITMAP
035221632300
3D3204812110
8B0422224120
EF520EE12210
AF5200002200
5F5222223200
5F5202202200
5F510FF11200
5FA65BF86300
4FFC28FF9000
ENDCHAR
STARTCHAR Itilde
ENCODING 296
SWIDTH 705 0
DWIDTH 8 0
BBX 9 13 0 -1
BITMAP
0022222200
0571221200
2F83311100
3F32222210
5F02222020
AF85115600
8EFA116100
00FA112000
00FA112000
0295112200
3E02222020
AF76666610
9FFFFFC200
ENDCHAR
STARTCHAR itilde
ENCODING 297
SWIDTH 705 0
DWIDTH 8 0
BBX 9 13 0 -1
BITMAP
0022222200
0571221200
2F83311100
3F32222210
5F02222020
AF85115600
8EFA116100
00FA112000
00FA112000
0295112200
3E02222020
AF76666610
9FFFFFC200
ENDCHAR
STARTCHAR Imacron
ENCODING 298
SWIDTH 705 0
DWIDTH 8 0
BBX 9 13 0 -1
BITMAP
0032222200
0771221200
2F80000000
3F88888810
5F02222020
AF85115500
8EFA116100
00FA112000
00FA112000
0295112200
3E02222020
AF76666610
9FFFFFC200
ENDCHAR
STARTCHAR imacron
ENCODING 299
SWIDTH 705 0
DWIDTH 8 0
BBX 9 13 0 -1
BITMAP
0032222200
0771221200
2F80000000
3F88888810
5F02222020
AF85115500
8EFA116100
00FA112000
00FA112000
0295112200
3E02222020
AF76666610
9FFFFFC200
ENDCHAR
STARTCHAR Ibreve
ENCODING 300
SWIDTH 705 0
DWIDTH 8 0
BBX 9 14 0 -1
BITMAP
0032132200
0861361200
3F81221100
3FE4001000
0D32222210
6F02222020
AF85115600
8EFA116100
00FA112000
00FA112000
0295112200
3E02222020
AF76666610
9FFFFFC200
ENDCHAR
STARTCHAR ibreve
ENCODING 301
SWIDTH 705 0
DWIDTH 8 0
BBX 9 14 0 -1
BITMAP
0032132200
0861361200
3F81221100
3FE4001000
0D32222210
6F02222020
AF85115600
8EFA116100
00FA112000
00FA112000
0295112200
3E02222020
AF76666610
9FFFFFC200
ENDCHAR
STARTCHAR Iogonek
ENCODING 302
SWIDTH 705 0
DWIDTH 8 0
BBX 9 13 0 -4
BITMAP
0622222210
7F02222020
AF85115500
8EFA116100
00FA112000
00FA112000
0295112200
3E02223020
AF76612610
9FFFF13600
0009F62210
0008FFF600
0000452000
ENDCHAR
STARTCHAR iogonek
ENCODING 303
SWIDTH 705 0
DWIDTH 8 0
BBX 9 13 0 -4
BITMAP
0622222210
7F02222020
AF85115500
8EFA116100
00FA112000
00FA112000
0295112200
3E02223020
AF76612610
9FFFF13600
0009F62210
0008FFF600
0000452000
ENDCHAR
STARTCHAR Idotaccent
ENCODING 304
SWIDTH 705 0
DWIDTH 8 0
BBX 9 14 0 -1
BITMAP
0002221000
0049002000
00EA012000
00FA000000
0632222210
6F02222020
AF85115600
8EFA116100
00FA112000
00FA112000
0295112200
3E02222020
AF76666610
9FFFFFC200
ENDCHAR
STARTCHAR dotlessi
ENCODING 305
SWIDTH 705 0
DWIDTH 8 0
BBX 9 10 0 -1
BITMAP
0622222210
7F02222020
AF85115600
8EFA116100
00FA112000
00FA112000
0295112200
3E02222020
AF76666610
9FFFFFC200
ENDCHAR
STARTCHAR IJ
ENCODING 306
SWIDTH 844 0
DWIDTH 10 0
BBX 10 10 0 -1
BITMAP
0442318222
4F321DC022
7F321FC022
7F311FC022
7F402FC022
7FFF7FC022
39A6384112
2D31222202
7F86666730
6FFFFFC400
ENDCHAR
STARTCHAR ij
ENCODING 307
SWIDTH 844 0
DWIDTH 10 0
BBX 10 10 0 -1
BITMAP
0442318222
4F321DC022
7F321FC022
7F311FC022
7F402FC022
7FFF7FC022
39A6384112
2D31222202
7F86666730
6FFFFFC400
ENDCHAR
STARTCHAR Jcircumflex
ENCODING 308
SWIDTH 788 0
DWIDTH 9 0
BBX 10 14 0 -1
BITMAP
0000002220
0000332224
0005D00001
000CE8CEB6
000BBE2021
00007F2220
00008F2220
02229F2220
4C008F2220
CD028F2220
CE02130220
BF51222020
6FFA768600
07DFFC6000
ENDCHAR
STARTCHAR jcircumflex
ENCODING 309
SWIDTH 788 0
DWIDTH 9 0
BBX 10 14 0 -1
BITMAP
0000002220
0000332224
0005D00001
000CE8CEB6
000BBE2021
00007F2220
00008F2220
02229F2220
4C008F2220
CD028F2220
CE02130220
BF51222020
6FFA768600
07DFFC6000
ENDCHAR
STARTCHAR Kcommaaccent
ENCODING 310
SWIDTH 846 0
DWIDTH 10 0
BBX 10 14 0 -5
BITMAP
0443356322
4F321E1210
7F32042021
7F33223202
7F32043022
7F321FE022
7F321DE022
7F301CE002
7F96678562
6FFF721B60
002F702200
003FC62200
002EA21000
001EE80000
ENDCHAR
STARTCHAR kcommaaccent
ENCODING 311
SWIDTH 846 0
DWIDTH 10 0
BBX 10 14 0 -5
BITMAP
0443356322
4F321E1210
7F32042021
7F33223202
7F32043022
7F321FE022
7F321DE022
7F301CE002
7F96678562
6FFF721B60
002F702200
003FC62200
002EA21000
001EE80000
ENDCHAR
STARTCHAR kgreenlandic
ENCODING 312
SWIDTH 846 0
DWIDTH 10 0
BBX 10 10 0 -1
BITMAP
0442316222
4F321D3211
7F321B1120
7F32022021
7F33223202
7F32076022
7F321FE022
7F311CE012
7F965CF663
6FFB1AFF70
ENDCHAR
STARTCHAR Lacute
ENCODING 313
SWIDTH 795 0
DWIDTH 10 0
BBX 10 13 0 -1
BITMAP
0078888300
1B41220200
7F42462100
6F40260000
5F32110000
7F32110000
7F32112221
7F32168002
7F321F9202
7F32042202
7F32222302
7F96666651
6FFFFFFD20
ENDCHAR
STARTCHAR lacute
ENCODING 314
SWIDTH 795 0
DWIDTH 10 0
BBX 10 13 0 -1
BITMAP
0078888300
1B41220200
7F42462100
6F40260000
5F32110000
7F32110000
7F32112221
7F32168002
7F321F9202
7F32042202
7F32222302
7F96666651
6FFFFFFD20
ENDCHAR
STARTCHAR Lcommaaccent
ENCODING 315
SWIDTH 795 0
DWIDTH 10 0
BBX 10 14 0 -5
BITMAP
0442300000
4F32110000
7F32110000
7F32112221
7F32168002
7F321F9202
7F32042202
7F32222302
7FDBA88BA2
6FFF621B20
003E502200
005FB52200
003E831000
002FE70000
ENDCHAR
STARTCHAR lcommaaccent
ENCODING 316
SWIDTH 795 0
DWIDTH 10 0
BBX 10 14 0 -5
BITMAP
0442300000
4F32110000
7F32110000
7F32112221
7F32168002
7F321F9202
7F32042202
7F32222302
7FDBA88BA2
6FFF621B20
003E502200
005FB52200
003E831000
002FE70000
ENDCHAR
STARTCHAR Lcaron
ENCODING 317
SWIDTH 795 0
DWIDTH 10 0
BBX 10 10 0 -1
BITMAP
0442336222
4F321F6220
7F321F6330
7F321FD821
7F321A9002
7F321F9202
7F32042202
7F32222302
7F96666651
6FFFFFFD20
ENDCHAR
STARTCHAR lcaron
ENCODING 318
SWIDTH 795 0
DWIDTH 10 0
BBX 10 10 0 -1
BITMAP
0442336222
4F321F6220
7F321F6330
7F321FD821
7F321A9002
7F321F9202
7F32042202
7F32222302
7F96666651
6FFFFFFD20
ENDCHAR
STARTCHAR Ldot
ENCODING 319
SWIDTH 795 0
DWIDTH 10 0
BBX 10 10 0 -1
BITMAP
0442300000
4F32113221
7F321C7102
7F321F9442
7F321FD851
7F321A9002
7F32032202
7F32222302
7F96666651
6FFFFFFD20
ENDCHAR
STARTCHAR ldot
ENCODING 320
SWIDTH 795 0
DWIDTH 10 0
BBX 10 10 0 -1
BITMAP
0442300000
4F32113221
7F321C7102
7F321F9442
7F321FD851
7F321A9002
7F32032202
7F32222302
7F96666651
6FFFFFFD20
ENDCHAR
STARTCHAR Lslash
ENCODING 321
SWIDTH 805 0
DWIDTH 10 0
BBX 11 10 -1 -1
BITMAP
004522100000
04F520200000
05E420210000
079132042210
0FA020AA0020
1FF520EB1120
0AF520321120
05F512222020
05FA66666510
04FFFFFFE300
ENDCHAR
STARTCHAR lslash
ENCODING 322
SWIDTH 805 0
DWIDTH 10 0
BBX 11 10 -1 -1
BITMAP
004522100000
04F520200000
05E420210000
079132042210
0FA020AA0020
1FF520EB1120
0AF520321120
05F512222020
05FA66666510
04FFFFFFE300
ENDCHAR
STARTCHAR Nacute
ENCODING 323
SWIDTH 853 0
DWIDTH 10 0
BBX 10 13 0 -1
BITMAP
0003555540
0068122120
02F8235600
06526BE222
5F3316E022
7F32116022
7F32021022
7F32132022
7F322D1222
7F322FB022
7F312FE012
7F965BF663
6FFA1AFF70
ENDCHAR
STARTCHAR nacute
ENCODING 324
SWIDTH 853 0
DWIDTH 10 0
BBX 10 13 0 -1
BITMAP
0003555540
0068122120
02F8235600
06526BE222
5F3316E022
7F32116022
7F32021022
7F32132022
7F322D1222
7F322FB022
7F312FE012
7F965BF663
6FFA1AFF70
ENDCHAR
STARTCHAR Ncommaaccent
ENCODING 325
SWIDTH 853 0
DWIDTH 10 0
BBX 10 14 0 -5
BITMAP
044447B232
4F3223C022
7F32021022
7F32012022
7F32281222
7F322F6122
7F322FE022
7F302DE002
7F96578563
6FFF821B70
002F802200
003FC62200
001EA21000
000EE80000
ENDCHAR
STARTCHAR ncommaaccent
ENCODING 326
SWIDTH 853 0
DWIDTH 10 0
BBX 10 14 0 -5
BITMAP
044447B232
4F3223C022
7F32021022
7F32012022
7F32281222
7F322F6122
7F322FE022
7F302DE002
7F96578563
6FFF821B70
002F802200
003FC62200
001EA21000
000EE80000
ENDCHAR
STARTCHAR Ncaron
ENCODING 327
SWIDTH 853 0
DWIDTH 10 0
BBX 10 14 0 -1
BITMAP
0001000110
0064222120
05F4122010
06FD713200
06526BB222
5F3316E022
7F32116022
7F32021022
7F32132022
7F322D1222
7F322FB022
7F312FE012
7F965BF663
6FFA1AFF70
ENDCHAR
STARTCHAR ncaron
ENCODING 328
SWIDTH 853 0
DWIDTH 10 0
BBX 10 14 0 -1
BITMAP
0001000110
0064222120
05F4122010
06FD713200
06526BB222
5F3316E022
7F32116022
7F32021022
7F32132022
7F322D1222
7F322FB022
7F312FE012
7F965BF663
6FFA1AFF70
ENDCHAR
STARTCHAR napostrophe
ENCODING 329
SWIDTH 853 0
DWIDTH 10 0
BBX 10 15 0 -1
BITMAP
0122200000
1C12300000
9F10300000
9F63100000
6F30000000
6F86628665
6F3318E022
7F32117022
7F32021022
7F32132022
7F322D1222
7F322FB022
7F312FE012
7F965BF663
6FFA1AFF70
ENDCHAR
STARTCHAR Eng
ENCODING 330
SWIDTH 846 0
DWIDTH 10 0
BBX 10 12 0 -3
BITMAP
0012444320
0452000112
3F221EB022
7F222EC022
8F222DC022
8F222DC022
8F222DC022
8F212A3022
8F868A0203
7FFAFC5640
0000FFD500
0000110000
ENDCHAR
STARTCHAR eng
ENCODING 331
SWIDTH 846 0
DWIDTH 10 0
BBX 10 12 0 -3
BITMAP
0012444320
0452000112
3F221EB022
7F222EC022
8F222DC022
8F222DC022
8F222DC022
8F212A3022
8F868A0203
7FFAFC5640
0000FFD500
0000110000
ENDCHAR
STARTCHAR Omacron
ENCODING 332
SWIDTH 837 0
DWIDTH 10 0
BBX 10 13 0 -1
BITMAP
0013222210
02D4122020
06F5000020
04FA877830
1E62000112
7F222EB022
9F122EC022
9F122DC022
9F122DC022
9F22053112
8F70222202
3FFB867840
05CEFEB300
ENDCHAR
STARTCHAR omacron
ENCODING 333
SWIDTH 837 0
DWIDTH 10 0
BBX 10 13 0 -1
BITMAP
0013222210
02D4122020
06F5000020
04FA877830
1E62000112
7F222EB022
9F122EC022
9F122DC022
9F122DC022
9F22053112
8F70222202
3FFB867840
05CEFEB300
ENDCHAR
STARTCHAR Obreve
ENCODING 334
SWIDTH 837 0
DWIDTH 10 0
BBX 10 14 0 -1
BITMAP
0013213210
01C3154120
07F4222120
05FC301410
01D9766520
1C62000112
7F222EB022
9F122EC022
9F122DC022
9F122DC022
9F22053112
8F70222202
3FFB867840
05CEFEB300
ENDCHAR
STARTCHAR obreve
ENCODING 335
SWIDTH 837 0
DWIDTH 10 0
BBX 10 14 0 -1
BITMAP
0013213210
01C3154120
07F4222120
05FC301410
01D9766520
1C62000112
7F222EB022
9F122EC022
9F122DC022
9F122DC022
9F22053112
8F70222202
3FFB867840
05CEFEB300
ENDCHAR
STARTCHAR Ohungarumlaut
ENCODING 336
SWIDTH 837 0
DWIDTH 10 0
BBX 10 15 0 -1
BITMAP
0002221220
004A02A011
00E826A220
03F5197120
06F30C5020
04FA877830
1E62000112
7F222EB022
9F122EC022
9F122DC022
9F122DC022
9F22053112
8F70222202
3FFB867840
05CEFEB300
ENDCHAR
STARTCHAR ohungarumlaut
ENCODING 337
SWIDTH 837 0
DWIDTH 10 0
BBX 10 15 0 -1
BITMAP
0002221220
004A02A011
00E826A220
03F5197120
06F30C5020
04FA877830
1E62000112
7F222EB022
9F122EC022
9F122DC022
9F122DC022
9F22053112
8F70222202
3FFB867840
05CEFEB300
ENDCHAR
STARTCHAR OE
ENCODING 338
SWIDTH 1115 0
DWIDTH 13 0
BBX 14 10 0 -1
BITMAP
00211222222221
06412222222111
4F122EA018EE60
8F123FA0100120
9F123FA0321020
9F123FA0147500
9F221860158320
8F712222222101
4FF97666666661
06DFFFFFFFFB10
ENDCHAR
STARTCHAR oe
ENCODING 339
SWIDTH 1115 0
DWIDTH 13 0
BBX 14 10 0 -1
BITMAP
00211222222221
06412222222111
4F122EA018EE60
8F123FA0100120
9F123FA0321020
9F123FA0147500
9F221860158320
8F712222222101
4FF97666666661
06DFFFFFFFFB10
ENDCHAR
STARTCHAR Racute
ENCODING 340
SWIDTH 843 0
DWIDTH 10 0
BBX 10 13 0 -1
BITMAP
0006777730
01B3122020
07F4246300
0740000130
4F32222111
7F321F4202
7F32182230
7F32222302
7F32021022
7F321FF122
7F311CF112
7F9659F764
6FFB18FF90
ENDCHAR
STARTCHAR racute
ENCODING 341
SWIDTH 843 0
DWIDTH 10 0
BBX 10 13 0 -1
BITMAP
0006777730
01B3122020
07F4246300
0740000130
4F32222111
7F321F4202
7F32182230
7F32222302
7F32021022
7F321FF122
7F311CF112
7F9659F764
6FFB18FF90
ENDCHAR
STARTCHAR Rcommaaccent
ENCODING 342
SWIDTH 843 0
DWIDTH 10 0
BBX 10 14 0 -5
BITMAP
0444444320
4F32000211
7F321F4202
7F32182230
7F32222302
7F32021022
7F321FF122
7F311CF112
7F96868664
6FFF911A90
001F902200
002FD62200
001EB22000
000DE90000
ENDCHAR
STARTCHAR rcommaaccent
ENCODING 343
SWIDTH 843 0
DWIDTH 10 0
BBX 10 14 0 -5
BITMAP
0444444320
4F32000211
7F321F4202
7F32182230
7F32222302
7F32021022
7F321FF122
7F311CF112
7F96868664
6FFF911A90
001F902200
002FD62200
001EB22000
000DE90000
ENDCHAR
STARTCHAR Rcaron
ENCODING 344
SWIDTH 843 0
DWIDTH 10 0
BBX 10 14 0 -1
BITMAP
0006200110
0095332120
05F5122020
05FE713610
0486666320
3D32222121
7F321F4202
7F32182230
7F32222302
7F32021022
7F321FF122
7F311CF112
7F9659F764
6FFB18FF90
ENDCHAR
STARTCHAR rcaron
ENCODING 345
SWIDTH 843 0
DWIDTH 10 0
BBX 10 14 0 -1
BITMAP
0006200110
0095332120
05F5122020
05FE713610
0486666320
3D32222121
7F321F4202
7F32182230
7F32222302
7F32021022
7F321FF122
7F311CF112
7F9659F764
6FFB18FF90
ENDCHAR
STARTCHAR Sacute
ENCODING 346
SWIDTH 750 0
DWIDTH 9 0
BBX 9 13 0 -1
BITMAP
0015555600
02B0222100
0BE1356200
0CC4222220
0821222020
5F022CFA10
AF02000220
AF71112020
7FFEB90220
0A21110210
6F02222010
AF76667400
9FFFFD6000
ENDCHAR
STARTCHAR sacute
ENCODING 347
SWIDTH 750 0
DWIDTH 9 0
BBX 9 13 0 -1
BITMAP
0015555600
02B0222100
0BE1356200
0CC4222220
0821222020
5F022CFA10
AF02000220
AF71112020
7FFEB90220
0A21110210
6F02222010
AF76667400
9FFFFD6000
ENDCHAR
STARTCHAR Scircumflex
ENCODING 348
SWIDTH 750 0
DWIDTH 9 0
BBX 9 14 0 -1
BITMAP
0000221000
0032222300
04B0001200
0DD6AC8500
0EC4222220
0921222020
5F022CFA10
AF02000220
AF71112020
7FFEB90220
0A21110210
6F02222010
AF76667400
9FFFFD6000
ENDCHAR
STARTCHAR scircumflex
ENCODING 349
SWIDTH 750 0
DWIDTH 9 0
BBX 9 14 0 -1
BITMAP
0000221000
0032222300
04B0001200
0DD6AC8500
0EC4222220
0921222020
5F022CFA10
AF02000220
AF71112020
7FFEB90220
0A21110210
6F02222010
AF76667400
9FFFFD6000
ENDCHAR
STARTCHAR Scedilla
ENCODING 350
SWIDTH 750 0
DWIDTH 9 0
BBX 9 12 0 -3
BITMAP
0022222220
0921222020
7F022CFA10
AF02000220
AF71112020
7FFEC90220
0A21110210
6F02232000
AF75024100
9FFA223000
00EFE40000
0055200000
ENDCHAR
STARTCHAR scedilla
ENCODING 351
SWIDTH 750 0
DWIDTH 9 0
BBX 9 12 0 -3
BITMAP
0022222220
0921222020
7F022CFA10
AF02000220
AF71112020
7FFEC90220
0A21110210
6F02232000
AF75024100
9FFA223000
00EFE40000
0055200000
ENDCHAR
STARTCHAR Scaron
ENCODING 352
SWIDTH 750 0
DWIDTH 9 0
BBX 9 14 0 -1
BITMAP
0025000100
03C1422200
0BD0221100
0CFB415100
06B4222220
0721222020
6F022CFA10
AF02000220
AF71112020
7FFEB90220
0A21110210
6F02222010
AF76667400
9FFFFD6000
ENDCHAR
STARTCHAR scaron
ENCODING 353
SWIDTH 750 0
DWIDTH 9 0
BBX 9 14 0 -1
BITMAP
0025000100
03C1422200
0BD0221100
0CFB415100
06B4222220
0721222020
6F022CFA10
AF02000220
AF71112020
7FFEB90220
0A21110210
6F02222010
AF76667400
9FFFFD6000
ENDCHAR
STARTCHAR Tcommaaccent
ENCODING 354
SWIDTH 756 0
DWIDTH 9 0
BBX 9 14 0 -5
BITMAP
1724454330
DC22021230
EFFE024E50
45CE023200
00BE022000
00BE022000
00BE022000
00BE002000
00BF885000
00AE122000
009E012000
00BF841000
009F321000
008FB20000
ENDCHAR
STARTCHAR tcommaaccent
ENCODING 355
SWIDTH 756 0
DWIDTH 9 0
BBX 9 14 0 -5
BITMAP
1724454330
DC22021230
EFFE024E50
45CE023200
00BE022000
00BE022000
00BE022000
00BE002000
00BF885000
00AE122000
009E012000
00BF841000
009F321000
008FB20000
ENDCHAR
STARTCHAR Tcaron
ENCODING 356
SWIDTH 756 0
DWIDTH 9 0
BBX 9 14 0 -1
BITMAP
0035000100
03B2422200
0DC0221100
0DFA415100
1922222230
CC24232330
EFFE024E50
45CE023200
00BE022000
00BE022000
00BE022000
00BE012000
00BF663000
00AFF80000
ENDCHAR
STARTCHAR tcaron
ENCODING 357
SWIDTH 756 0
DWIDTH 9 0
BBX 9 14 0 -1
BITMAP
0035000100
03B2422200
0DC0221100
0DFA415100
1922222230
CC24232330
EFFE024E50
45CE023200
00BE022000
00BE022000
00BE022000
00BE012000
00BF663000
00AFF80000
ENDCHAR
STARTCHAR Tbar
ENCODING 358
SWIDTH 756 0
DWIDTH 9 0
BBX 9 10 0 -1
BITMAP
1722222230
DB02232210
EFED024E70
67B8022510
0881242020
2FB4021410
1FFE024400
03CE012000
00BF663000
00AFF80000
ENDCHAR
STARTCHAR tbar
ENCODING 359
SWIDTH 756 0
DWIDTH 9 0
BBX 9 10 0 -1
BITMAP
1722222230
DB02232210
EFED024E70
67B8022510
0881242020
2FB4021410
1FFE024400
03CE012000
00BF663000
00AFF80000
ENDCHAR
STARTCHAR Utilde
ENCODING 360
SWIDTH 846 0
DWIDTH 10 0
BBX 10 14 0 -1
BITMAP
0002211110
0045123020
02E5001020
05F7541100
07424FE223
5F222BD022
8F222CD022
8F222CD022
8F222CD022
8F222CD022
8F32043112
7F80222202
3FFC877840
05CEFEB300
ENDCHAR
STARTCHAR utilde
ENCODING 361
SWIDTH 846 0
DWIDTH 10 0
BBX 10 14 0 -1
BITMAP
0002211110
0045123020
02E5001020
05F7541100
07424FE223
5F222BD022
8F222CD022
8F222CD022
8F222CD022
8F222CD022
8F32043112
7F80222202
3FFC877840
05CEFEB300
ENDCHAR
STARTCHAR Umacron
ENCODING 362
SWIDTH 846 0
DWIDTH 10 0
BBX 10 13 0 -1
BITMAP
0003222210
0095122120
04F6000000
05989FE886
3D212CD012
8F222CD022
8F222CD022
8F222CD022
8F222CD022
8F32054122
7F80222201
4FFB877840
05CEFEB300
ENDCHAR
STARTCHAR umacron
ENCODING 363
SWIDTH 846 0
DWIDTH 10 0
BBX 10 13 0 -1
BITMAP
0003222210
0095122120
04F6000000
05989FE886
3D212CD012
8F222CD022
8F222CD022
8F222CD022
8F222CD022
8F32054122
7F80222201
4FFB877840
05CEFEB300
ENDCHAR
STARTCHAR Ubreve
ENCODING 364
SWIDTH 846 0
DWIDTH 10 0
BBX 10 14 0 -1
BITMAP
0003213210
00A4145120
06F5222110
06FD301100
05424FE223
5F212BD012
8F222CD022
8F222CD022
8F222CD022
8F222CD022
8F32054122
7F80222202
3FFC877840
05CEFEB300
ENDCHAR
STARTCHAR ubreve
ENCODING 365
SWIDTH 846 0
DWIDTH 10 0
BBX 10 14 0 -1
BITMAP
0003213210
00A4145120
06F5222110
06FD301100
05424FE223
5F212BD012
8F222CD022
8F222CD022
8F222CD022
8F222CD022
8F32054122
7F80222202
3FFC877840
05CEFEB300
ENDCHAR
STARTCHAR Uring
ENCODING 366
SWIDTH 846 0
DWIDTH 10 0
BBX 10 16 0 -1
BITMAP
0000222200
0015132120
01C42C8220
05F4232220
06F5122110
06FC301100
06424FE223
5F212AD012
8F222CD022
8F222CD022
8F222CD022
8F222CD022
8F321CB112
7F80222202
3FFC877840
05CEFEB300
ENDCHAR
STARTCHAR uring
ENCODING 367
SWIDTH 846 0
DWIDTH 10 0
BBX 10 16 0 -1
BITMAP
0000222200
0015132120
01C42C8220
05F4232220
06F5122110
06FC301100
06424FE223
5F212AD012
8F222CD022
8F222CD022
8F222CD022
8F222CD022
8F321CB112
7F80222202
3FFC877840
05CEFEB300
ENDCHAR
STARTCHAR Uhungarumlaut
ENCODING 368
SWIDTH 846 0
DWIDTH 10 0
BBX 10 15 0 -1
BITMAP
0001221221
001A01B001
00AA24B210
00E7179110
02F50A7000
05989FE886
3D212BD012
8F222CD022
8F222CD022
8F222CD022
8F222CD022
8F32054122
7F80222201
4FFB877840
05CEFEB300
ENDCHAR
STARTCHAR uhungarumlaut
ENCODING 369
SWIDTH 846 0
DWIDTH 10 0
BBX 10 15 0 -1
BITMAP
0001221221
001A01B001
00AA24B210
00E7179110
02F50A7000
05989FE886
3D212BD012
8F222CD022
8F222CD022
8F222CD022
8F222CD022
8F32054122
7F80222201
4FFB877840
05CEFEB300
ENDCHAR
STARTCHAR Uogonek
ENCODING 370
SWIDTH 846 0
DWIDTH 10 0
BBX 10 13 0 -4
BITMAP
0532307222
5F222AD022
8F222CD022
8F222CD022
8F222CD022
8F222CD022
8F32043122
7F70223202
3FFA521750
06EFA22400
000ED32300
000EFFC200
0002441000
ENDCHAR
STARTCHAR uogonek
ENCODING 371
SWIDTH 846 0
DWIDTH 10 0
BBX 10 13 0 -4
BITMAP
0532307222
5F222AD022
8F222CD022
8F222CD022
8F222CD022
8F222CD022
8F32043122
7F70223202
3FFA521750
06EFA22400
000ED32300
000EFFC200
0002441000
ENDCHAR
STARTCHAR Wcircumflex
ENCODING 372
SWIDTH 931 0
DWIDTH 11 0
BBX 11 14 0 -1
BITMAP
000002210000
000322222000
004C00102000
00CEAEFD9000
074259DF2230
7F12209F0220
8F12227E0220
8F1234080220
8F1221220220
8F2202020220
8F5211920220
6FA124E03010
2FF76AF96400
0AFE67FF8000
ENDCHAR
STARTCHAR wcircumflex
ENCODING 373
SWIDTH 931 0
DWIDTH 11 0
BBX 11 14 0 -1
BITMAP
000002210000
000322222000
004C00102000
00CEAEFD9000
074259DF2230
7F12209F0220
8F12227E0220
8F1234080220
8F1221220220
8F2202020220
8F5211920220
6FA124E03010
2FF76AF96400
0AFE67FF8000
ENDCHAR
STARTCHAR Ycircumflex
ENCODING 374
SWIDTH 805 0
DWIDTH 10 0
BBX 10 14 0 -1
BITMAP
0000222000
0023222210
02D1000020
08F8BEC820
0A227EB222
8E022DA102
BE022F9102
BF120C3202
BF80201120
5FF5131110
09FE120200
00CF310200
007F965100
006FFC2000
ENDCHAR
STARTCHAR ycircumflex
ENCODING 375
SWIDTH 805 0
DWIDTH 10 0
BBX 10 14 0 -1
BITMAP
0000222000
0023222210
02D1000020
08F8BEC820
0A227EB222
8E022DA102
BE022F9102
BF120C3202
BF80201120
5FF5131110
09FE120200
00CF310200
007F965100
006FFC2000
ENDCHAR
STARTCHAR Ydieresis
ENCODING 376
SWIDTH 805 0
DWIDTH 10 0
BBX 10 13 0 -1
BITMAP
0022242210
05C01A0120
0DC00B0000
0D88BFD874
8E014DA102
BE022FA102
BE021E4201
BF71211110
5FF4131110
09FE120200
00CF310200
007F965100
006FFC2000
ENDCHAR
STARTCHAR Zacute
ENCODING 377
SWIDTH 760 0
DWIDTH 9 0
BBX 9 13 0 -1
BITMAP
0015555610
02B0222010
0AE1346200
0C42222220
6F43422120
8FFFA01120
255B111110
0082021200
0550202000
3E02022220
AE02222120
BF66666650
AFFFFFF900
ENDCHAR
STARTCHAR zacute
ENCODING 378
SWIDTH 760 0
DWIDTH 9 0
BBX 9 13 0 -1
BITMAP
0015555610
02B0222010
0AE1346200
0C42222220
6F43422120
8FFFA01120
255B111110
0082021200
0550202000
3E02022220
AE02222120
BF66666650
AFFFFFF900
ENDCHAR
STARTCHAR Zdotaccent
ENCODING 379
SWIDTH 760 0
DWIDTH 9 0
BBX 9 14 0 -1
BITMAP
0001222000
001C002000
009F012000
00BF100000
0642222220
6F43422120
8FFFA01120
255B111110
0082021200
0550202000
3E02022220
AE02222120
BF66666650
AFFFFFF900
ENDCHAR
STARTCHAR zdotaccent
ENCODING 380
SWIDTH 760 0
DWIDTH 9 0
BBX 9 14 0 -1
BITMAP
0001222000
001C002000
009F012000
00BF100000
0642222220
6F43422120
8FFFA01120
255B111110
0082021200
0550202000
3E02022220
AE02222120
BF66666650
AFFFFFF900
ENDCHAR
STARTCHAR Zcaron
ENCODING 381
SWIDTH 760 0
DWIDTH 9 0
BBX 9 14 0 -1
BITMAP
0035000100
03B1422300
0CC0221200
0DFB415100
0942222220
5F43422120
8FFFA01120
255B111110
0082021200
0550202000
3E02022220
AE02222120
BF66666650
AFFFFFF900
ENDCHAR
STARTCHAR zcaron
ENCODING 382
SWIDTH 760 0
DWIDTH 9 0
BBX 9 14 0 -1
BITMAP
0035000100
03B1422300
0CC0221200
0DFB415100
0942222220
5F43422120
8FFFA01120
255B111110
0082021200
0550202000
3E02022220
AE02222120
BF66666650
AFFFFFF900
ENDCHAR
STARTCHAR Schwa
ENCODING 399
SWIDTH 815 0
DWIDTH 10 0
BBX 10 10 0 -1
BITMAP
0072444420
09E0000302
0BFEEE9112
0A22221112
6F02222312
AF023EA112
AF12011102
AF71221112
6FFB877830
08DFFEA200
ENDCHAR
STARTCHAR florin
ENCODING 402
SWIDTH 674 0
DWIDTH 8 0
BBX 8 10 0 -1
BITMAP
00012223
00290212
00D72044
06942062
8E024212
BFE520CA
6D002070
8E021310
BF667300
AFEA1000
ENDCHAR
STARTCHAR Ohorn
ENCODING 416
SWIDTH 847 0
DWIDTH 10 0
BBX 11 12 0 -1
BITMAP
000000002210
000000071020
001222352310
054100012200
4F122EB02200
8F122EC02200
9F122DC02200
9F122DC02200
9F2205311200
9F7022211100
6FFB87782000
07DFFEA20000
ENDCHAR
STARTCHAR ohorn
ENCODING 417
SWIDTH 847 0
DWIDTH 10 0
BBX 11 12 0 -1
BITMAP
000000002210
000000071020
001222352310
054100012200
4F122EB02200
8F122EC02200
9F122DC02200
9F122DC02200
9F2205311200
9F7022211100
6FFB87782000
07DFFEA20000
ENDCHAR
STARTCHAR Uhorn
ENCODING 431
SWIDTH 856 0
DWIDTH 10 0
BBX 11 12 0 -1
BITMAP
000000003210
0000001A3020
054231A21220
5F222AD03200
8F222CD02200
8F222CD02200
8F222CD02200
8F222CD02200
8F3204311200
7F8022220200
4FFC87784000
06CEFEB30000
ENDCHAR
STARTCHAR uhorn
ENCODING 432
SWIDTH 856 0
DWIDTH 10 0
BBX 11 12 0 -1
BITMAP
000000003210
0000001A3020
054231A21220
5F222AD03200
8F222CD02200
8F222CD02200
8F222CD02200
8F222CD02200
8F3204311200
7F8022220200
4FFC87784000
06CEFEB30000
ENDCHAR
STARTCHAR Acaron
ENCODING 461
SWIDTH 830 0
DWIDTH 10 0
BBX 10 14 0 -1
BITMAP
0006100110
00A4322120
06F4122020
06FD714300
02C9222210
00B2122020
05C01B3120
0B611F7102
2F21010012
7F03222222
9F02121022
AF025FC022
AF767EE663
9FF91CFF60
ENDCHAR
STARTCHAR acaron
ENCODING 462
SWIDTH 830 0
DWIDTH 10 0
BBX 10 14 0 -1
BITMAP
0006100110
00A4322120
06F4122020
06FD714300
02C9222210
00B2122020
05C01B3120
0B611F7102
2F21010012
7F03222222
9F02121022
AF025FC022
AF767EE663
9FF91CFF60
ENDCHAR
STARTCHAR Icaron
ENCODING 463
SWIDTH 705 0
DWIDTH 8 0
BBX 9 14 0 -1
BITMAP
0053000100
0783322200
2F81221100
3FE8225000
1C32222210
6F02222020
AF85115600
8EFA116100
00FA112000
00FA112000
0295112200
3E02222020
AF76666610
9FFFFFC200
ENDCHAR
STARTCHAR icaron
ENCODING 464
SWIDTH 705 0
DWIDTH 8 0
BBX 9 14 0 -1
BITMAP
0053000100
0783322200
2F81221100
3FE8225000
1C32222210
6F02222020
AF85115600
8EFA116100
00FA112000
00FA112000
0295112200
3E02222020
AF76666610
9FFFFFC200
ENDCHAR
STARTCHAR Ocaron
ENCODING 465
SWIDTH 837 0
DWIDTH 10 0
BBX 10 14 0 -1
BITMAP
0006200110
01B5322120
06F4122020
05FD713500
00A5322210
1C42000112
7F122EB022
9F122EC022
9F122DC022
9F122DC022
9F22053112
8F70222212
3FFB877840
05CEFEB300
ENDCHAR
STARTCHAR ocaron
ENCODING 466
SWIDTH 837 0
DWIDTH 10 0
BBX 10 14 0 -1
BITMAP
0006200110
01B5322120
06F4122020
05FD713500
00A5322210
1C42000112
7F122EB022
9F122EC022
9F122DC022
9F122DC022
9F22053112
8F70222212
3FFB877840
05CEFEB300
ENDCHAR
STARTCHAR Ucaron
ENCODING 467
SWIDTH 846 0
DWIDTH 10 0
BBX 10 14 0 -1
BITMAP
0001000010
0055222220
04F5122020
05FE713400
06424CD223
5F222AD022
8F222CD022
8F222CD022
8F222CD022
8F222CD022
8F32043112
7F80222202
3FFC877840
05CEFEB300
ENDCHAR
STARTCHAR ucaron
ENCODING 468
SWIDTH 846 0
DWIDTH 10 0
BBX 10 14 0 -1
BITMAP
0001000010
0055222220
04F5122020
05FE713400
06424CD223
5F222AD022
8F222CD022
8F222CD022
8F222CD022
8F222CD022
8F32043112
7F80222202
3FFC877840
05CEFEB300
ENDCHAR
STARTCHAR Udieresismacron
ENCODING 469
SWIDTH 846 0
DWIDTH 10 0
BBX 10 16 0 -1
BITMAP
0003222210
0094122020
05F9697630
06F1072020
06F1172120
09F2083000
0A989FE886
6F212CD012
8F222CD022
8F222CD022
8F222CD022
8F222CD022
8F32054122
7F80222201
3FFB877840
05CEFEB300
ENDCHAR
STARTCHAR udieresismacron
ENCODING 470
SWIDTH 846 0
DWIDTH 10 0
BBX 10 16 0 -1
BITMAP
0003222210
0094122020
05F9697630
06F1072020
06F1172120
09F2083000
0A989FE886
6F212CD012
8F222CD022
8F222CD022
8F222CD022
8F222CD022
8F32054122
7F80222201
3FFB877840
05CEFEB300
ENDCHAR
STARTCHAR Udieresisacute
ENCODING 471
SWIDTH 846 0
DWIDTH 10 0
BBX 10 17 0 -1
BITMAP
0000015300
00007FE700
0008F20000
0017825320
02D1052020
09F1172120
09F2083000
3E989FE886
8F212CD012
8F222CD022
8F222CD022
8F222CD022
8F222CD022
8F32054122
7F80222201
3FFB877840
04BEFEB300
ENDCHAR
STARTCHAR udieresisacute
ENCODING 472
SWIDTH 846 0
DWIDTH 10 0
BBX 10 17 0 -1
BITMAP
0000015300
00007FE700
0008F20000
0017825320
02D1052020
09F1172120
09F2083000
3E989FE886
8F212CD012
8F222CD022
8F222CD022
8F222CD022
8F222CD022
8F32054122
7F80222201
3FFB877840
04BEFEB300
ENDCHAR
STARTCHAR Udieresiscaron
ENCODING 473
SWIDTH 846 0
DWIDTH 10 0
BBX 10 17 0 -1
BITMAP
0007200010
00A5322120
05F8222220
05FA898520
01D1072020
07F1172120
09F2083000
0C989FE886
7F212CD012
8F222CD022
8F222CD022
8F222CD022
8F222CD022
8F32054122
7F80222201
3FFB877840
05CEFEB300
ENDCHAR
STARTCHAR udieresiscaron
ENCODING 474
SWIDTH 846 0
DWIDTH 10 0
BBX 10 17 0 -1
BITMAP
0007200010
00A5322120
05F8222220
05FA898520
01D1072020
07F1172120
09F2083000
0C989FE886
7F212CD012
8F222CD022
8F222CD022
8F222CD022
8F222CD022
8F32054122
7F80222201
3FFB877840
05CEFEB300
ENDCHAR
STARTCHAR Udieresisgrave
ENCODING 475
SWIDTH 846 0
DWIDTH 10 0
BBX 10 17 0 -1
BITMAP
0000441000
0008EFF100
003F703100
004A225220
02D1070020
09F1172120
09F2083000
3E989FE886
8F212CD012
8F222CD022
8F222CD022
8F222CD022
8F222CD022
8F32054122
7F80222201
3FFB877840
04BEFEB300
ENDCHAR
STARTCHAR udieresisgrave
ENCODING 476
SWIDTH 846 0
DWIDTH 10 0
BBX 10 17 0 -1
BITMAP
0000441000
0008EFF100
003F703100
004A225220
02D1070020
09F1172120
09F2083000
3E989FE886
8F212CD012
8F222CD022
8F222CD022
8F222CD022
8F222CD022
8F32054122
7F80222201
3FFB877840
04BEFEB300
ENDCHAR
STARTCHAR Gcaron
ENCODING 486
SWIDTH 808 0
DWIDTH 10 0
BBX 10 14 0 -1
BITMAP
0016100100
01C3422120
08F2122020
08FD614300
03B6322220
0431234330
3F122FFB10
8F12257221
9F12268002
9F123F8202
9F22032202
8F71222302
4FFA766651
06DFFFFD20
ENDCHAR
STARTCHAR gcaron
ENCODING 487
SWIDTH 808 0
DWIDTH 10 0
BBX 10 14 0 -1
BITMAP
0016100100
01C3422120
08F2122020
08FD614300
03B6322220
0431234330
3F122FFB10
8F12257221
9F12268002
9F123F8202
9F22032202
8F71222302
4FFA766651
06DFFFFD20
ENDCHAR
STARTCHAR Scommaaccent
ENCODING 536
SWIDTH 750 0
DWIDTH 9 0
BBX 9 14 0 -5
BITMAP
0023444220
0922011120
7F022BD900
AF02210120
AF81012120
6FFFDA0220
0A10000220
7F02222120
AFCB889400
9FFF122000
007F003000
00AF842000
008F421000
007FC20000
ENDCHAR
STARTCHAR scommaaccent
ENCODING 537
SWIDTH 750 0
DWIDTH 9 0
BBX 9 14 0 -5
BITMAP
0023444220
0922011120
7F022BD900
AF02210120
AF81012120
6FFFDA0220
0A10000220
7F02222120
AFCB889400
9FFF122000
007F003000
00AF842000
008F421000
007FC20000
ENDCHAR
STARTCHAR uni021A
ENCODING 538
SWIDTH 756 0
DWIDTH 9 0
BBX 9 14 0 -5
BITMAP
1724454330
DC22021230
EFFE024E50
45CE023200
00BE022000
00BE022000
00BE022000
00BE002000
00BF885000
00AE122000
009E012000
00BF841000
009F321000
008FB20000
ENDCHAR
STARTCHAR uni021B
ENCODING 539
SWIDTH 756 0
DWIDTH 9 0
BBX 9 14 0 -5
BITMAP
1724454330
DC22021230
EFFE024E50
45CE023200
00BE022000
00BE022000
00BE022000
00BE002000
00BF885000
00AE122000
009E012000
00BF841000
009F321000
008FB20000
ENDCHAR
STARTCHAR dotlessj
ENCODING 567
SWIDTH 788 0
DWIDTH 9 0
BBX 9 10 0 -1
BITMAP
0000063230
00007F2220
00008F2220
02229F2220
4C008F2220
CD028F2220
CE02130220
BF51222020
6FFA768610
07DFFC6000
ENDCHAR
STARTCHAR ascript
ENCODING 593
SWIDTH 846 0
DWIDTH 10 0
BBX 10 10 0 -1
BITMAP
0012444320
0542000112
4F122EA022
8F123FC022
9F122DC022
9F122DC022
9F22032022
9F70222212
6FFA766663
08DFFFFF60
ENDCHAR
STARTCHAR schwa
ENCODING 601
SWIDTH 815 0
DWIDTH 10 0
BBX 10 10 0 -1
BITMAP
0072444420
09E0000302
0BFEEE9112
0A22221112
6F02222312
AF023EA112
AF12011102
AF71221112
6FFB877830
08DFFEA200
ENDCHAR
STARTCHAR gscript
ENCODING 609
SWIDTH 815 0
DWIDTH 10 0
BBX 10 12 0 -3
BITMAP
0012222220
0631222202
5F022A6202
AF024FA112
AF22000112
9FC4222212
4FFFFF9112
03C1000102
06E0222202
0BF2222320
0BFFFFE600
0244441000
ENDCHAR
STARTCHAR commaturnedmod
ENCODING 699
SWIDTH 600 0
DWIDTH 7 0
BBX 5 6 1 3
BITMAP
014430
2D2450
9F1220
AF2230
AFFD20
255100
ENDCHAR
STARTCHAR apostrophemod
ENCODING 700
SWIDTH 600 0
DWIDTH 7 0
BBX 5 6 1 4
BITMAP
012220
2C1220
AF0030
AF8420
8F4220
7FC200
ENDCHAR
STARTCHAR ringhalfright
ENCODING 702
SWIDTH 412 0
DWIDTH 5 0
BBX 5 6 0 3
BITMAP
072420
AC0220
DFE220
6C5430
DFF800
453000
ENDCHAR
STARTCHAR ringhalfleft
ENCODING 703
SWIDTH 412 0
DWIDTH 5 0
BBX 5 6 0 3
BITMAP
033430
6C2450
DC2220
DE4430
CFFD30
145100
ENDCHAR
STARTCHAR circumflex
ENCODING 710
SWIDTH 600 0
DWIDTH 7 0
BBX 7 5 0 7
BITMAP
00122200
05222230
8D046320
CFEFFF70
65126500
ENDCHAR
STARTCHAR caron
ENCODING 711
SWIDTH 600 0
DWIDTH 7 0
BBX 7 6 0 7
BITMAP
00000010
07012230
9D022120
CFB41640
8FFFE600
01650000
ENDCHAR
STARTCHAR verticallinemod
ENCODING 712
SWIDTH 456 0
DWIDTH 5 0
BBX 6 7 0 2
BITMAP
053230
5F2211
8F2211
8F2111
8F4230
8FFE30
244200
ENDCHAR
STARTCHAR firsttonechinese
ENCODING 713
SWIDTH 600 0
DWIDTH 7 0
BBX 7 5 0 7
BITMAP
02222220
3C000020
CD022210
CFFFFE30
47777200
ENDCHAR
STARTCHAR secondtonechinese
ENCODING 714
SWIDTH 600 0
DWIDTH 7 0
BBX 7 5 0 7
BITMAP
00222220
18022220
AD135650
CFFFE800
44310000
ENDCHAR
STARTCHAR fourthtonechinese
ENCODING 715
SWIDTH 600 0
DWIDTH 7 0
BBX 7 5 0 7
BITMAP
03222210
5D022220
CF864230
AFFFFE40
00135200
ENDCHAR
STARTCHAR verticallinelowmod
ENCODING 716
SWIDTH 456 0
DWIDTH 5 0
BBX 6 7 0 -4
BITMAP
053230
5F2211
8F2211
8F2111
8F4230
8FFE30
244200
ENDCHAR
STARTCHAR breve
ENCODING 728
SWIDTH 600 0
DWIDTH 7 0
BBX 8 5 0 7
BITMAP
02221320
6C117111
DF632440
AFFFF900
05773000
ENDCHAR
STARTCHAR dotaccent
ENCODING 729
SWIDTH 600 0
DWIDTH 7 0
BBX 5 5 1 7
BITMAP
012220
2D0120
AF1020
AFFE30
377200
ENDCHAR
STARTCHAR ring
ENCODING 730
SWIDTH 600 0
DWIDTH 7 0
BBX 8 7 0 7
BITMAP
00222210
06123220
8C24F212
DC214121
DF632340
AFFFF900
05773000
ENDCHAR
STARTCHAR ogonek
ENCODING 731
SWIDTH 600 0
DWIDTH 7 0
BBX 6 6 1 -4
BITMAP
013320
1C3220
7F1320
9F6222
8FFF70
045200
ENDCHAR
STARTCHAR tilde
ENCODING 732
SWIDTH 600 0
DWIDTH 7 0
BBX 7 5 0 7
BITMAP
01222220
1A022220
BD242030
CFFFFD20
44576100
ENDCHAR
STARTCHAR hungarumlaut
ENCODING 733
SWIDTH 600 0
DWIDTH 7 0
BBX 9 6 -1 7
BITMAP
0012213210
02B11C1020
0B924B2200
0E70880200
3FFDFFC200
1761761000
ENDCHAR
STARTCHAR gravecmb
ENCODING 768
SWIDTH 100 0
DWIDTH 1 0
BBX 7 5 -3 7
BITMAP
03222210
5D022220
CF864230
AFFFFE40
00135200
ENDCHAR
STARTCHAR acutecmb
ENCODING 769
SWIDTH 100 0
DWIDTH 1 0
BBX 7 5 -3 7
BITMAP
00222220
18022220
AD135650
CFFFE800
44310000
ENDCHAR
STARTCHAR circumflexcmb
ENCODING 770
SWIDTH 100 0
DWIDTH 1 0
BBX 7 5 -3 7
BITMAP
00122200
05222230
8D046320
CFEFFF70
65126500
ENDCHAR
STARTCHAR tildecmb
ENCODING 771
SWIDTH 100 0
DWIDTH 1 0
BBX 7 5 -3 7
BITMAP
01222220
1A022220
BE242030
CFFFFD20
44466100
ENDCHAR
STARTCHAR uni0304
ENCODING 772
SWIDTH 600 0
DWIDTH 7 0
BBX 7 5 0 7
BITMAP
02222220
3C000020
CD022210
CFFFFE30
47777200
ENDCHAR
STARTCHAR brevecmb
ENCODING 774
SWIDTH 100 0
DWIDTH 1 0
BBX 8 5 -3 7
BITMAP
02221320
6C117111
DF632440
AFFFF900
05773000
ENDCHAR
STARTCHAR dotaccentcmb
ENCODING 775
SWIDTH 100 0
DWIDTH 1 0
BBX 5 5 -2 7
BITMAP
012220
3D0120
AF1020
AFFE30
477200
ENDCHAR
STARTCHAR dieresiscmb
ENCODING 776
SWIDTH 100 0
DWIDTH 1 0
BBX 9 5 -4 7
BITMAP
0032242210
06910A1020
1FA00B0020
1FFFFFF800
0674675000
ENDCHAR
STARTCHAR hookcmb
ENCODING 777
SWIDTH 100 0
DWIDTH 1 0
BBX 6 6 -2 7
BITMAP
022221
3E1222
AFB622
5E9231
2FFE50
075200
ENDCHAR
STARTCHAR ringcmb
ENCODING 778
SWIDTH 100 0
DWIDTH 1 0
BBX 8 7 -3 7
BITMAP
00222210
06123220
8C24F212
DC214121
DF632340
AFFFF900
05773000
ENDCHAR
STARTCHAR hungarumlautcmb
ENCODING 779
SWIDTH 100 0
DWIDTH 1 0
BBX 8 6 -3 7
BITMAP
00322222
08517712
3F22C322
7E01F102
BFFDFF60
57347400
ENDCHAR
STARTCHAR caroncmb
ENCODING 780
SWIDTH 100 0
DWIDTH 1 0
BBX 7 6 -3 7
BITMAP
00000010
07012230
9D022120
CFB41640
8FFFE600
01650000
ENDCHAR
STARTCHAR horncmb
ENCODING 795
SWIDTH 100 0
DWIDTH 1 0
BBX 5 5 -2 5
BITMAP
003220
1A1220
8D2210
CFC300
661000
ENDCHAR
STARTCHAR dotbelowcmb
ENCODING 803
SWIDTH 100 0
DWIDTH 1 0
BBX 5 5 -2 -5
BITMAP
012220
3D0120
AF1020
AFFE30
477200
ENDCHAR
STARTCHAR dieresisbelowcmb
ENCODING 804
SWIDTH 100 0
DWIDTH 1 0
BBX 9 5 -4 -5
BITMAP
0032242210
06910A1020
1FA00B0020
1FFFFFF800
0674675000
ENDCHAR
STARTCHAR commaaccent
ENCODING 806
SWIDTH 600 0
DWIDTH 7 0
BBX 5 6 1 -5
BITMAP
012220
2C1220
AF0030
AF8420
8F4220
7FC200
ENDCHAR
STARTCHAR cedillacmb
ENCODING 807
SWIDTH 100 0
DWIDTH 1 0
BBX 5 6 -2 -4
BITMAP
004210
086120
2F1120
8C2220
DFF500
452000
ENDCHAR
STARTCHAR ogonekcmb
ENCODING 808
SWIDTH 100 0
DWIDTH 1 0
BBX 6 6 -2 -4
BITMAP
004320
0A6220
3F5321
5F9222
4FFF91
035300
ENDCHAR
STARTCHAR brevebelowcmb
ENCODING 814
SWIDTH 100 0
DWIDTH 1 0
BBX 8 5 -3 -5
BITMAP
02221320
6C117111
DF632440
AFFFF900
05773000
ENDCHAR
STARTCHAR macronbelowcmb
ENCODING 817
SWIDTH 100 0
DWIDTH 1 0
BBX 7 5 -3 -5
BITMAP
02222220
2C000010
BE022210
CFFFFE30
47777300
ENDCHAR
STARTCHAR uni0394
ENCODING 916
SWIDTH 830 0
DWIDTH 10 0
BBX 10 11 0 -2
BITMAP
0003222210
00A4222020
05F0220220
09B11B2220
0D720E6202
2F423F9102
5F124B8022
8F03222222
AF10000002
AFFFFFFFC1
3666666600
ENDCHAR
STARTCHAR uni03A9
ENCODING 937
SWIDTH 877 0
DWIDTH 11 0
BBX 11 11 0 -2
BITMAP
001222222100
026022220200
1D5205602200
4F520EF12200
5F520BF12200
5F520BF12200
5F620AD02210
5C0234632020
CD0005600020
DFFFFFFFF900
466626665000
ENDCHAR
STARTCHAR uni03BC
ENCODING 956
SWIDTH 813 0
DWIDTH 10 0
BBX 10 10 0 -2
BITMAP
0122202221
2D20248002
8F222E9202
8F222F9202
8F222F9202
8F23073201
8F22222100
8F21022310
8F989EA100
7EE8000000
ENDCHAR
STARTCHAR pi
ENCODING 960
SWIDTH 821 0
DWIDTH 10 0
BBX 10 9 0 -2
BITMAP
0532222222
5F22222302
8F22195202
8F222F9202
8F222F9202
8F222F9102
8F203F9002
8FFE5FFFA0
3662066500
ENDCHAR
STARTCHAR Ddotbelow
ENCODING 7692
SWIDTH 846 0
DWIDTH 10 0
BBX 10 14 0 -5
BITMAP
0442222221
4F32222202
7F32064022
7F321FE022
7F321CE022
7F321CE022
7F32177022
7F32222224
7FCBA77C70
6FFF700300
001E710200
003F922100
003FFF5000
0004530000
ENDCHAR
STARTCHAR ddotbelow
ENCODING 7693
SWIDTH 846 0
DWIDTH 10 0
BBX 10 14 0 -5
BITMAP
0442222221
4F32222202
7F32064022
7F321FE022
7F321CE022
7F321CE022
7F32177022
7F32222224
7FCBA77C70
6FFF700300
001E710200
003F922100
003FFF5000
0004530000
ENDCHAR
STARTCHAR Dlinebelow
ENCODING 7694
SWIDTH 846 0
DWIDTH 10 0
BBX 10 13 0 -4
BITMAP
0442222221
4F32222202
7F32064022
7F321FE022
7F321CE022
7F321CE022
7F32177022
7F32222221
7FEBAAAB30
6FF4000020
03E6344220
06FFFFF800
0155553000
ENDCHAR
STARTCHAR dlinebelow
ENCODING 7695
SWIDTH 846 0
DWIDTH 10 0
BBX 10 13 0 -4
BITMAP
0442222221
4F32222202
7F32064022
7F321FE022
7F321CE022
7F321CE022
7F32177022
7F32222221
7FEBAAAB30
6FF4000020
03E6344220
06FFFFF800
0155553000
ENDCHAR
STARTCHAR Gmacron
ENCODING 7712
SWIDTH 808 0
DWIDTH 10 0
BBX 10 13 0 -1
BITMAP
0003222220
0087122120
03F7000000
03FB888850
0371234330
2E222FFB10
8F12257221
9F12268002
9F123F8202
9F22032202
8F61222302
4FFA766651
06DFFFFD20
ENDCHAR
STARTCHAR gmacron
ENCODING 7713
SWIDTH 808 0
DWIDTH 10 0
BBX 10 13 0 -1
BITMAP
0003222220
0087122120
03F7000000
03FB888850
0371234330
2E222FFB10
8F12257221
9F12268002
9F123F8202
9F22032202
8F61222302
4FFA766651
06DFFFFD20
ENDCHAR
STARTCHAR Hdotbelow
ENCODING 7716
SWIDTH 859 0
DWIDTH 10 0
BBX 10 14 0 -5
BITMAP
0442318223
4F321BE022
7F32078022
7F32000022
7F32222222
7F32022022
7F321FE022
7F311DE012
7F966BF664
6FFB468D80
0008810200
002FA22100
002FFF6000
0004530000
ENDCHAR
STARTCHAR hdotbelow
ENCODING 7717
SWIDTH 859 0
DWIDTH 10 0
BBX 10 14 0 -5
BITMAP
0442318223
4F321BE022
7F32078022
7F32000022
7F32222222
7F32022022
7F321FE022
7F311DE012
7F966BF664
6FFB468D80
0008810200
002FA22100
002FFF6000
0004530000
ENDCHAR
STARTCHAR Hbrevebelow
ENCODING 7722
SWIDTH 859 0
DWIDTH 10 0
BBX 10 13 0 -4
BITMAP
0442318223
4F321BE022
7F32078022
7F32000022
7F32243222
7F321FE022
7F321DE022
7F311CE012
7FFA6CD8B8
6FF50A9030
03E9222140
04FFC99810
009EFD7000
ENDCHAR
STARTCHAR hbrevebelow
ENCODING 7723
SWIDTH 859 0
DWIDTH 10 0
BBX 10 13 0 -4
BITMAP
0442318223
4F321BE022
7F32078022
7F32000022
7F32243222
7F321FE022
7F321DE022
7F311CE012
7FFA6CD8B8
6FF50A9030
03E9222140
04FFC99810
009EFD7000
ENDCHAR
STARTCHAR Ldotbelow
ENCODING 7734
SWIDTH 795 0
DWIDTH 10 0
BBX 10 14 0 -5
BITMAP
0442300000
4F32110000
7F32110000
7F32112221
7F32168002
7F321F9202
7F32042202
7F32222302
7FCB977BA2
6FFF600B20
002E510200
005F722100
004FFE4000
0015520000
ENDCHAR
STARTCHAR ldotbelow
ENCODING 7735
SWIDTH 795 0
DWIDTH 10 0
BBX 10 14 0 -5
BITMAP
0442300000
4F32110000
7F32110000
7F32112221
7F32168002
7F321F9202
7F32042202
7F32222302
7FCB977BA2
6FFF600B20
002E510200
005F722100
004FFE4000
0015520000
ENDCHAR
STARTCHAR Ldotbelowmacron
ENCODING 7736
SWIDTH 795 0
DWIDTH 10 0
BBX 10 17 0 -5
BITMAP
0013222210
02D1222020
09F2000010
0AA89FE400
5F31152000
7F32110000
7F32112221
7F32168002
7F321F9202
7F32042202
7F32222302
7FCB977BA2
6FFF600B20
002E510200
005F722100
004FFE4000
0015520000
ENDCHAR
STARTCHAR ldotbelowmacron
ENCODING 7737
SWIDTH 795 0
DWIDTH 10 0
BBX 10 17 0 -5
BITMAP
0013222210
02D1222020
09F2000010
0AA89FE400
5F31152000
7F32110000
7F32112221
7F32168002
7F321F9202
7F32042202
7F32222302
7FCB977BA2
6FFF600B20
002E510200
005F722100
004FFE4000
0015520000
ENDCHAR
STARTCHAR Llinebelow
ENCODING 7738
SWIDTH 795 0
DWIDTH 10 0
BBX 10 13 0 -4
BITMAP
0442300000
4F32110000
7F32110000
7F32112221
7F32168002
7F321F9202
7F32042202
7F32222302
7FC8777781
6FF1122020
07F3222220
09FFFFE500
0255552000
ENDCHAR
STARTCHAR llinebelow
ENCODING 7739
SWIDTH 795 0
DWIDTH 10 0
BBX 10 13 0 -4
BITMAP
0442300000
4F32110000
7F32110000
7F32112221
7F32168002
7F321F9202
7F32042202
7F32222302
7FC8777781
6FF1122020
07F3222220
09FFFFE500
0255552000
ENDCHAR
STARTCHAR Mdotbelow
ENCODING 7746
SWIDTH 949 0
DWIDTH 11 0
BBX 11 14 0 -5
BITMAP
044221042230
4F3121932120
7F3212421220
7F3211220220
7F3226080220
7F322EBF0220
7F322BBF0220
7F3120AF0120
7F9640AF7640
6FFA126AF900
0002D1120000
0009F4220000
0009FFD20000
000255100000
ENDCHAR
STARTCHAR mdotbelow
ENCODING 7747
SWIDTH 949 0
DWIDTH 11 0
BBX 11 14 0 -5
BITMAP
044221042230
4F3121932120
7F3212421220
7F3211220220
7F3226080220
7F322EBF0220
7F322BBF0220
7F3120AF0120
7F9640AF7640
6FFA126AF900
0002D1120000
0009F4220000
0009FFD20000
000255100000
ENDCHAR
STARTCHAR Ndotaccent
ENCODING 7748
SWIDTH 853 0
DWIDTH 10 0
BBX 10 14 0 -1
BITMAP
0000222100
0005800200
001F810200
002F900100
04426FE222
4F3318E022
7F32116022
7F32021022
7F32132022
7F322D1222
7F322FB022
7F312FE012
7F965BF663
6FFA1AFF70
ENDCHAR
STARTCHAR ndotaccent
ENCODING 7749
SWIDTH 853 0
DWIDTH 10 0
BBX 10 14 0 -1
BITMAP
0000222100
0005800200
001F810200
002F900100
04426FE222
4F3318E022
7F32116022
7F32021022
7F32132022
7F322D1222
7F322FB022
7F312FE012
7F965BF663
6FFA1AFF70
ENDCHAR
STARTCHAR Ndotbelow
ENCODING 7750
SWIDTH 853 0
DWIDTH 10 0
BBX 10 14 0 -5
BITMAP
0442318222
4F3316E022
7F32116022
7F32021022
7F32132022
7F322D1222
7F322FB022
7F312FE012
7F965BF663
6FFA378D70
0008810200
002F922100
002FFF6000
0004530000
ENDCHAR
STARTCHAR ndotbelow
ENCODING 7751
SWIDTH 853 0
DWIDTH 10 0
BBX 10 14 0 -5
BITMAP
0442318222
4F3316E022
7F32116022
7F32021022
7F32132022
7F322D1222
7F322FB022
7F312FE012
7F965BF663
6FFA378D70
0008810200
002F922100
002FFF6000
0004530000
ENDCHAR
STARTCHAR Nlinebelow
ENCODING 7752
SWIDTH 853 0
DWIDTH 10 0
BBX 10 13 0 -4
BITMAP
0442318222
4F3316E022
7F32116022
7F32021022
7F32132022
7F322D1222
7F322FB022
7F312EE012
7FEA6787B4
6FF6122120
03E8222220
04FFFFF900
0155554000
ENDCHAR
STARTCHAR nlinebelow
ENCODING 7753
SWIDTH 853 0
DWIDTH 10 0
BBX 10 13 0 -4
BITMAP
0442318222
4F3316E022
7F32116022
7F32021022
7F32132022
7F322D1222
7F322FB022
7F312EE012
7FEA6787B4
6FF6122120
03E8222220
04FFFFF900
0155554000
ENDCHAR
STARTCHAR Rdotbelow
ENCODING 7770
SWIDTH 843 0
DWIDTH 10 0
BBX 10 14 0 -5
BITMAP
0442222220
4F32222111
7F321F4202
7F32182230
7F32222302
7F32021022
7F321FF122
7F311CF112
7F9659F764
6FFB468D90
0007901200
000FB22100
000FFF8000
0004540000
ENDCHAR
STARTCHAR rdotbelow
ENCODING 7771
SWIDTH 843 0
DWIDTH 10 0
BBX 10 14 0 -5
BITMAP
0442222220
4F32222111
7F321F4202
7F32182230
7F32222302
7F32021022
7F321FF122
7F311CF112
7F9659F764
6FFB468D90
0007901200
000FB22100
000FFF8000
0004540000
ENDCHAR
STARTCHAR Rdotbelowmacron
ENCODING 7772
SWIDTH 843 0
DWIDTH 10 0
BBX 10 17 0 -5
BITMAP
0022222200
03B0221200
0CD0000200
0DA8888510
3E32222120
7F321F4202
7F32182230
7F32222302
7F32021022
7F321FF122
7F311CF112
7F9659F764
6FFB468D90
0007901200
000FB22100
000FFF8000
0004540000
ENDCHAR
STARTCHAR rdotbelowmacron
ENCODING 7773
SWIDTH 843 0
DWIDTH 10 0
BBX 10 17 0 -5
BITMAP
0022222200
03B0221200
0CD0000200
0DA8888510
3E32222120
7F321F4202
7F32182230
7F32222302
7F32021022
7F321FF122
7F311CF112
7F9659F764
6FFB468D90
0007901200
000FB22100
000FFF8000
0004540000
ENDCHAR
STARTCHAR Rlinebelow
ENCODING 7774
SWIDTH 843 0
DWIDTH 10 0
BBX 10 13 0 -4
BITMAP
0444444320
4F32000211
7F321F4202
7F32182230
7F32222202
7F32177022
7F321FF122
7F301AF102
7FEA6688C7
6FF5122030
03F7222220
05FFFFF800
0155554000
ENDCHAR
STARTCHAR rlinebelow
ENCODING 7775
SWIDTH 843 0
DWIDTH 10 0
BBX 10 13 0 -4
BITMAP
0444444320
4F32000211
7F321F4202
7F32182230
7F32222202
7F32177022
7F321FF122
7F301AF102
7FEA6688C7
6FF5122030
03F7222220
05FFFFF800
0155554000
ENDCHAR
STARTCHAR Sdotaccent
ENCODING 7776
SWIDTH 750 0
DWIDTH 9 0
BBX 9 14 0 -1
BITMAP
0002222000
003D002000
00AF012000
00BF100000
02A4222220
2E21222020
8F022CFA10
AF02000220
AF71112020
6FFEB90220
0A21110210
6F02222010
AF76667400
9FFFFD6000
ENDCHAR
STARTCHAR sdotaccent
ENCODING 7777
SWIDTH 750 0
DWIDTH 9 0
BBX 9 14 0 -1
BITMAP
0002222000
003D002000
00AF012000
00BF100000
02A4222220
2E21222020
8F022CFA10
AF02000220
AF71112020
6FFEB90220
0A21110210
6F02222010
AF76667400
9FFFFD6000
ENDCHAR
STARTCHAR Sdotbelow
ENCODING 7778
SWIDTH 750 0
DWIDTH 9 0
BBX 9 14 0 -5
BITMAP
0022222220
0921222020
7F022CEA10
AF02000110
AF71112010
7FFEB90220
0A21110220
6F02222150
AFCB879A10
9FFF002000
007F012000
00AF323000
00AFFC2000
0025510000
ENDCHAR
STARTCHAR sdotbelow
ENCODING 7779
SWIDTH 750 0
DWIDTH 9 0
BBX 9 14 0 -5
BITMAP
0022222220
0921222020
7F022CEA10
AF02000110
AF71112010
7FFEB90220
0A21110220
6F02222150
AFCB879A10
9FFF002000
007F012000
00AF323000
00AFFC2000
0025510000
ENDCHAR
STARTCHAR Tdotbelow
ENCODING 7788
SWIDTH 756 0
DWIDTH 9 0
BBX 9 14 0 -5
BITMAP
1722222230
DC24232330
EFFE024E50
45CE023200
00BE022000
00BE022000
00BE022000
00BE002000
00BF875000
00AE002000
008E012000
00BF221000
00BFFB1000
0025500000
ENDCHAR
STARTCHAR tdotbelow
ENCODING 7789
SWIDTH 756 0
DWIDTH 9 0
BBX 9 14 0 -5
BITMAP
1722222230
DC24232330
EFFE024E50
45CE023200
00BE022000
00BE022000
00BE022000
00BE002000
00BF875000
00AE002000
008E012000
00BF221000
00BFFB1000
0025500000
ENDCHAR
STARTCHAR Tlinebelow
ENCODING 7790
SWIDTH 756 0
DWIDTH 9 0
BBX 9 13 0 -4
BITMAP
1724454330
DC22021230
EFFE024E50
45CE023200
00BE022000
00BE022000
00BE022000
00BE002000
00B9775200
02B0221200
0CD2222200
0DFFFFD200
0355551000
ENDCHAR
STARTCHAR tlinebelow
ENCODING 7791
SWIDTH 756 0
DWIDTH 9 0
BBX 9 13 0 -4
BITMAP
1724454330
DC22021230
EFFE024E50
45CE023200
00BE022000
00BE022000
00BE022000
00BE002000
00B9775200
02B0221200
0CD2222200
0DFFFFD200
0355551000
ENDCHAR
STARTCHAR Wgrave
ENCODING 7808
SWIDTH 931 0
DWIDTH 11 0
BBX 11 13 0 -1
BITMAP
000755554000
00AB02212000
00EE86421000
05425CEF2230
6F12209F0220
8F12227E0220
8F1234080220
8F1221220220
8F2202020220
8F5211920220
7FA124E03010
2FF76AF96400
0AFE67FF8000
ENDCHAR
STARTCHAR wgrave
ENCODING 7809
SWIDTH 931 0
DWIDTH 11 0
BBX 11 13 0 -1
BITMAP
000755554000
00AB02212000
00EE86421000
05425CEF2230
6F12209F0220
8F12227E0220
8F1234080220
8F1221220220
8F2202020220
8F5211920220
7FA124E03010
2FF76AF96400
0AFE67FF8000
ENDCHAR
STARTCHAR Wacute
ENCODING 7810
SWIDTH 931 0
DWIDTH 11 0
BBX 11 13 0 -1
BITMAP
000055556100
001B02220200
00AF13462000
05325A9D2230
6F12209F0220
8F12227E0220
8F1234080220
8F1221220220
8F2202020220
8F5211920220
7FA124E03010
2FF76AF96400
0AFE67FF8000
ENDCHAR
STARTCHAR wacute
ENCODING 7811
SWIDTH 931 0
DWIDTH 11 0
BBX 11 13 0 -1
BITMAP
000055556100
001B02220200
00AF13462000
05325A9D2230
6F12209F0220
8F12227E0220
8F1234080220
8F1221220220
8F2202020220
8F5211920220
7FA124E03010
2FF76AF96400
0AFE67FF8000
ENDCHAR
STARTCHAR Wdieresis
ENCODING 7812
SWIDTH 931 0
DWIDTH 11 0
BBX 11 13 0 -1
BITMAP
000322422100
007810A10200
01F901A00100
03989FFF8860
3E1123AF0120
8F12227E0220
8F1234080220
8F1221220220
8F2202020220
8F4211920210
7FA124E03010
2FF76AF96400
0AFE67FF8000
ENDCHAR
STARTCHAR wdieresis
ENCODING 7813
SWIDTH 931 0
DWIDTH 11 0
BBX 11 13 0 -1
BITMAP
000322422100
007810A10200
01F901A00100
03989FFF8860
3E1123AF0120
8F12227E0220
8F1234080220
8F1221220220
8F2202020220
8F4211920210
7FA124E03010
2FF76AF96400
0AFE67FF8000
ENDCHAR
STARTCHAR Ydotaccent
ENCODING 7822
SWIDTH 805 0
DWIDTH 10 0
BBX 10 14 0 -1
BITMAP
0000322000
0009400200
005F410200
007F400100
07228F9222
8E014FA102
BE022F9102
BF121E4202
BF81211120
5FF5131110
09FE120200
00CF310200
007F965100
006FFC2000
ENDCHAR
STARTCHAR ydotaccent
ENCODING 7823
SWIDTH 805 0
DWIDTH 10 0
BBX 10 14 0 -1
BITMAP
0000322000
0009400200
005F410200
007F400100
07228F9222
8E014FA102
BE022F9102
BF121E4202
BF81211120
5FF5131110
09FE120200
00CF310200
007F965100
006FFC2000
ENDCHAR
STARTCHAR Zdotbelow
ENCODING 7826
SWIDTH 760 0
DWIDTH 9 0
BBX 9 14 0 -5
BITMAP
0642222220
6F43422120
8FFFA01120
255B011110
0072021200
0530202000
3D02022220
AE02222120
BFBB878B90
AFFF102910
006F112000
009F422000
009FFD2000
0025510000
ENDCHAR
STARTCHAR zdotbelow
ENCODING 7827
SWIDTH 760 0
DWIDTH 9 0
BBX 9 14 0 -5
BITMAP
0642222220
6F43422120
8FFFA01120
255B011110
0072021200
0530202000
3D02022220
AE02222120
BFBB878B90
AFFF102910
006F112000
009F422000
009FFD2000
0025510000
ENDCHAR
STARTCHAR tdieresis
ENCODING 7831
SWIDTH 756 0
DWIDTH 9 0
BBX 9 13 0 -1
BITMAP
0032242210
0A810A1020
2F901A0010
3C22222230
EC24232330
EFFE024E50
45CE023200
00BE022000
00BE022000
00BE022000
00BE012000
00BF663000
00AFF80000
ENDCHAR
STARTCHAR Germandbls
ENCODING 7838
SWIDTH 859 0
DWIDTH 10 0
BBX 11 10 0 -1
BITMAP
044222222000
4F3222212000
7F3206022000
7F321E022100
7F321C122110
7F321FF52020
7F321B202020
7F311A021210
7F967D667200
6FFBEFEB2000
ENDCHAR
STARTCHAR Adotbelow
ENCODING 7840
SWIDTH 830 0
DWIDTH 10 0
BBX 10 14 0 -5
BITMAP
0004222210
00B2122020
05C01B3120
0B611F7102
2F21010012
7F03222222
9F02121022
AF025FC022
AF767EE663
9FF9478E60
001A610200
004F722100
004FFE4000
0015520000
ENDCHAR
STARTCHAR adotbelow
ENCODING 7841
SWIDTH 830 0
DWIDTH 10 0
BBX 10 14 0 -5
BITMAP
0004222210
00B2122020
05C01B3120
0B611F7102
2F21010012
7F03222222
9F02121022
AF025FC022
AF767EE663
9FF9478E60
001A610200
004F722100
004FFE4000
0015520000
ENDCHAR
STARTCHAR Ahookabove
ENCODING 7842
SWIDTH 830 0
DWIDTH 10 0
BBX 10 14 0 -1
BITMAP
0002122100
004EA62100
009FA23400
001DECD400
0019222210
00B2122020
05C01B3120
0B611F7102
2F21010012
7F03222222
9F02121022
AF025FC022
AF767EE663
9FF91CFF60
ENDCHAR
STARTCHAR ahookabove
ENCODING 7843
SWIDTH 830 0
DWIDTH 10 0
BBX 10 14 0 -1
BITMAP
0002122100
004EA62100
009FA23400
001DECD400
0019222210
00B2122020
05C01B3120
0B611F7102
2F21010012
7F03222222
9F02121022
AF025FC022
AF767EE663
9FF91CFF60
ENDCHAR
STARTCHAR Acircumflexacute
ENCODING 7844
SWIDTH 830 0
DWIDTH 10 0
BBX 10 16 0 -1
BITMAP
0000006870
00001B5220
00006F4110
0003535620
0094000020
06F9AEC820
06F8000110
02D2122020
05B01B3110
0B511F7102
2F21010012
7F03222222
9F02121022
AF025FC022
AF767EE663
9FF91CFF60
ENDCHAR
STARTCHAR acircumflexacute
ENCODING 7845
SWIDTH 830 0
DWIDTH 10 0
BBX 10 16 0 -1
BITMAP
0000006870
00001B5220
00006F4110
0003535620
0094000020
06F9AEC820
06F8000110
02D2122020
05B01B3110
0B511F7102
2F21010012
7F03222222
9F02121022
AF025FC022
AF767EE663
9FF91CFF60
ENDCHAR
STARTCHAR Acircumflexgrave
ENCODING 7846
SWIDTH 830 0
DWIDTH 10 0
BBX 10 16 0 -1
BITMAP
0000039720
00004E1340
0000AF1010
0004635510
00A4000020
06F9AEC820
06F8000110
02D2122020
05B01B3110
0B511F7102
2F21010012
7F03222222
9F02121022
AF025FC022
AF767EE663
9FF91CFF60
ENDCHAR
STARTCHAR acircumflexgrave
ENCODING 7847
SWIDTH 830 0
DWIDTH 10 0
BBX 10 16 0 -1
BITMAP
0000039720
00004E1340
0000AF1010
0004635510
00A4000020
06F9AEC820
06F8000110
02D2122020
05B01B3110
0B511F7102
2F21010012
7F03222222
9F02121022
AF025FC022
AF767EE663
9FF91CFF60
ENDCHAR
STARTCHAR Acircumflexhookabove
ENCODING 7848
SWIDTH 830 0
DWIDTH 10 0
BBX 10 17 0 -1
BITMAP
0000013222
00002D4223
00007FD732
000018A221
0002222440
00A4000020
06F9AEC820
06F8000110
02D2122020
05B01B3110
0B511F7102
2F21010012
7F03222222
9F02121022
AF025FC022
AF767EE663
9FF91CFF60
ENDCHAR
STARTCHAR acircumflexhookabove
ENCODING 7849
SWIDTH 830 0
DWIDTH 10 0
BBX 10 17 0 -1
BITMAP
0000013222
00002D4223
00007FD732
000018A221
0002222440
00A4000020
06F9AEC820
06F8000110
02D2122020
05B01B3110
0B511F7102
2F21010012
7F03222222
9F02121022
AF025FC022
AF767EE663
9FF91CFF60
ENDCHAR
STARTCHAR Acircumflextilde
ENCODING 7850
SWIDTH 830 0
DWIDTH 10 0
BBX 10 16 0 -1
BITMAP
0002222210
01B4111020
06FCC78610
0389322320
01D4000020
06F9AEC820
06F8000110
02D2122020
05B01B3110
0B511F7102
2F21010012
7F03222222
9F02121022
AF025FC022
AF767EE663
9FF91CFF60
ENDCHAR
STARTCHAR acircumflextilde
ENCODING 7851
SWIDTH 830 0
DWIDTH 10 0
BBX 10 16 0 -1
BITMAP
0002222210
01B4111020
06FCC78610
0389322320
01D4000020
06F9AEC820
06F8000110
02D2122020
05B01B3110
0B511F7102
2F21010012
7F03222222
9F02121022
AF025FC022
AF767EE663
9FF91CFF60
ENDCHAR
STARTCHAR Acircumflexdotbelow
ENCODING 7852
SWIDTH 830 0
DWIDTH 10 0
BBX 10 18 0 -5
BITMAP
0000122000
0013222220
01B4000020
06F9AEC820
06F8000110
02D2122020
05B01B3110
0B511F7102
2F21010012
7F03222222
9F02121022
AF025FC022
AF767EE663
9FF9478E60
001A610200
004F722100
004FFE4000
0015520000
ENDCHAR
STARTCHAR acircumflexdotbelow
ENCODING 7853
SWIDTH 830 0
DWIDTH 10 0
BBX 10 18 0 -5
BITMAP
0000122000
0013222220
01B4000020
06F9AEC820
06F8000110
02D2122020
05B01B3110
0B511F7102
2F21010012
7F03222222
9F02121022
AF025FC022
AF767EE663
9FF9478E60
001A610200
004F722100
004FFE4000
0015520000
ENDCHAR
STARTCHAR Abreveacute
ENCODING 7854
SWIDTH 830 0
DWIDTH 10 0
BBX 10 17 0 -1
BITMAP
0000001200
00003CC800
0004E31100
0006921210
00B2184120
07F4222110
07FC301100
03FC666720
00B4122030
05D01B3130
0B711F7102
2F21010012
7F03222222
9F02121022
AF025FC022
AF767EE663
9FF91CFF60
ENDCHAR
STARTCHAR abreveacute
ENCODING 7855
SWIDTH 830 0
DWIDTH 10 0
BBX 10 17 0 -1
BITMAP
0000001200
00003CC800
0004E31100
0006921210
00B2184120
07F4222110
07FC301100
03FC666720
00B4122030
05D01B3130
0B711F7102
2F21010012
7F03222222
9F02121022
AF025FC022
AF767EE663
9FF91CFF60
ENDCHAR
STARTCHAR Abrevegrave
ENCODING 7856
SWIDTH 830 0
DWIDTH 10 0
BBX 10 17 0 -1
BITMAP
0000300000
001BAC6000
00AE012000
00BA201210
01C2164120
07F4222110
07FC301100
03FC666720
00B4122030
05D01B3130
0B711F7102
2F21010012
7F03222222
9F02121022
AF025FC022
AF767EE663
9FF91CFF60
ENDCHAR
STARTCHAR abrevegrave
ENCODING 7857
SWIDTH 830 0
DWIDTH 10 0
BBX 10 17 0 -1
BITMAP
0000300000
001BAC6000
00AE012000
00BA201210
01C2164120
07F4222110
07FC301100
03FC666720
00B4122030
05D01B3130
0B711F7102
2F21010012
7F03222222
9F02121022
AF025FC022
AF767EE663
9FF91CFF60
ENDCHAR
STARTCHAR Abrevehookabove
ENCODING 7858
SWIDTH 830 0
DWIDTH 10 0
BBX 10 17 0 -1
BITMAP
0000222100
001DC72210
002DF12310
00069BA510
00A2173120
07F4222110
07FC301100
03FC666720
00B4122030
05D01B3130
0B711F7102
2F21010012
7F03222222
9F02121022
AF025FC022
AF767EE663
9FF91CFF60
ENDCHAR
STARTCHAR abrevehookabove
ENCODING 7859
SWIDTH 830 0
DWIDTH 10 0
BBX 10 17 0 -1
BITMAP
0000222100
001DC72210
002DF12310
00069BA510
00A2173120
07F4222110
07FC301100
03FC666720
00B4122030
05D01B3130
0B711F7102
2F21010012
7F03222222
9F02121022
AF025FC022
AF767EE663
9FF91CFF60
ENDCHAR
STARTCHAR Abrevetilde
ENCODING 7860
SWIDTH 830 0
DWIDTH 10 0
BBX 10 16 0 -1
BITMAP
0002222210
01B4221020
06FA9EB720
04F2184120
07F4222110
07FC301100
03FC666720
00B4122030
05D01B3130
0B711F7102
2F21010012
7F03222222
9F02121022
AF025FC022
AF767EE663
9FF91CFF60
ENDCHAR
STARTCHAR abrevetilde
ENCODING 7861
SWIDTH 830 0
DWIDTH 10 0
BBX 10 16 0 -1
BITMAP
0002222210
01B4221020
06FA9EB720
04F2184120
07F4222110
07FC301100
03FC666720
00B4122030
05D01B3130
0B711F7102
2F21010012
7F03222222
9F02121022
AF025FC022
AF767EE663
9FF91CFF60
ENDCHAR
STARTCHAR Abrevedotbelow
ENCODING 7862
SWIDTH 830 0
DWIDTH 10 0
BBX 10 18 0 -5
BITMAP
0003213210
00B2154120
07F4222110
07FC301100
03FC666720
00B4122030
05D01B3130
0B711F7102
2F21010012
7F03222222
9F02121022
AF025FC022
AF767EE663
9FF9478E60
001A610200
004F722100
004FFE4000
0015520000
ENDCHAR
STARTCHAR abrevedotbelow
ENCODING 7863
SWIDTH 830 0
DWIDTH 10 0
BBX 10 18 0 -5
BITMAP
0003213210
00B2154120
07F4222110
07FC301100
03FC666720
00B4122030
05D01B3130
0B711F7102
2F21010012
7F03222222
9F02121022
AF025FC022
AF767EE663
9FF9478E60
001A610200
004F722100
004FFE4000
0015520000
ENDCHAR
STARTCHAR Edotbelow
ENCODING 7864
SWIDTH 754 0
DWIDTH 9 0
BBX 9 14 0 -5
BITMAP
0442222230
4F32222120
7F321EED30
7F32000200
7F32221200
7F32177300
7F32187220
7F32222120
7FCB878B80
6FFF102A10
006F112000
009F423000
009FFD2000
0025510000
ENDCHAR
STARTCHAR edotbelow
ENCODING 7865
SWIDTH 754 0
DWIDTH 9 0
BBX 9 14 0 -5
BITMAP
0442222230
4F32222120
7F321EED30
7F32000200
7F32221200
7F32177300
7F32187220
7F32222120
7FCB878B80
6FFF102A10
006F112000
009F423000
009FFD2000
0025510000
ENDCHAR
STARTCHAR Ehookabove
ENCODING 7866
SWIDTH 754 0
DWIDTH 9 0
BBX 9 14 0 -1
BITMAP
0003121000
008E842100
00EF423300
005FDDC100
0442222230
4F32222120
7F321EED30
7F32000200
7F32221200
7F32177300
7F32187220
7F32222120
7F96666640
6FFFFFF800
ENDCHAR
STARTCHAR ehookabove
ENCODING 7867
SWIDTH 754 0
DWIDTH 9 0
BBX 9 14 0 -1
BITMAP
0003121000
008E842100
00EF423300
005FDDC100
0442222230
4F32222120
7F321EED30
7F32000200
7F32221200
7F32177300
7F32187220
7F32222120
7F96666640
6FFFFFF800
ENDCHAR
STARTCHAR Etilde
ENCODING 7868
SWIDTH 754 0
DWIDTH 9 0
BBX 9 13 0 -1
BITMAP
0012222300
02B0222110
0BE2420100
0B52222230
4F32222120
7F321EED30
7F32000200
7F32221200
7F32177300
7F32187220
7F32222120
7F96666640
6FFFFFF800
ENDCHAR
STARTCHAR etilde
ENCODING 7869
SWIDTH 754 0
DWIDTH 9 0
BBX 9 13 0 -1
BITMAP
0012222300
02B0222110
0BE2420100
0B52222230
4F32222120
7F321EED30
7F32000200
7F32221200
7F32177300
7F32187220
7F32222120
7F96666640
6FFFFFF800
ENDCHAR
STARTCHAR Ecircumflexacute
ENCODING 7870
SWIDTH 754 0
DWIDTH 9 0
BBX 9 16 0 -1
BITMAP
0000028850
00003D1120
0000BE0110
0024636600
03C0101110
0BE6AC9500
0C52222230
5F32222120
7F321EED30
7F32000200
7F32221200
7F32177300
7F32187220
7F32222120
7F96666640
6FFFFFF800
ENDCHAR
STARTCHAR ecircumflexacute
ENCODING 7871
SWIDTH 754 0
DWIDTH 9 0
BBX 9 16 0 -1
BITMAP
0000028850
00003D1120
0000BE0110
0024636600
03C0101110
0BE6AC9500
0C52222230
5F32222120
7F321EED30
7F32000200
7F32221200
7F32177300
7F32187220
7F32222120
7F96666640
6FFFFFF800
ENDCHAR
STARTCHAR Ecircumflexgrave
ENCODING 7872
SWIDTH 754 0
DWIDTH 9 0
BBX 9 16 0 -1
BITMAP
0000068500
00009B1430
0000FB0010
0025636500
03C0101110
0BE6AC9500
0C52222230
6F32222120
7F321EED30
7F32000200
7F32221200
7F32177300
7F32187220
7F32222120
7F96666640
6FFFFFF800
ENDCHAR
STARTCHAR ecircumflexgrave
ENCODING 7873
SWIDTH 754 0
DWIDTH 9 0
BBX 9 16 0 -1
BITMAP
0000068500
00009B1430
0000FB0010
0025636500
03C0101110
0BE6AC9500
0C52222230
6F32222120
7F321EED30
7F32000200
7F32221200
7F32177300
7F32187220
7F32222120
7F96666640
6FFFFFF800
ENDCHAR
STARTCHAR Ecircumflexhookabove
ENCODING 7874
SWIDTH 754 0
DWIDTH 9 0
BBX 10 17 0 -1
BITMAP
0000032221
00005D1222
0000CFB621
00004A7211
0033222710
05D0101110
0BE6AC9500
0C52222230
6F32222120
7F321EED30
7F32000200
7F32221200
7F32177300
7F32187220
7F32222120
7F96666640
6FFFFFF800
ENDCHAR
STARTCHAR ecircumflexhookabove
ENCODING 7875
SWIDTH 754 0
DWIDTH 9 0
BBX 10 17 0 -1
BITMAP
0000032221
00005D1222
0000CFB621
00004A7211
0033222710
05D0101110
0BE6AC9500
0C52222230
6F32222120
7F321EED30
7F32000200
7F32221200
7F32177300
7F32187220
7F32222120
7F96666640
6FFFFFF800
ENDCHAR
STARTCHAR Ecircumflextilde
ENCODING 7876
SWIDTH 754 0
DWIDTH 9 0
BBX 9 16 0 -1
BITMAP
0012222300
04C0211110
0BFBB69300
05B6223500
07E0101110
0BE6AC9500
1D52222230
7F32222120
7F321EED30
7F32000200
7F32221200
7F32177300
7F32187220
7F32222120
7F96666640
6FFFFFF800
ENDCHAR
STARTCHAR ecircumflextilde
ENCODING 7877
SWIDTH 754 0
DWIDTH 9 0
BBX 9 16 0 -1
BITMAP
0012222300
04C0211110
0BFBB69300
05B6223500
07E0101110
0BE6AC9500
1D52222230
7F32222120
7F321EED30
7F32000200
7F32221200
7F32177300
7F32187220
7F32222120
7F96666640
6FFFFFF800
ENDCHAR
STARTCHAR Ecircumflexdotbelow
ENCODING 7878
SWIDTH 754 0
DWIDTH 9 0
BBX 9 18 0 -5
BITMAP
0000222000
0044222300
06D0101110
0BE6AC9500
0D52222230
6F32222120
7F321EED30
7F32000200
7F32221200
7F32177300
7F32187220
7F32222120
7FCB779B70
6FFE005800
008E012000
00BE222000
00BFFB1000
0035500000
ENDCHAR
STARTCHAR ecircumflexdotbelow
ENCODING 7879
SWIDTH 754 0
DWIDTH 9 0
BBX 9 18 0 -5
BITMAP
0000222000
0044222300
06D0101110
0BE6AC9500
0D52222230
6F32222120
7F321EED30
7F32000200
7F32221200
7F32177300
7F32187220
7F32222120
7FCB779B70
6FFE005800
008E012000
00BE222000
00BFFB1000
0035500000
ENDCHAR
STARTCHAR Ihookabove
ENCODING 7880
SWIDTH 705 0
DWIDTH 8 0
BBX 9 14 0 -1
BITMAP
0012220000
02DB722000
06FC135000
00CFCE6000
0732222210
7F02222020
AF85115600
8EFA116100
00FA112000
00FA112000
0295112200
3E02222020
AF76666610
9FFFFFC200
ENDCHAR
STARTCHAR ihookabove
ENCODING 7881
SWIDTH 705 0
DWIDTH 8 0
BBX 9 14 0 -1
BITMAP
0012220000
02DB722000
06FC135000
00CFCE6000
0732222210
7F02222020
AF85115600
8EFA116100
00FA112000
00FA112000
0295112200
3E02222020
AF76666610
9FFFFFC200
ENDCHAR
STARTCHAR Idotbelow
ENCODING 7882
SWIDTH 705 0
DWIDTH 8 0
BBX 9 14 0 -5
BITMAP
0622222210
7F02222020
AF85115600
8EFA116100
00FA112000
00FA112000
0295112200
3E02222020
AFCA77AB10
9FFA008300
00DA012000
00FB222000
00FFF80000
0045400000
ENDCHAR
STARTCHAR idotbelow
ENCODING 7883
SWIDTH 705 0
DWIDTH 8 0
BBX 9 14 0 -5
BITMAP
0622222210
7F02222020
AF85115600
8EFA116100
00FA112000
00FA112000
0295112200
3E02222020
AFCA77AB10
9FFA008300
00DA012000
00FB222000
00FFF80000
0045400000
ENDCHAR
STARTCHAR Odotbelow
ENCODING 7884
SWIDTH 837 0
DWIDTH 10 0
BBX 10 14 0 -5
BITMAP
0012222220
0450222202
3F22053112
8F123FC022
9F122EC022
9F122DC022
9F121DB112
9F30222201
8FB1000010
2DFE955810
005F610200
003F822200
003FFF6000
0004530000
ENDCHAR
STARTCHAR odotbelow
ENCODING 7885
SWIDTH 837 0
DWIDTH 10 0
BBX 10 14 0 -5
BITMAP
0012222220
0450222202
3F22053112
8F123FC022
9F122EC022
9F122DC022
9F121DB112
9F30222201
8FB1000010
2DFE955810
005F610200
003F822200
003FFF6000
0004530000
ENDCHAR
STARTCHAR Ohookabove
ENCODING 7886
SWIDTH 837 0
DWIDTH 10 0
BBX 10 14 0 -1
BITMAP
0003122100
006FC62100
004EB35400
0017322220
0340222102
2E22000112
8F122EB022
9F122EC022
9F122DC022
9F122DC022
9F22053112
8F80222211
3FFC877820
05CEFEA200
ENDCHAR
STARTCHAR ohookabove
ENCODING 7887
SWIDTH 837 0
DWIDTH 10 0
BBX 10 14 0 -1
BITMAP
0003122100
006FC62100
004EB35400
0017322220
0340222102
2E22000112
8F122EB022
9F122EC022
9F122DC022
9F122DC022
9F22053112
8F80222211
3FFC877820
05CEFEA200
ENDCHAR
STARTCHAR Ocircumflexacute
ENCODING 7888
SWIDTH 837 0
DWIDTH 10 0
BBX 10 17 0 -1
BITMAP
0000000240
000002CC90
00003E5110
0000691150
0026222320
03E4100020
06F99CA720
05D4222231
1E32000112
7F122EB022
9F122EC022
9F122DC022
9F122DC022
9F22053112
8F70222212
3FFB877840
05CEFEB300
ENDCHAR
STARTCHAR ocircumflexacute
ENCODING 7889
SWIDTH 837 0
DWIDTH 10 0
BBX 10 17 0 -1
BITMAP
0000000240
000002CC90
00003E5110
0000691150
0026222320
03E4100020
06F99CA720
05D4222231
1E32000112
7F122EB022
9F122EC022
9F122DC022
9F122DC022
9F22053112
8F70222212
3FFB877840
05CEFEB300
ENDCHAR
STARTCHAR Ocircumflexgrave
ENCODING 7890
SWIDTH 837 0
DWIDTH 10 0
BBX 10 16 0 -1
BITMAP
000007EC50
00007F1350
0000992010
0026222000
03E4100020
06F99CA720
05D4222231
1E32000112
7F122EB022
9F122EC022
9F122DC022
9F122DC022
9F22053112
8F70222212
3FFB877840
05CEFEB300
ENDCHAR
STARTCHAR ocircumflexgrave
ENCODING 7891
SWIDTH 837 0
DWIDTH 10 0
BBX 10 16 0 -1
BITMAP
000007EC50
00007F1350
0000992010
0026222000
03E4100020
06F99CA720
05D4222231
1E32000112
7F122EB022
9F122EC022
9F122DC022
9F122DC022
9F22053112
8F70222212
3FFB877840
05CEFEB300
ENDCHAR
STARTCHAR Ocircumflexhookabove
ENCODING 7892
SWIDTH 837 0
DWIDTH 10 0
BBX 10 17 0 -1
BITMAP
0000013222
00002C4223
00006FD732
000028B221
0015222440
02D4100020
06F99CA720
05D4222231
1E32000112
7F122EB022
9F122EC022
9F122DC022
9F122DC022
9F22053112
8F70222212
3FFB877840
05CEFEB300
ENDCHAR
STARTCHAR ocircumflexhookabove
ENCODING 7893
SWIDTH 837 0
DWIDTH 10 0
BBX 10 17 0 -1
BITMAP
0000013222
00002C4223
00006FD732
000028B221
0015222440
02D4100020
06F99CA720
05D4222231
1E32000112
7F122EB022
9F122EC022
9F122DC022
9F122DC022
9F22053112
8F70222212
3FFB877840
05CEFEB300
ENDCHAR
STARTCHAR Ocircumflextilde
ENCODING 7894
SWIDTH 837 0
DWIDTH 10 0
BBX 10 17 0 -1
BITMAP
0002211210
0074122020
04F5320120
06FFD79800
0298122220
03E4100020
06F99CA720
05D4222231
1E32000112
7F122EB022
9F122EC022
9F122DC022
9F122DC022
9F22053112
8F70222212
3FFB877840
05CEFEB300
ENDCHAR
STARTCHAR ocircumflextilde
ENCODING 7895
SWIDTH 837 0
DWIDTH 10 0
BBX 10 17 0 -1
BITMAP
0002211210
0074122020
04F5320120
06FFD79800
0298122220
03E4100020
06F99CA720
05D4222231
1E32000112
7F122EB022
9F122EC022
9F122DC022
9F122DC022
9F22053112
8F70222212
3FFB877840
05CEFEB300
ENDCHAR
STARTCHAR Ocircumflexdotbelow
ENCODING 7896
SWIDTH 837 0
DWIDTH 10 0
BBX 10 17 0 -5
BITMAP
0000122100
0022122020
03E99CA730
06D4000120
0540222102
2E12053112
8F123FC022
9F122EC022
9F122DC022
9F121DB022
9F32000111
8FB1222210
2DFE955810
005F610200
003F822200
003FFF6000
0004530000
ENDCHAR
STARTCHAR ocircumflexdotbelow
ENCODING 7897
SWIDTH 837 0
DWIDTH 10 0
BBX 10 17 0 -5
BITMAP
0000122100
0022122020
03E99CA730
06D4000120
0540222102
2E12053112
8F123FC022
9F122EC022
9F122DC022
9F121DB022
9F32000111
8FB1222210
2DFE955810
005F610200
003F822200
003FFF6000
0004530000
ENDCHAR
STARTCHAR Ohornacute
ENCODING 7898
SWIDTH 847 0
DWIDTH 10 0
BBX 11 13 0 -1
BITMAP
000456540000
019010022210
0CD1356A1020
08D520152310
2E4100012200
8F122EB02200
9F122EC02200
9F122DC02200
9F122DC02200
9F2205311200
8F7022211100
5FFB87782000
07CFFEA20000
ENDCHAR
STARTCHAR ohornacute
ENCODING 7899
SWIDTH 847 0
DWIDTH 10 0
BBX 11 13 0 -1
BITMAP
000456540000
019010022210
0CD1356A1020
08D520152310
2E4100012200
8F122EB02200
9F122EC02200
9F122DC02200
9F122DC02200
9F2205311200
8F7022211100
5FFB87782000
07CFFEA20000
ENDCHAR
STARTCHAR Ohorngrave
ENCODING 7900
SWIDTH 847 0
DWIDTH 10 0
BBX 11 14 0 -1
BITMAP
003642000000
05C69BCA0000
0EB000023210
0EE986461020
02A520152310
1C4100012200
7F122EB02200
9F122EC02200
9F122DC02200
9F122DC02200
9F2205311200
9F7022211100
5FFB87782000
07CFFEA20000
ENDCHAR
STARTCHAR ohorngrave
ENCODING 7901
SWIDTH 847 0
DWIDTH 10 0
BBX 11 14 0 -1
BITMAP
003642000000
05C69BCA0000
0EB000023210
0EE986461020
02A520152310
1C4100012200
7F122EB02200
9F122EC02200
9F122DC02200
9F122DC02200
9F2205311200
9F7022211100
5FFB87782000
07CFFEA20000
ENDCHAR
STARTCHAR Ohornhookabove
ENCODING 7902
SWIDTH 847 0
DWIDTH 10 0
BBX 11 14 0 -1
BITMAP
000212210000
005FC6210000
005DB3663210
0007324C1020
002000152310
0A2100012200
6F122EB02200
9F122EC02200
9F122DC02200
9F122DC02200
9F2205311200
9F8022211100
5FFC87782000
07DFFEA20000
ENDCHAR
STARTCHAR ohornhookabove
ENCODING 7903
SWIDTH 847 0
DWIDTH 10 0
BBX 11 14 0 -1
BITMAP
000212210000
005FC6210000
005DB3663210
0007324C1020
002000152310
0A2100012200
6F122EB02200
9F122EC02200
9F122DC02200
9F122DC02200
9F2205311200
9F8022211100
5FFC87782000
07DFFEA20000
ENDCHAR
STARTCHAR Ohorntilde
ENCODING 7904
SWIDTH 847 0
DWIDTH 10 0
BBX 11 14 0 -1
BITMAP
001322120000
01A022220000
0AD000022210
0CE353061020
06C520152310
1C4100012200
7F122EB02200
9F122EC02200
9F122DC02200
9F122DC02200
9F2205311200
9F7022211100
5FFB87782000
07CFFEA20000
ENDCHAR
STARTCHAR ohorntilde
ENCODING 7905
SWIDTH 847 0
DWIDTH 10 0
BBX 11 14 0 -1
BITMAP
001322120000
01A022220000
0AD000022210
0CE353061020
06C520152310
1C4100012200
7F122EB02200
9F122EC02200
9F122DC02200
9F122DC02200
9F2205311200
9F7022211100
5FFB87782000
07CFFEA20000
ENDCHAR
STARTCHAR Ohorndotbelow
ENCODING 7906
SWIDTH 847 0
DWIDTH 10 0
BBX 11 15 0 -5
BITMAP
000000023210
001222231120
044000142210
3F2105312200
8F123FC02200
9F122EC02200
9F122DC02200
9F121DB11200
9F3022220100
8FB100001000
2DFE95581000
005F61020000
003F82220000
003FFF600000
000453000000
ENDCHAR
STARTCHAR ohorndotbelow
ENCODING 7907
SWIDTH 847 0
DWIDTH 10 0
BBX 11 15 0 -5
BITMAP
000000023210
001222231120
044000142210
3F2105312200
8F123FC02200
9F122EC02200
9F122DC02200
9F121DB11200
9F3022220100
8FB100001000
2DFE95581000
005F61020000
003F82220000
003FFF600000
000453000000
ENDCHAR
STARTCHAR Udotbelow
ENCODING 7908
SWIDTH 846 0
DWIDTH 10 0
BBX 10 14 0 -5
BITMAP
0542307222
5F222AD022
8F222CD022
8F222CD022
8F222CD022
8F222CD022
8F22043112
8F40222201
6FC1000010
1CFF955810
004F710200
003F922200
003FFF7000
0004530000
ENDCHAR
STARTCHAR udotbelow
ENCODING 7909
SWIDTH 846 0
DWIDTH 10 0
BBX 10 14 0 -5
BITMAP
0542307222
5F222AD022
8F222CD022
8F222CD022
8F222CD022
8F222CD022
8F22043112
8F40222201
6FC1000010
1CFF955810
004F710200
003F922200
003FFF7000
0004530000
ENDCHAR
STARTCHAR Uhookabove
ENCODING 7910
SWIDTH 846 0
DWIDTH 10 0
BBX 10 14 0 -1
BITMAP
0000222000
001BC72210
003FF12410
0009FCD900
05424EE223
5F222AD022
8F222CD022
8F222CD022
8F222CD022
8F222CD022
8F32043112
7F80222202
3FFC877840
05CEFEB300
ENDCHAR
STARTCHAR uhookabove
ENCODING 7911
SWIDTH 846 0
DWIDTH 10 0
BBX 10 14 0 -1
BITMAP
0000222000
001BC72210
003FF12410
0009FCD900
05424EE223
5F222AD022
8F222CD022
8F222CD022
8F222CD022
8F222CD022
8F32043112
7F80222202
3FFC877840
05CEFEB300
ENDCHAR
STARTCHAR Uhornacute
ENCODING 7912
SWIDTH 856 0
DWIDTH 10 0
BBX 11 13 0 -1
BITMAP
001678760000
02B010023210
0CD1357C3020
0D524BE21220
5F222AD03200
8F222CD02200
8F222CD02200
8F222CD02200
8F222CD02200
8F3205311200
7F8022220200
4FFC87784000
06CEFEB30000
ENDCHAR
STARTCHAR uhornacute
ENCODING 7913
SWIDTH 856 0
DWIDTH 10 0
BBX 11 13 0 -1
BITMAP
001678760000
02B010023210
0CD1357C3020
0D524BE21220
5F222AD03200
8F222CD02200
8F222CD02200
8F222CD02200
8F222CD02200
8F3205311200
7F8022220200
4FFC87784000
06CEFEB30000
ENDCHAR
STARTCHAR Uhorngrave
ENCODING 7914
SWIDTH 856 0
DWIDTH 10 0
BBX 11 14 0 -1
BITMAP
001320000000
03B8CDC80000
0EB000123210
0FE864253020
0B524FE21220
5F222AD03200
8F222CD02200
8F222CD02200
8F222CD02200
8F222CD02200
8F3205311200
7F8022220200
4FFC87784000
06CEFEB30000
ENDCHAR
STARTCHAR uhorngrave
ENCODING 7915
SWIDTH 856 0
DWIDTH 10 0
BBX 11 14 0 -1
BITMAP
001320000000
03B8CDC80000
0EB000123210
0FE864253020
0B524FE21220
5F222AD03200
8F222CD02200
8F222CD02200
8F222CD02200
8F222CD02200
8F3205311200
7F8022220200
4FFC87784000
06CEFEB30000
ENDCHAR
STARTCHAR Uhornhookabove
ENCODING 7916
SWIDTH 856 0
DWIDTH 10 0
BBX 11 14 0 -1
BITMAP
000122210000
002DC7230000
004DD1263210
000BFDFF3020
05424EF21220
5F222AD03200
8F222CD02200
8F222CD02200
8F222CD02200
8F222CD02200
8F3204311200
7F8022220200
4FFC87784000
06CEFEB30000
ENDCHAR
STARTCHAR uhornhookabove
ENCODING 7917
SWIDTH 856 0
DWIDTH 10 0
BBX 11 14 0 -1
BITMAP
000122210000
002DC7230000
004DD1263210
000BFDFF3020
05424EF21220
5F222AD03200
8F222CD02200
8F222CD02200
8F222CD02200
8F222CD02200
8F3204311200
7F8022220200
4FFC87784000
06CEFEB30000
ENDCHAR
STARTCHAR Uhorntilde
ENCODING 7918
SWIDTH 856 0
DWIDTH 10 0
BBX 11 14 0 -1
BITMAP
001311120000
02A022220000
0CC000023210
0DD353083020
3E524FE21220
8F222AD03200
8F222CD02200
8F222CD02200
8F222CD02200
8F222CD02200
8F3205311200
7F8022220200
4FFC87784000
05CEFEB30000
ENDCHAR
STARTCHAR uhorntilde
ENCODING 7919
SWIDTH 856 0
DWIDTH 10 0
BBX 11 14 0 -1
BITMAP
001311120000
02A022220000
0CC000023210
0DD353083020
3E524FE21220
8F222AD03200
8F222CD02200
8F222CD02200
8F222CD02200
8F222CD02200
8F3205311200
7F8022220200
4FFC87784000
05CEFEB30000
ENDCHAR
STARTCHAR Uhorndotbelow
ENCODING 7920
SWIDTH 856 0
DWIDTH 10 0
BBX 11 15 0 -5
BITMAP
000000013210
054230511220
5F2229D03200
8F222CD02200
8F222CD02200
8F222CD02200
8F222CD02200
8F2204311200
8F4022220100
6FC100001000
1CFF95581000
004F71020000
003F92220000
003FFF700000
000453000000
ENDCHAR
STARTCHAR uhorndotbelow
ENCODING 7921
SWIDTH 856 0
DWIDTH 10 0
BBX 11 15 0 -5
BITMAP
000000013210
054230511220
5F2229D03200
8F222CD02200
8F222CD02200
8F222CD02200
8F222CD02200
8F2204311200
8F4022220100
6FC100001000
1CFF95581000
004F71020000
003F92220000
003FFF700000
000453000000
ENDCHAR
STARTCHAR Ygrave
ENCODING 7922
SWIDTH 805 0
DWIDTH 10 0
BBX 10 13 0 -1
BITMAP
0056555500
07F0222120
0BF8642110
0A227EB222
9E022DA102
BE022F9102
BF121D3202
BF80201120
5FF5131110
09FE120200
00CF310200
007F965100
006FFC2000
ENDCHAR
STARTCHAR ygrave
ENCODING 7923
SWIDTH 805 0
DWIDTH 10 0
BBX 10 13 0 -1
BITMAP
0056555500
07F0222120
0BF8642110
0A227EB222
9E022DA102
BE022F9102
BF121D3202
BF80201120
5FF5131110
09FE120200
00CF310200
007F965100
006FFC2000
ENDCHAR
STARTCHAR Ydotbelow
ENCODING 7924
SWIDTH 805 0
DWIDTH 10 0
BBX 10 14 0 -5
BITMAP
0722317222
9E022DA102
BE022F9102
BF121D3202
AF90201120
3FF6131110
06FF220200
00AF310200
007FA77000
006F300100
004F310200
007F621100
006FFE2000
0015520000
ENDCHAR
STARTCHAR ydotbelow
ENCODING 7925
SWIDTH 805 0
DWIDTH 10 0
BBX 10 14 0 -5
BITMAP
0722317222
9E022DA102
BE022F9102
BF121D3202
AF90201120
3FF6131110
06FF220200
00AF310200
007FA77000
006F300100
004F310200
007F621100
006FFE2000
0015520000
ENDCHAR
STARTCHAR Yhookabove
ENCODING 7926
SWIDTH 805 0
DWIDTH 10 0
BBX 10 14 0 -1
BITMAP
0002122000
005E962100
00AF823400
002EDCD300
07227D8222
8E022DA102
BE022F9102
BF121D3202
BF80201120
5FF5131110
09FE120200
00CF310200
007F965100
006FFC2000
ENDCHAR
STARTCHAR yhookabove
ENCODING 7927
SWIDTH 805 0
DWIDTH 10 0
BBX 10 14 0 -1
BITMAP
0002122000
005E962100
00AF823400
002EDCD300
07227D8222
8E022DA102
BE022F9102
BF121D3202
BF80201120
5FF5131110
09FE120200
00CF310200
007F965100
006FFC2000
ENDCHAR
STARTCHAR Ytilde
ENCODING 7928
SWIDTH 805 0
DWIDTH 10 0
BBX 10 13 0 -1
BITMAP
0002222210
01B1222020
08F3420010
0A227FB222
8E022EA102
BE022F9102
BF121D3202
BF80201120
5FF5131110
09FE120200
00CF310200
007F965100
006FFC2000
ENDCHAR
STARTCHAR ytilde
ENCODING 7929
SWIDTH 805 0
DWIDTH 10 0
BBX 10 13 0 -1
BITMAP
0002222210
01B1222020
08F3420010
0A227FB222
8E022EA102
BE022F9102
BF121D3202
BF80201120
5FF5131110
09FE120200
00CF310200
007F965100
006FFC2000
ENDCHAR
STARTCHAR enspace
ENCODING 8192
SWIDTH 500 0
DWIDTH 6 0
BBX 1 1 0 0
BITMAP
00
ENDCHAR
STARTCHAR emspace
ENCODING 8193
SWIDTH 1000 0
DWIDTH 12 0
BBX 1 1 0 0
BITMAP
00
ENDCHAR
STARTCHAR uni2002
ENCODING 8194
SWIDTH 500 0
DWIDTH 6 0
BBX 1 1 0 0
BITMAP
00
ENDCHAR
STARTCHAR uni2003
ENCODING 8195
SWIDTH 1000 0
DWIDTH 12 0
BBX 1 1 0 0
BITMAP
00
ENDCHAR
STARTCHAR space.tab_en
ENCODING 8199
SWIDTH 1100 0
DWIDTH 13 0
BBX 1 1 0 0
BITMAP
00
ENDCHAR
STARTCHAR uni2010
ENCODING 8208
SWIDTH 520 0
DWIDTH 6 0
BBX 7 5 0 1
BITMAP
02222200
5C021110
CE222310
CFFFE400
35552000
ENDCHAR
STARTCHAR figuredash
ENCODING 8210
SWIDTH 834 0
DWIDTH 10 0
BBX 10 5 0 1
BITMAP
0132222221
2C31222202
7F52222223
7FFFFFFF90
1555555400
ENDCHAR
STARTCHAR endash
ENCODING 8211
SWIDTH 834 0
DWIDTH 10 0
BBX 10 5 0 1
BITMAP
0132222221
2C31222202
7F52222223
7FFFFFFF90
1555555400
ENDCHAR
STARTCHAR emdash
ENCODING 8212
SWIDTH 1234 0
DWIDTH 15 0
BBX 15 5 0 1
BITMAP
0132222222222210
2C31222222222020
7F52222222222220
7FFFFFFFFFFFF700
1555555555553000
ENDCHAR
STARTCHAR horizontalbar
ENCODING 8213
SWIDTH 1234 0
DWIDTH 15 0
BBX 15 5 0 1
BITMAP
0132222222222210
2C31222222222020
7F52222222222220
7FFFFFFFFFFFF700
1555555555553000
ENDCHAR
STARTCHAR quoteleft
ENCODING 8216
SWIDTH 484 0
DWIDTH 6 0
BBX 6 7 0 2
BITMAP
003432
0A3372
6F3002
9F2212
9F3221
9FFF70
244300
ENDCHAR
STARTCHAR quoteright
ENCODING 8217
SWIDTH 484 0
DWIDTH 6 0
BBX 6 7 0 2
BITMAP
063222
7F1222
9F1022
8F6413
5FA970
6FF800
021000
ENDCHAR
STARTCHAR quotesinglbase
ENCODING 8218
SWIDTH 484 0
DWIDTH 6 0
BBX 6 7 0 -3
BITMAP
012221
2D1002
9F1222
9FA622
7F3221
6FDA20
387100
ENDCHAR
STARTCHAR quotedblleft
ENCODING 8220
SWIDTH 784 0
DWIDTH 9 0
BBX 10 7 0 2
BITMAP
0034354430
1B248D2570
8E20092002
BE12181202
BE222A2221
BFFFFFFE30
2443344200
ENDCHAR
STARTCHAR quotedblright
ENCODING 8221
SWIDTH 784 0
DWIDTH 9 0
BBX 10 7 0 2
BITMAP
0722272221
9E02181212
BE00290022
9F542D4321
7F99BF9940
8FE5BFE400
0200120000
ENDCHAR
STARTCHAR quotedblbase
ENCODING 8222
SWIDTH 784 0
DWIDTH 9 0
BBX 10 7 0 -3
BITMAP
0222222221
3C00080002
BE02291212
BF952C8321
8F224E1220
8FDACFC810
4871586000
ENDCHAR
STARTCHAR dagger
ENCODING 8224
SWIDTH 818 0
DWIDTH 10 0
BBX 10 10 0 -1
BITMAP
0004622200
005F621110
0A12120212
9F02242212
AF56421652
AEDF822E60
002F721100
003F610200
004FA65100
004FFC2000
ENDCHAR
STARTCHAR daggerdbl
ENCODING 8225
SWIDTH 818 0
DWIDTH 10 0
BBX 10 10 0 -1
BITMAP
0017723221
1A00120102
AF02242212
AF99521A60
5979421821
3D02242212
AF00020002
AFBC611DB3
7AAFA75920
004FFC2000
ENDCHAR
STARTCHAR bullet
ENCODING 8226
SWIDTH 543 0
DWIDTH 7 0
BBX 7 7 0 0
BITMAP
02222210
3D032120
BE021120
BE032120
BE222220
BFFFF600
24442000
ENDCHAR
STARTCHAR ellipsis
ENCODING 8230
SWIDTH 1210 0
DWIDTH 15 0
BBX 15 5 0 -1
BITMAP
0122234223522210
3D120A6015B02020
9F100A6005B00020
9F766DA66AD66510
8FFE7FFF8DFFC200
ENDCHAR
STARTCHAR perthousand
ENCODING 8240
SWIDTH 1517 0
DWIDTH 18 0
BBX 19 10 0 -1
BITMAP
02334467230000000000
3C2562D4220000000000
BD2562C2120000000000
CE2002A2112220122200
BF744782522217122110
7FFFCF42933828265220
03435F11D33928265220
00009B02F2221A122120
0000DD89FC77AFB77400
0000FF83DFE86EFD5000
ENDCHAR
STARTCHAR minute
ENCODING 8242
SWIDTH 456 0
DWIDTH 5 0
BBX 6 7 0 2
BITMAP
044222
4F2102
8F2211
8F1120
9F3230
9FFD20
244100
ENDCHAR
STARTCHAR second
ENCODING 8243
SWIDTH 766 0
DWIDTH 9 0
BBX 9 7 0 2
BITMAP
0442282230
4F210D0120
8F221D0220
8F112C0120
9F326D2220
9FFDEFFA00
2441344000
ENDCHAR
STARTCHAR guilsinglleft
ENCODING 8249
SWIDTH 663 0
DWIDTH 8 0
BBX 8 9 0 -1
BITMAP
00000020
00122202
04312202
4F223871
8F220221
8F802202
6FFEB852
05ADFF50
00001200
ENDCHAR
STARTCHAR guilsinglright
ENCODING 8250
SWIDTH 663 0
DWIDTH 8 0
BBX 8 9 0 -1
BITMAP
00210000
07512220
4F512202
5FD97022
2C941112
1C512121
5F869B30
5FEB7100
02000000
ENDCHAR
STARTCHAR fraction
ENCODING 8260
SWIDTH 417 0
DWIDTH 5 0
BBX 7 10 -1 -1
BITMAP
00062220
008B2110
00D82200
01F52200
04F22200
07E02200
0AC20200
0C912000
0FB64000
2FF80000
ENDCHAR
STARTCHAR zero.sups
ENCODING 8304
SWIDTH 656 0
DWIDTH 8 0
BBX 8 9 0 0
BITMAP
01233310
19202120
7A25F111
8A24F111
8A24E111
8B022110
6F500120
1BFFD600
00110000
ENDCHAR
STARTCHAR foursuperior
ENCODING 8308
SWIDTH 608 0
DWIDTH 7 0
BBX 7 8 0 1
BITMAP
07237230
9D22E220
CD22E220
CE217220
BF643320
9FFFE120
044CFB40
00069500
ENDCHAR
STARTCHAR five.sups
ENCODING 8309
SWIDTH 593 0
DWIDTH 7 0
BBX 7 8 0 1
BITMAP
06343320
6F210020
8F218920
8F221120
8FCB9120
5F333450
9FFFF800
25542000
ENDCHAR
STARTCHAR six.sups
ENCODING 8310
SWIDTH 628 0
DWIDTH 8 0
BBX 8 9 0 0
BITMAP
00343320
0A220020
6F119A30
9F131121
9F11E212
9F513112
8FFA9A70
1CFFE500
00110000
ENDCHAR
STARTCHAR seven.sups
ENCODING 8311
SWIDTH 577 0
DWIDTH 7 0
BBX 7 8 0 1
BITMAP
07233320
AD221220
CFFE6210
35821010
0B724300
3F823000
3FFB1000
05400000
ENDCHAR
STARTCHAR eight.sups
ENCODING 8312
SWIDTH 638 0
DWIDTH 8 0
BBX 8 9 0 0
BITMAP
00333320
08610120
4F61C220
4F623221
5E11E411
AF223213
AFEA9A90
4DFFE700
00110000
ENDCHAR
STARTCHAR nine.sups
ENCODING 8313
SWIDTH 628 0
DWIDTH 8 0
BBX 8 9 0 0
BITMAP
00343420
1B100021
9E11E112
BF313312
9FEA9012
1B911111
1FA22320
1FFFF600
04542000
ENDCHAR
STARTCHAR parenleft.sups
ENCODING 8317
SWIDTH 434 0
DWIDTH 5 0
BBX 5 10 0 0
BITMAP
001110
061120
791420
A81100
A81100
A81100
A91110
9E3110
3EFC20
001000
ENDCHAR
STARTCHAR parenright.sups
ENCODING 8318
SWIDTH 435 0
DWIDTH 5 0
BBX 5 10 0 0
BITMAP
031100
791210
9F7210
0B8210
0A8210
0A8210
072210
791210
9FC300
110000
ENDCHAR
STARTCHAR n.sups
ENCODING 8319
SWIDTH 673 0
DWIDTH 8 0
BBX 8 8 0 1
BITMAP
01233320
1A129111
6C14F211
7C12F211
7C12F211
7C02F201
6FD4FE80
02101100
ENDCHAR
STARTCHAR zero.sinf
ENCODING 8320
SWIDTH 656 0
DWIDTH 8 0
BBX 8 9 0 -2
BITMAP
01233310
19202120
7A25F111
8A24F111
8A24E111
8B022110
6F500120
1BFFD600
00110000
ENDCHAR
STARTCHAR one.sinf
ENCODING 8321
SWIDTH 557 0
DWIDTH 7 0
BBX 7 8 0 -1
BITMAP
06443200
6F712200
8FF42200
07F42200
06922210
5E234330
BFFFFB10
35554000
ENDCHAR
STARTCHAR two.sinf
ENCODING 8322
SWIDTH 585 0
DWIDTH 7 0
BBX 7 8 0 -1
BITMAP
06443320
6FBA5220
6E921220
19121410
9D218320
CD344330
CFFFFC20
35555100
ENDCHAR
STARTCHAR three.sinf
ENCODING 8323
SWIDTH 584 0
DWIDTH 7 0
BBX 7 8 0 -1
BITMAP
07244200
7F000120
BFCA2220
5CA12220
0FDB8220
3E244440
BFFFF700
35542000
ENDCHAR
STARTCHAR four.sinf
ENCODING 8324
SWIDTH 620 0
DWIDTH 7 0
BBX 7 8 0 -1
BITMAP
07237230
AC23D220
DC23D220
DD217220
DF543320
AFFFD120
044DFB40
00079400
ENDCHAR
STARTCHAR five.sinf
ENCODING 8325
SWIDTH 593 0
DWIDTH 7 0
BBX 7 8 0 -1
BITMAP
06343320
6F210020
8F218920
8F221120
8FCB9120
5F333450
9FFFF800
25542000
ENDCHAR
STARTCHAR six.sinf
ENCODING 8326
SWIDTH 628 0
DWIDTH 8 0
BBX 8 9 0 -2
BITMAP
00343320
0A220020
6F119A30
9F131121
9F11E212
9F513112
8FFA9A70
1CFFE500
00110000
ENDCHAR
STARTCHAR seven.sinf
ENCODING 8327
SWIDTH 577 0
DWIDTH 7 0
BBX 7 8 0 -1
BITMAP
07233320
AD221220
CFFE6210
35821010
0B724300
3F823000
3FFB1000
05400000
ENDCHAR
STARTCHAR eight.sinf
ENCODING 8328
SWIDTH 638 0
DWIDTH 8 0
BBX 8 9 0 -2
BITMAP
00333320
08610120
4F61C220
4F623221
5E11E411
AF223213
AFEA9A90
4DFFE700
00110000
ENDCHAR
STARTCHAR nine.sinf
ENCODING 8329
SWIDTH 628 0
DWIDTH 8 0
BBX 8 9 0 -2
BITMAP
00343420
1B100021
9E11E112
BF313312
9FEA9012
1B911111
1FA22320
1FFFF600
04542000
ENDCHAR
STARTCHAR parenleft.sinf
ENCODING 8333
SWIDTH 434 0
DWIDTH 5 0
BBX 5 10 0 -2
BITMAP
001110
061120
791420
A81100
A81100
A81100
A91110
9E3110
3EFC20
001000
ENDCHAR
STARTCHAR parenright.sinf
ENCODING 8334
SWIDTH 435 0
DWIDTH 5 0
BBX 5 10 0 -2
BITMAP
031100
791210
9F7210
0B8210
0A8210
0A8210
072210
791210
9FC300
110000
ENDCHAR
STARTCHAR colonsign
ENCODING 8353
SWIDTH 728 0
DWIDTH 9 0
BBX 9 13 0 -3
BITMAP
0000312100
0009653200
0074101320
0A41223120
5F12022230
8F122FF900
9F12254000
9F22122210
8F61222020
5FE8322230
0AFF886500
004FEF9000
0004140000
ENDCHAR
STARTCHAR lira
ENCODING 8356
SWIDTH 795 0
DWIDTH 10 0
BBX 10 10 0 -1
BITMAP
0011122300
0451221200
2E320AC700
6A03116000
DD12042221
DA14218002
EE22097102
9F32222302
7F86666651
6FFFFFFD20
ENDCHAR
STARTCHAR naira
ENCODING 8358
SWIDTH 853 0
DWIDTH 10 0
BBX 11 10 0 -1
BITMAP
044221822200
4F3314D02200
7D2211302110
7A0302003020
DD2211202210
DA032C023020
FF322FA02300
8F312FE01200
7F865BF66400
6FFA1AFF7000
ENDCHAR
STARTCHAR peseta
ENCODING 8359
SWIDTH 812 0
DWIDTH 10 0
BBX 11 10 -1 -1
BITMAP
004422222100
04F322221110
07D221C62030
08A031F72130
1FF320002140
0BF322445500
07F321FE6000
07F301410000
07F964000000
06FFA0000000
ENDCHAR
STARTCHAR dong
ENCODING 8363
SWIDTH 782 0
DWIDTH 9 0
BBX 10 13 0 -4
BITMAP
0000342221
0008712312
003FDB0240
0152222220
2C02000220
9D01BF0220
CD02AC1220
CF11222010
AFB2001300
2CC9AA9200
1D82222300
3FFFFFD300
0455551000
ENDCHAR
STARTCHAR Euro
ENCODING 8364
SWIDTH 748 0
DWIDTH 9 0
BBX 9 10 0 -1
BITMAP
0011122230
0370222120
1D42067930
5D03221200
CE22088300
AD03221200
CF52067420
8FA0222120
3FFB766640
06DFFFF800
ENDCHAR
STARTCHAR peso
ENCODING 8369
SWIDTH 812 0
DWIDTH 10 0
BBX 10 10 0 -1
BITMAP
0442222220
4D21000103
7A031C6312
DD121F7204
DA03000211
DF32244530
7F321FE600
7F30141000
7F86400000
6FFA000000
ENDCHAR
STARTCHAR guarani
ENCODING 8370
SWIDTH 788 0
DWIDTH 9 0
BBX 10 12 0 -2
BITMAP
0000322100
0007410310
0141232120
1C22012230
7F124FFC10
9F12389100
9F122B6102
9F32162202
7FA1232202
2EFE500B70
03AFDA8700
002BB80000
ENDCHAR
STARTCHAR cedi
ENCODING 8373
SWIDTH 728 0
DWIDTH 9 0
BBX 9 13 0 -3
BITMAP
0000322000
0009600100
0099310620
0A61232120
5F22022230
8F122FF900
9F12254000
9F22122210
8F61222020
5FF9310430
0AFF822800
004FFE5000
0004520000
ENDCHAR
STARTCHAR indianrupee
ENCODING 8377
SWIDTH 713 0
DWIDTH 9 0
BBX 9 10 0 -1
BITMAP
1824454220
AF33120220
6F78532510
9F00020020
AFA9421700
6F24432110
AFFFF72020
2557F80020
0003FB6620
0002FFD300
ENDCHAR
STARTCHAR turkishlira
ENCODING 8378
SWIDTH 795 0
DWIDTH 10 0
BBX 11 10 -1 -1
BITMAP
007323000000
07F121200000
099132400000
1EC132222210
1E82319A0020
1EE122DA1020
1DF121842010
09F122221100
09F866675000
08FFFFD60000
ENDCHAR
STARTCHAR ruble
ENCODING 8381
SWIDTH 782 0
DWIDTH 9 0
BBX 10 10 0 -1
BITMAP
0542222220
5F32242111
7F321F8202
7F32052202
7F33222130
7E2208B910
7914216000
FD11030000
EF96400000
6FFA100000
ENDCHAR
STARTCHAR liter
ENCODING 8467
SWIDTH 749 0
DWIDTH 9 0
BBX 9 11 0 -2
BITMAP
0012222200
0541222020
3F22370120
8F125B0220
9F12112020
9F13221310
9F122BA200
9F42221200
8FD3000200
2EFFFFC200
0156661000
ENDCHAR
STARTCHAR uni2117
ENCODING 8471
SWIDTH 967 0
DWIDTH 12 0
BBX 12 13 0 -3
BITMAP
000224443200
004368986330
1C579778CA31
6F3B33221C22
8F3B32C32B22
8F3B32521B22
8F3B33337D22
8F3B32DACD22
8F4A7440CC22
8F74A6229530
5FE842223510
09FFFEEEC200
002677630000
ENDCHAR
STARTCHAR uni2120
ENCODING 8480
SWIDTH 1003 0
DWIDTH 12 0
BBX 12 7 0 2
BITMAP
012223422322
2A2358733532
BD234B722222
CF9533725622
8D343372CD12
AE777CB6DE74
CFFD5FD3BF80
ENDCHAR
STARTCHAR trademark
ENCODING 8482
SWIDTH 1003 0
DWIDTH 12 0
BBX 13 7 -1 2
BITMAP
00522234223220
0BA43347335320
1FFD26F7222220
04DD26F7256220
00CD16F72CD120
00CE77FB6DE740
00BF83FD3BF800
ENDCHAR
STARTCHAR Omega
ENCODING 8486
SWIDTH 877 0
DWIDTH 11 0
BBX 11 11 0 -2
BITMAP
001222222100
026022220200
1D5205602200
4F520EF12200
5F520BF12200
5F520BF12200
5F620AD02210
5C0234632020
CD0005600020
DFFFFFFFF900
466626665000
ENDCHAR
STARTCHAR estimated
ENCODING 8494
SWIDTH 815 0
DWIDTH 10 0
BBX 10 11 0 -2
BITMAP
0012222220
0441222202
3F12273202
9F02385112
AF03222212
AF02244442
AF023BBB70
AF32222120
7FC3000020
1DFFFFFB10
0156666000
ENDCHAR
STARTCHAR onethird
ENCODING 8531
SWIDTH 1269 0
DWIDTH 15 0
BBX 15 10 0 -1
BITMAP
0544321822200000
5F7122AB20100000
8FF422E822322200
29F423F526322120
069224D329DA4220
4D2343A119D12320
BFFFFFC20DECB210
35554D902C322220
00001FB69F866630
00002FF87FFFD300
ENDCHAR
STARTCHAR twothirds
ENCODING 8532
SWIDTH 1269 0
DWIDTH 15 0
BBX 15 10 0 -1
BITMAP
0544344922200000
5F97427B20100000
7FB5327822322200
281315E526322120
6D2185B329DA4220
CD32227119D12330
CFFFFFC20DECB210
35555E902C322220
00001FB69F866630
00002FF87FFFD400
ENDCHAR
STARTCHAR oneeighth
ENCODING 8539
SWIDTH 1283 0
DWIDTH 15 0
BBX 16 10 0 -1
BITMAP
0844322932200000
8FD322BB20000000
3BF422E822532110
06F423F52632C120
1B2021A329501130
9F2343A119132320
BFFFFFC20A25E112
35554D902C123201
00000FB69FA55510
00002FF87DFEB200
ENDCHAR
STARTCHAR threeeighths
ENCODING 8540
SWIDTH 1293 0
DWIDTH 16 0
BBX 16 10 0 -1
BITMAP
1924431732200000
AF4302AD20100000
5BC733BA21621100
0EDB82572442D120
0E00025427611130
5E3444B129122311
BFFFFDE11A13E212
35541BB01D123201
00000EC68FB55510
00000EFA6DFFC300
ENDCHAR
STARTCHAR fiveeighths
ENCODING 8541
SWIDTH 1303 0
DWIDTH 16 0
BBX 16 10 0 -1
BITMAP
0634333842200000
6F2189CE11100000
8F22114C20632210
8F2001392261C220
8F10014625811130
5F3334B328232212
9FFFFCF12A12E412
255429D00D123211
00000CD67FC65520
00000DFB6DFFD500
ENDCHAR
STARTCHAR seveneighths
ENCODING 8542
SWIDTH 1241 0
DWIDTH 15 0
BBX 15 10 0 -1
BITMAP
1923337723000000
CD22128421000000
68CB429126322100
069159D208195220
1F725EA21C110310
3F834F7245223120
3FFB4F42731C8120
05406F10A4132110
00008F66ED755300
00009FD5BEFD7000
ENDCHAR
STARTCHAR arrowleft
ENCODING 8592
SWIDTH 1100 0
DWIDTH 13 0
BBX 11 9 1 -1
BITMAP
000000230000
000012020000
000212222210
015030322020
1DE412213220
1CFF9116F600
008FFD433000
0003DFE30000
000007200000
ENDCHAR
STARTCHAR arrowup
ENCODING 8593
SWIDTH 1100 0
DWIDTH 13 0
BBX 9 10 2 -1
BITMAP
0000020000
0001602000
000A121100
0075211200
02A0323020
0C20020020
7FFF627E50
369F514300
005FA74000
005EE80000
ENDCHAR
STARTCHAR arrowright
ENCODING 8594
SWIDTH 1100 0
DWIDTH 13 0
BBX 11 9 1 -1
BITMAP
000033200000
0004F2021000
003591311200
099122212020
1FA230320310
1FFFF2126000
0449F2540000
0008F9100000
000450000000
ENDCHAR
STARTCHAR arrowdown
ENCODING 8595
SWIDTH 1100 0
DWIDTH 13 0
BBX 9 10 2 -1
BITMAP
0000221000
0008402000
006F522000
0345221230
5F61233020
7FE2202210
0CFB131200
03FF602000
007FE51000
000B900000
ENDCHAR
STARTCHAR arrowupleft
ENCODING 8598
SWIDTH 1100 0
DWIDTH 13 0
BBX 9 9 2 -1
BITMAP
0032210000
1B51012210
6F72131110
4FA2130200
1FD0212110
0DF1391020
0AF8EF8300
06C26F8000
0000020000
ENDCHAR
STARTCHAR arrowupright
ENCODING 8599
SWIDTH 1100 0
DWIDTH 13 0
BBX 9 9 2 -1
BITMAP
0000022220
0032201120
0AC1221220
1EFB042020
03C2203110
07611A1200
5FF6BFC300
0AF53E7000
0020000000
ENDCHAR
STARTCHAR arrowdownright
ENCODING 8600
SWIDTH 1100 0
DWIDTH 13 0
BBX 9 9 2 -1
BITMAP
0002101100
0050232200
0B91211200
4FF9133020
06E4211120
0390022120
2EFFC96330
058BEFF900
0000023000
ENDCHAR
STARTCHAR arrowdownleft
ENCODING 8601
SWIDTH 1100 0
DWIDTH 13 0
BBX 9 9 2 -1
BITMAP
0002002200
0092251110
07E0112120
0AB0331200
0D82012200
1F51220120
4F747AD700
6FFDA73000
1310000000
ENDCHAR
STARTCHAR uni21AA
ENCODING 8618
SWIDTH 1100 0
DWIDTH 13 0
BBX 11 12 1 -2
BITMAP
000022222100
003212221200
059212222300
1E826FFFB100
2F824C460000
2F827F202100
2F9214121120
2FD222233020
0DFECB311510
029BCF145000
00008F730000
0000A7000000
ENDCHAR
STARTCHAR uni21AB
ENCODING 8619
SWIDTH 1100 0
DWIDTH 13 0
BBX 11 12 1 -2
BITMAP
000122222000
005612221210
02F822221220
03FFFFFF6220
0044464E7220
0001202F7220
002112141220
077033222110
4FF9113BB300
08FFD4192000
003DFF910000
00008B200000
ENDCHAR
STARTCHAR uni21B0
ENCODING 8624
SWIDTH 1100 0
DWIDTH 13 0
BBX 11 11 1 -2
BITMAP
000000210000
000012100000
000210222000
023023220300
3EB122122120
4FFE504F1220
02CFFA3F2220
0007FFDF2220
0000238F2020
0000008FF800
000000364000
ENDCHAR
STARTCHAR uni21B1
ENCODING 8625
SWIDTH 1100 0
DWIDTH 13 0
BBX 10 11 2 -2
BITMAP
0000220000
0005D02100
000CC20120
0321223202
5A11313122
EA25F10620
FA25D36100
FA25D40000
FA03100000
FFD3000000
6610000000
ENDCHAR
STARTCHAR uni21B2
ENCODING 8626
SWIDTH 1100 0
DWIDTH 13 0
BBX 11 11 1 -2
BITMAP
000000012210
0000002C2120
0000006F2220
0000122F2220
0002114B1220
023033222110
3EB112135300
4FFE504E5000
02CFFA310000
0007FF600000
000023000000
ENDCHAR
STARTCHAR uni21B3
ENCODING 8627
SWIDTH 1100 0
DWIDTH 13 0
BBX 11 11 1 -2
BITMAP
003210000000
096020000000
4F6222100000
4F627A120000
4F625B012200
4F9122232120
3FF743030310
0AFFFC016100
0023D9450000
0001FB200000
000050000000
ENDCHAR
STARTCHAR partialdiff
ENCODING 8706
SWIDTH 792 0
DWIDTH 10 0
BBX 10 11 0 -2
BITMAP
0042222210
07D0222120
0CE5550211
0CE9782202
0531221302
4E02282302
AE024F3202
BF12101210
AFA1121120
5FFFDCD500
0389972000
ENDCHAR
STARTCHAR Delta
ENCODING 8710
SWIDTH 830 0
DWIDTH 10 0
BBX 10 11 0 -2
BITMAP
0003222210
00A4222020
05F0220220
09B11B2220
0D720E6202
2F423F9102
5F124B8022
8F03222222
AF10000002
AFFFFFFFC1
3666666600
ENDCHAR
STARTCHAR product
ENCODING 8719
SWIDTH 859 0
DWIDTH 10 0
BBX 10 11 0 -2
BITMAP
0232222222
3E32222212
7F32055022
7F321FE022
7F321CE022
7F321CE022
7F321CE022
7F321CE022
7F401CE002
7FFE5BFFD2
2663046610
ENDCHAR
STARTCHAR summation
ENCODING 8721
SWIDTH 750 0
DWIDTH 9 0
BBX 9 12 0 -3
BITMAP
0232222220
3E22222120
8F22025520
8F9020A600
5FFA020200
06FE220200
0073202000
0532132210
5E03222120
BE00000020
BFEEEEEC30
5888888100
ENDCHAR
STARTCHAR minus
ENCODING 8722
SWIDTH 834 0
DWIDTH 10 0
BBX 10 5 0 1
BITMAP
0032222221
1C31222202
7F63333332
7FFFFFFF70
1333333200
ENDCHAR
STARTCHAR uni2215
ENCODING 8725
SWIDTH 417 0
DWIDTH 5 0
BBX 7 10 -1 -1
BITMAP
00062220
008B2110
00D82200
01F52200
04F22200
07E02200
0AC20200
0C912000
0FB64000
2FF80000
ENDCHAR
STARTCHAR uni2219
ENCODING 8729
SWIDTH 464 0
DWIDTH 6 0
BBX 6 5 0 2
BITMAP
022221
4D0202
BE0002
BF6662
AFFD30
ENDCHAR
STARTCHAR radical
ENCODING 8730
SWIDTH 841 0
DWIDTH 10 0
BBX 11 12 0 -2
BITMAP
000000042210
000000B61110
000003F32200
001116E02200
18102AB11200
CB030C821100
EE9027522000
BEF520022000
07FB12212000
02FF20011000
00BFFFE40000
002666200000
ENDCHAR
STARTCHAR infinity
ENCODING 8734
SWIDTH 978 0
DWIDTH 12 0
BBX 12 9 0 -1
BITMAP
002222222220
062222122212
6E027443A122
BE02C934F222
BE029732C122
BF1222122212
AFC646B64440
4EFFDDFFF800
002200231000
ENDCHAR
STARTCHAR integral
ENCODING 8747
SWIDTH 574 0
DWIDTH 7 0
BBX 8 13 -1 -3
BITMAP
00001123
00062112
005E0215
00BD0241
00CD0220
00CD0220
00CD0220
00CD0220
00B90220
05812120
1F900310
2FFEB100
07740000
ENDCHAR
STARTCHAR approxequal
ENCODING 8776
SWIDTH 834 0
DWIDTH 10 0
BBX 10 8 0 0
BITMAP
0012222221
0641222102
5F42310112
7FFFFFED60
2761124422
2D31222202
7F9AB97661
6DBBDFEA10
ENDCHAR
STARTCHAR notequal
ENCODING 8800
SWIDTH 834 0
DWIDTH 10 0
BBX 10 11 0 -2
BITMAP
0000022100
0022621221
0931224202
6F40011002
7FFFA20FA1
2885321522
2D31232202
7F96013662
6FFF65CE40
009FE50000
0001100000
ENDCHAR
STARTCHAR lessequal
ENCODING 8804
SWIDTH 814 0
DWIDTH 10 0
BBX 9 11 0 -2
BITMAP
0000012230
0002211120
0151221140
1D5218CB10
4F62035210
5FB1222120
2FDB720120
0A51222120
4F60000020
5FFFFFFE40
1666666200
ENDCHAR
STARTCHAR greaterequal
ENCODING 8805
SWIDTH 814 0
DWIDTH 10 0
BBX 10 11 0 -2
BITMAP
0152210000
1D71112210
3FA2022120
2FFFD93201
027C951211
0360222130
2E71015820
3F71222202
3F70000011
3FFFFFFF60
1666666300
ENDCHAR
STARTCHAR block
ENCODING 9608
SWIDTH 1000 0
DWIDTH 12 0
BBX 14 14 -1 -3
BITMAP
5AAAAAAAAAAAA5
7FFFFFFFFFFFF7
7FFFFFFFFFFFF7
7FFFFFFFFFFFF7
7FFFFFFFFFFFF7
7FFFFFFFFFFFF7
7FFFFFFFFFFFF7
7FFFFFFFFFFFF7
7FFFFFFFFFFFF7
7FFFFFFFFFFFF7
7FFFFFFFFFFFF7
7FFFFFFFFFFFF7
6DDDDDDDDDDDD6
12222222222221
ENDCHAR
STARTCHAR blacksquare
ENCODING 9632
SWIDTH 1100 0
DWIDTH 13 0
BBX 8 8 3 0
BITMAP
00111110
18111111
CB022102
EB020202
EB022202
EB000002
EEAAAA60
9BBBB800
ENDCHAR
STARTCHAR blackuppointingtriangle
ENCODING 9650
SWIDTH 1100 0
DWIDTH 13 0
BBX 9 8 2 0
BITMAP
0000020000
0000612000
000A301000
0058030200
01C1322110
0850000020
3FCAAAAA50
5BBBBBB600
ENDCHAR
STARTCHAR whiteuppointingtriangle
ENCODING 9651
SWIDTH 1100 0
DWIDTH 13 0
BBX 7 7 4 1
BITMAP
00020000
00433000
01304000
04000400
31000310
40000040
44444430
ENDCHAR
STARTCHAR blackrightpointingtriangle
ENCODING 9654
SWIDTH 1100 0
DWIDTH 13 0
BBX 8 9 3 -1
BITMAP
05210000
AA012000
FA020210
FA023011
FA030230
FA006500
FB471000
FD400000
40000000
ENDCHAR
STARTCHAR whiterightpointingtriangle
ENCODING 9655
SWIDTH 1100 0
DWIDTH 13 0
BBX 7 7 4 1
BITMAP
34100000
40340000
40004200
40000310
40003400
40142000
44300000
ENDCHAR
STARTCHAR blackdownpointingtriangle
ENCODING 9660
SWIDTH 1100 0
DWIDTH 13 0
BBX 9 8 2 0
BITMAP
0022222210
0930000020
7FB0322120
2FF5030200
08FE101100
01DF902000
004FF60000
0008600000
ENDCHAR
STARTCHAR whitedownpointingtriangle
ENCODING 9661
SWIDTH 1100 0
DWIDTH 13 0
BBX 7 7 4 1
BITMAP
23333320
41111140
40000220
04000400
03203100
00413000
00140000
ENDCHAR
STARTCHAR blackleftpointingtriangle
ENCODING 9664
SWIDTH 1100 0
DWIDTH 13 0
BBX 8 9 3 -1
BITMAP
00000121
00012102
00210202
07003202
BF811202
9FFD5002
04DFFB32
0007EF60
00002300
ENDCHAR
STARTCHAR whiteleftpointingtriangle
ENCODING 9665
SWIDTH 1100 0
DWIDTH 13 0
BBX 7 7 4 1
BITMAP
00002420
00142130
04300130
41000130
14100130
00340130
00004430
ENDCHAR
STARTCHAR blackdiamond
ENCODING 9670
SWIDTH 1100 0
DWIDTH 13 0
BBX 9 9 2 -1
BITMAP
0000221000
0002101100
0021130110
0510203020
6F70221020
8FF7000200
08FF702000
008FF40000
0007400000
ENDCHAR
STARTCHAR lozenge
ENCODING 9674
SWIDTH 831 0
DWIDTH 10 0
BBX 10 11 0 -2
BITMAP
0003222200
0076122020
02E1210220
08821B4211
1E322F9112
6F620D6202
6FC0241220
1EF4222020
08FB000200
02FFFFD200
0046661000
ENDCHAR
STARTCHAR uni25D6
ENCODING 9686
SWIDTH 546 0
DWIDTH 7 0
BBX 7 14 0 -3
BITMAP
000269A0
007DFFF0
07EFFFF0
3DFFFFF0
8FFFFFF0
BFFFFFF0
DFFFFFF0
CFFFFFF0
9FFFFFF0
5EFFFFF0
0AFFFFF0
02AFFFF0
0016BDD0
00000120
ENDCHAR
STARTCHAR uni25D7
ENCODING 9687
SWIDTH 546 0
DWIDTH 7 0
BBX 8 14 -1 -3
BITMAP
5A840000
7FFEB300
7FFFFC20
7FFFFF90
7FFFFFD3
7FFFFFF5
7FFFFFF6
7FFFFFF5
7FFFFFE4
7FFFFFC1
7FFFFE50
7FFFD600
6DD93000
12000000
ENDCHAR
STARTCHAR uni25DC
ENCODING 9692
SWIDTH 1280 0
DWIDTH 15 0
BBX 14 14 1 -3
BITMAP
00000024789A91
000039DFFFFFD2
0006DFFFFFFFD2
006EFFFFFFFFD2
03DFFFFFFFFFD2
09FFFFFFFFFFD2
2DFFFFFFFFFFD2
4FFFFFFFFFFFD2
7FFFFFFFFFFFD2
8FFFFFFFFFFFD2
9FFFFFFFFFFFD2
AFFFFFFFFFFFD2
9DDDDDDDDDDDC2
12222222222220
ENDCHAR
STARTCHAR uni25DD
ENCODING 9693
SWIDTH 1280 0
DWIDTH 15 0
BBX 14 14 1 -3
BITMAP
7AA98530000000
AFFFFFDB500000
AFFFFFFFE91000
AFFFFFFFFFA100
AFFFFFFFFFF700
AFFFFFFFFFFD20
AFFFFFFFFFFF60
AFFFFFFFFFFF90
AFFFFFFFFFFFC0
AFFFFFFFFFFFD1
AFFFFFFFFFFFD2
AFFFFFFFFFFFD2
9DDDDDDDDDDDC2
12222222222220
ENDCHAR
STARTCHAR uni25DE
ENCODING 9694
SWIDTH 1280 0
DWIDTH 15 0
BBX 14 14 1 -3
BITMAP
7AAAAAAAAAAA91
AFFFFFFFFFFFD2
AFFFFFFFFFFFD2
AFFFFFFFFFFFD1
AFFFFFFFFFFFD0
AFFFFFFFFFFFA0
AFFFFFFFFFFF70
AFFFFFFFFFFE30
AFFFFFFFFFFA00
AFFFFFFFFFD200
AFFFFFFFFC4000
AFFFFFFEA20000
9DDDDA73000000
12210000000000
ENDCHAR
STARTCHAR uni25DF
ENCODING 9695
SWIDTH 1280 0
DWIDTH 15 0
BBX 14 14 1 -3
BITMAP
7AAAAAAAAAAA91
AFFFFFFFFFFFD2
AFFFFFFFFFFFD2
9FFFFFFFFFFFD2
8FFFFFFFFFFFD2
5FFFFFFFFFFFD2
3DFFFFFFFFFFD2
0BFFFFFFFFFFD2
05EFFFFFFFFFD2
009FFFFFFFFFD2
001AFFFFFFFFD2
00017DFFFFFFD2
00000269CDDDC2
00000000012220
ENDCHAR
STARTCHAR uni261A
ENCODING 9754
SWIDTH 1100 0
DWIDTH 13 0
BBX 11 9 1 -1
BITMAP
000000002220
042222227020
6F9841002020
9DEF71002020
006FA2002020
002FC1104020
000EFFFFF430
0004566BFA00
000000012000
ENDCHAR
STARTCHAR uni261B
ENCODING 9755
SWIDTH 1100 0
DWIDTH 13 0
BBX 11 9 1 -1
BITMAP
013200000000
2C3222122230
7F3200025850
7F3200029900
7F3200022000
7F3210121000
7F77FFE50000
7FC665200000
131000000000
ENDCHAR
STARTCHAR uni261C
ENCODING 9756
SWIDTH 1100 0
DWIDTH 13 0
BBX 10 7 2 1
BITMAP
0000000154
244433463A
144520023A
000630023A
000540023A
000333253A
0000012268
ENDCHAR
STARTCHAR uni261D
ENCODING 9757
SWIDTH 1100 0
DWIDTH 13 0
BBX 7 10 4 -1
BITMAP
15200000
22400000
30731000
40456500
40012400
31000400
13000400
45444530
9AAAAA70
12222200
ENDCHAR
STARTCHAR uni261E
ENCODING 9758
SWIDTH 1100 0
DWIDTH 13 0
BBX 9 7 3 1
BITMAP
6400000000
C444344450
C400035440
C400045000
C400143000
C432351000
A512100000
ENDCHAR
STARTCHAR uni261F
ENCODING 9759
SWIDTH 1100 0
DWIDTH 13 0
BBX 7 10 4 -1
BITMAP
8CCCCC60
53333350
15111500
13000400
04000210
04432310
03466400
00004400
00004500
00000100
ENDCHAR
STARTCHAR uni27A1
ENCODING 10145
SWIDTH 650 0
DWIDTH 8 0
BBX 9 19 -1 -5
BITMAP
0210000000
0BB2000000
0CFA000000
5DFF700000
7FFFE40000
7FFFFC2000
7FFFFFA000
7FFFFFF700
7FFFFFFE40
7FFFFFFF80
7FFFFFFF50
7FFFFFFA00
7FFFFFC200
7FFFFE4000
7FFFF70000
6EFFA00000
1CFC200000
0CE4000000
0440000000
ENDCHAR
STARTCHAR uni2B1B
ENCODING 11035
SWIDTH 1280 0
DWIDTH 15 0
BBX 14 14 1 -3
BITMAP
7AAAAAAAAAAA91
AFFFFFFFFFFFD2
AFFFFFFFFFFFD2
AFFFFFFFFFFFD2
AFFFFFFFFFFFD2
AFFFFFFFFFFFD2
AFFFFFFFFFFFD2
AFFFFFFFFFFFD2
AFFFFFFFFFFFD2
AFFFFFFFFFFFD2
AFFFFFFFFFFFD2
AFFFFFFFFFFFD2
9DDDDDDDDDDDC2
12222222222220
ENDCHAR
STARTCHAR uni2B24
ENCODING 11044
SWIDTH 1280 0
DWIDTH 15 0
BBX 15 14 0 -3
BITMAP
000049CDDA610000
0019EFFFFFFB3000
009FFFFFFFFFC200
05EFFFFFFFFFF900
0AFFFFFFFFFFFD20
1DFFFFFFFFFFFF40
2DFFFFFFFFFFFF50
1DFFFFFFFFFFFF50
0CFFFFFFFFFFFE40
08FFFFFFFFFFFC10
02DFFFFFFFFFE600
005EFFFFFFFE9000
0004BEFFFFD70000
0000046774200000
ENDCHAR
STARTCHAR A.salt
ENCODING 57600
SWIDTH 836 0
DWIDTH 10 0
BBX 10 11 0 -2
BITMAP
0012222220
0351222202
2E32174112
7F223FB022
8F22187022
8F23222222
8F22132022
8F223FB012
8F302EC002
8FFE4EFFB1
2662056600
ENDCHAR
STARTCHAR Agrave.salt
ENCODING 57601
SWIDTH 836 0
DWIDTH 10 0
BBX 10 14 0 -2
BITMAP
0013222200
02C4122020
06FB753120
04E8433520
0351222202
2E32174112
7F223FB022
8F22187022
8F23222222
8F22132022
8F223FB012
8F302EC002
8FFE4EFFB1
2662056600
ENDCHAR
STARTCHAR Aacute.salt
ENCODING 57602
SWIDTH 836 0
DWIDTH 10 0
BBX 10 14 0 -2
BITMAP
0001222220
0045122120
03F7245720
04E8433420
0461222202
2E32174112
7F223FB022
8F22187022
8F23222222
8F22132022
8F223FB012
8F302EC002
8FFE4EFFB1
2662056600
ENDCHAR
STARTCHAR Acircumflex.salt
ENCODING 57603
SWIDTH 836 0
DWIDTH 10 0
BBX 10 14 0 -2
BITMAP
0001222200
0044122020
04F5487320
06E8433530
0561222202
2E32174112
7F223FB022
8F22187022
8F23222222
8F22132022
8F223FB012
8F302EC002
8FFE4EFFB1
2662056600
ENDCHAR
STARTCHAR Atilde.salt
ENCODING 57604
SWIDTH 836 0
DWIDTH 10 0
BBX 10 14 0 -2
BITMAP
0001222210
0054122020
04F6431220
06E8433420
0461222202
2E32174112
7F223FB022
8F22187022
8F23222222
8F22132022
8F223FB012
8F302EC002
8FFE4EFFB1
2662056600
ENDCHAR
STARTCHAR Adieresis.salt
ENCODING 57605
SWIDTH 836 0
DWIDTH 10 0
BBX 10 14 0 -2
BITMAP
0012222210
02D0181120
0AF22A4230
0AE8433630
0561222202
2E32174112
7F223FB022
8F22187022
8F23222222
8F22132022
8F223FB012
8F302EC002
8FFE4EFFB1
2662056600
ENDCHAR
STARTCHAR Aring.salt
ENCODING 57606
SWIDTH 836 0
DWIDTH 10 0
BBX 10 14 0 -2
BITMAP
0001222200
0064222120
04F22D7220
08F3353230
0861232202
2E32174112
7F223FB022
8F22187022
8F23222222
8F22132022
8F223FB012
8F302EC002
8FFE4EFFB1
2662056600
ENDCHAR
STARTCHAR Amacron.salt
ENCODING 57607
SWIDTH 836 0
DWIDTH 10 0
BBX 10 14 0 -2
BITMAP
0001222200
0064122020
05F6222220
06E8433520
0461222202
2E32174112
7F223FB022
8F22187022
8F23222222
8F22132022
8F223FB012
8F302EC002
8FFE4EFFB1
2662056600
ENDCHAR
STARTCHAR Abreve.salt
ENCODING 57608
SWIDTH 836 0
DWIDTH 10 0
BBX 10 14 0 -2
BITMAP
0034225220
03E3232220
07FB333310
03E8433320
0351222202
2E32174112
7F223FB022
8F22187022
8F23222222
8F22132022
8F223FB012
8F302EC002
8FFE4EFFB1
2662056600
ENDCHAR
STARTCHAR Aogonek.salt
ENCODING 57609
SWIDTH 836 0
DWIDTH 10 0
BBX 10 13 0 -4
BITMAP
0012222220
0351222202
2E32174112
7F223FB022
8F22187022
8F23222222
8F22132022
8F223FB022
8F302EA202
8FFE4E8233
26621F9112
00002FFCA2
000007A920
ENDCHAR
STARTCHAR E.salt
ENCODING 57610
SWIDTH 743 0
DWIDTH 9 0
BBX 9 11 0 -2
BITMAP
0011122220
0351222120
2E22156630
7F12288700
9F13221200
9F12144300
9F122B9210
9F41222120
6FD3000020
1CFFFFFC10
0056666000
ENDCHAR
STARTCHAR Egrave.salt
ENCODING 57611
SWIDTH 743 0
DWIDTH 9 0
BBX 9 14 0 -2
BITMAP
0032222100
05D0222100
0BF8642200
09E9655420
0351222120
2E22156630
7F12288700
9F13221200
9F12144300
9F122B9210
9F41222120
6FD3000020
1CFFFFFC10
0056666000
ENDCHAR
STARTCHAR Eacute.salt
ENCODING 57612
SWIDTH 743 0
DWIDTH 9 0
BBX 9 14 0 -2
BITMAP
0001222210
0062122020
06F3246610
08F9655320
0571222120
2E22156630
7F12288700
9F13221200
9F12144300
9F122B9210
9F41222120
6FD3000020
1CFFFFFC10
0056666000
ENDCHAR
STARTCHAR Ecircumflex.salt
ENCODING 57613
SWIDTH 743 0
DWIDTH 9 0
BBX 9 14 0 -2
BITMAP
0001222100
0071222120
07F2696220
0AF9655520
0661222120
2E22156630
7F12288700
9F13221200
9F12144300
9F122B9210
9F41222120
6FD3000020
1CFFFFFC10
0056666000
ENDCHAR
STARTCHAR Edieresis.salt
ENCODING 57614
SWIDTH 743 0
DWIDTH 9 0
BBX 9 14 0 -2
BITMAP
0022222210
03C01A0120
0CE22B2220
0CF9655520
0561222120
2E22156630
7F12288700
9F13221200
9F12144300
9F122B9210
9F41222120
6FD3000020
1CFFFFFC10
0056666000
ENDCHAR
STARTCHAR Emacron.salt
ENCODING 57615
SWIDTH 743 0
DWIDTH 9 0
BBX 9 14 0 -2
BITMAP
0002222200
0082122020
07F4222220
08F9655520
0461222120
2E22156630
7F12288700
9F13221200
9F12144300
9F122B9210
9F41222120
6FD3000020
1CFFFFFC10
0056666000
ENDCHAR
STARTCHAR Ebreve.salt
ENCODING 57616
SWIDTH 743 0
DWIDTH 9 0
BBX 9 14 0 -2
BITMAP
0043225220
05F2232220
09FA333400
05F9655220
0351222120
2E22156630
7F12288700
9F13221200
9F12144300
9F122B9210
9F41222120
6FD3000020
1CFFFFFC10
0056666000
ENDCHAR
STARTCHAR Edotaccent.salt
ENCODING 57617
SWIDTH 743 0
DWIDTH 9 0
BBX 9 14 0 -2
BITMAP
0000322100
001C410200
006F622100
0059654220
0351222120
2E22156630
7F12288700
9F13221200
9F12144300
9F122B9210
9F41222120
6FD3000020
1CFFFFFC10
0056666000
ENDCHAR
STARTCHAR Eogonek.salt
ENCODING 57618
SWIDTH 743 0
DWIDTH 9 0
BBX 9 13 0 -4
BITMAP
0012222220
0341222120
2E22156630
7F12288700
9F13221200
9F12144300
9F122B9210
9F41222120
6FD3002020
1CFFF92330
0057FA1120
0001FFCA20
00007AA200
ENDCHAR
STARTCHAR Ecaron.salt
ENCODING 57619
SWIDTH 743 0
DWIDTH 9 0
BBX 9 14 0 -2
BITMAP
0043222220
05F2222020
08FB514500
05D9655220
0351222120
2E22156630
7F12288700
9F13221200
9F12144300
9F122B9210
9F41222120
6FD3000020
1CFFFFFC10
0056666000
ENDCHAR
STARTCHAR I.salt
ENCODING 57620
SWIDTH 471 0
DWIDTH 6 0
BBX 6 11 0 -2
BITMAP
024221
2D3102
7F3202
7F3202
7F3202
7F3202
7F3202
7F3202
7F4011
7FFF60
266300
ENDCHAR
STARTCHAR Igrave.salt
ENCODING 57621
SWIDTH 471 0
DWIDTH 6 0
BBX 6 14 0 -2
BITMAP
022211
5C1221
CE7533
BF8565
2E3102
7F3202
7F3202
7F3202
7F3202
7F3202
7F3202
7F4011
7FFF60
266300
ENDCHAR
STARTCHAR Iacute.salt
ENCODING 57622
SWIDTH 471 0
DWIDTH 6 0
BBX 7 14 0 -2
BITMAP
00222200
19022110
AE246500
CF856100
5F310200
7F320200
7F320200
7F320200
7F320200
7F320200
7F320200
7F401100
7FFF6000
26630000
ENDCHAR
STARTCHAR Icircumflex.salt
ENCODING 57623
SWIDTH 471 0
DWIDTH 6 0
BBX 6 14 0 -2
BITMAP
012221
461212
D95964
DE8563
3D3102
7F3202
7F3202
7F3202
7F3202
7F3202
7F3202
7F4011
7FFF60
266300
ENDCHAR
STARTCHAR Idieresis.salt
ENCODING 57624
SWIDTH 471 0
DWIDTH 6 0
BBX 7 14 0 -2
BITMAP
03222210
A4182120
F6294220
EF856900
2D310200
7F320200
7F320200
7F320200
7F320200
7F320200
7F320200
7F401100
7FFF6000
26630000
ENDCHAR
STARTCHAR Itilde.salt
ENCODING 57625
SWIDTH 471 0
DWIDTH 6 0
BBX 6 14 0 -2
BITMAP
012222
551212
D64313
BD8562
2E3102
7F3202
7F3202
7F3202
7F3202
7F3202
7F3202
7F4011
7FFF60
266300
ENDCHAR
STARTCHAR Imacron.salt
ENCODING 57626
SWIDTH 471 0
DWIDTH 6 0
BBX 6 14 0 -2
BITMAP
012221
280212
DB2223
EF8561
6F3102
7F3202
7F3202
7F3202
7F3202
7F3202
7F3202
7F4011
7FFF60
266300
ENDCHAR
STARTCHAR Ibreve.salt
ENCODING 57627
SWIDTH 471 0
DWIDTH 6 0
BBX 7 14 -1 -2
BITMAP
01426230
2D622220
4FC43320
2EF85510
04F31020
07F32020
07F32020
07F32020
07F32020
07F32020
07F32020
07F40110
07FFF600
02663000
ENDCHAR
STARTCHAR Iogonek.salt
ENCODING 57628
SWIDTH 471 0
DWIDTH 6 0
BBX 6 13 0 -4
BITMAP
014221
2D5102
5F5202
5F5202
5F5202
5F5202
5F5202
5F5202
5F4202
5F2261
7F3202
8FEC70
29A700
ENDCHAR
STARTCHAR Idotaccent.salt
ENCODING 57629
SWIDTH 471 0
DWIDTH 6 0
BBX 6 14 0 -2
BITMAP
013220
2C3101
7F5221
7F8551
4F3102
7F3202
7F3202
7F3202
7F3202
7F3202
7F3202
7F4011
7FFF60
266300
ENDCHAR
STARTCHAR L.salt
ENCODING 57630
SWIDTH 715 0
DWIDTH 9 0
BBX 9 11 0 -2
BITMAP
0232200000
3E31110000
7F32110000
7F32110000
7F32110000
7F32110000
7F32122210
7F32222120
7F40000020
7FFFFFFB10
2666666000
ENDCHAR
STARTCHAR Lacute.salt
ENCODING 57631
SWIDTH 715 0
DWIDTH 9 0
BBX 9 14 0 -2
BITMAP
0012222100
0631220200
5F42466100
7F857C2000
4F31110000
7F32110000
7F32110000
7F32110000
7F32110000
7F32122210
7F32222120
7F40000020
7FFFFFFB10
2666666000
ENDCHAR
STARTCHAR Lcommaaccent.salt
ENCODING 57632
SWIDTH 715 0
DWIDTH 9 0
BBX 9 15 0 -6
BITMAP
0232200000
3E31110000
7F32110000
7F32110000
7F32110000
7F32110000
7F32122210
7F32222120
7F40000020
7FFF88AB10
26AF123000
00AF423000
00AF632000
006FB81000
005B910000
ENDCHAR
STARTCHAR Lcaron.salt
ENCODING 57633
SWIDTH 715 0
DWIDTH 9 0
BBX 9 11 0 -2
BITMAP
0232223220
3E311E1120
7F321E0120
7F321E6610
7F321FD200
7F32110000
7F32122210
7F32222120
7F40000020
7FFFFFFB10
2666666000
ENDCHAR
STARTCHAR Ldot.salt
ENCODING 57634
SWIDTH 715 0
DWIDTH 9 0
BBX 9 11 0 -2
BITMAP
0232200000
3E31110000
7F32122220
7F321C0120
7F321E0020
7F321FED30
7F32199310
7F32222120
7F40000020
7FFFFFFB10
2666666000
ENDCHAR
STARTCHAR Lslash.salt
ENCODING 57635
SWIDTH 725 0
DWIDTH 9 0
BBX 10 11 -1 -2
BITMAP
0014221000
02D5102000
05F5203000
05C2200200
0991320200
1FC2207000
0EF5203221
05F5222212
05F6000002
05FFFFFFC2
0166666610
ENDCHAR
STARTCHAR M.salt
ENCODING 57636
SWIDTH 1170 0
DWIDTH 14 0
BBX 14 11 0 -2
BITMAP
00122222222220
04512221222202
2F220623054112
7F222F720DB022
8F222F720DC022
8F222F720DC022
8F222F720DC022
8F212F720DC022
8F303F700DC002
8FFE7FFF8EFFB1
26621664056600
ENDCHAR
STARTCHAR N.salt
ENCODING 57637
SWIDTH 846 0
DWIDTH 10 0
BBX 10 11 0 -2
BITMAP
0012222220
0350222202
2E32064022
7F222FC022
8F222DC022
8F222DC022
8F222DC022
8F212DC022
8F302DD002
8FFE4DFFC2
2662046610
ENDCHAR
STARTCHAR Ntilde.salt
ENCODING 57638
SWIDTH 846 0
DWIDTH 10 0
BBX 10 14 0 -2
BITMAP
0001222210
0055122020
04F7431220
05F8433420
0460222202
2E32064022
7F222FC022
8F222DC022
8F222DC022
8F222DC022
8F212DC022
8F302DD002
8FFE4DFFC2
2662046610
ENDCHAR
STARTCHAR Nacute.salt
ENCODING 57639
SWIDTH 846 0
DWIDTH 10 0
BBX 10 14 0 -2
BITMAP
0001222220
0036122120
02E8235720
03F8433420
0360222202
2E32064022
7F222FC022
8F222DC022
8F222DC022
8F222DC022
8F212DC022
8F302DD002
8FFE4DFFC2
2662046610
ENDCHAR
STARTCHAR Ncommaaccent.salt
ENCODING 57640
SWIDTH 846 0
DWIDTH 10 0
BBX 10 15 0 -6
BITMAP
0012222220
0350222202
2E32064022
7F222FC022
8F222DC022
8F222DC022
8F222DC022
8F212DC022
8F302DD002
8FFE778EC2
267C722610
003FA32200
003FB42100
000EDA4000
000BB40000
ENDCHAR
STARTCHAR Ncaron.salt
ENCODING 57641
SWIDTH 846 0
DWIDTH 10 0
BBX 10 14 0 -2
BITMAP
0025222220
02E5122020
05FD723610
02C8433220
0350222202
2E32064022
7F222FC022
8F222DC022
8F222DC022
8F222DC022
8F212DC022
8F302DD002
8FFE4DFFC2
2662046610
ENDCHAR
STARTCHAR W.salt
ENCODING 57642
SWIDTH 1170 0
DWIDTH 14 0
BBX 14 11 0 -2
BITMAP
02322042214222
3E212C7109B012
8F222F720DC022
8F222F720DC022
8F222F720DC022
8F222F720DC022
8F221C43098022
8F422122222202
6FC20104200031
1EFFDCEFFDCA10
01798527985000
ENDCHAR
STARTCHAR Wcircumflex.salt
ENCODING 57643
SWIDTH 1170 0
DWIDTH 14 0
BBX 14 14 0 -2
BITMAP
00000122220000
00004412202000
0004F548732000
02338FA56A5222
3E212C7109B012
8F222F720DC022
8F222F720DC022
8F222F720DC022
8F222F720DC022
8F221C43098022
8F422122222202
6FC20104200031
1EFFDCEFFDCA10
01798527985000
ENDCHAR
STARTCHAR Wgrave.salt
ENCODING 57644
SWIDTH 1170 0
DWIDTH 14 0
BBX 14 14 0 -2
BITMAP
00001322220000
0002D212202000
0008FA75312000
02348FA5684222
3E212C7109B012
8F222F720DC022
8F222F720DC022
8F222F720DC022
8F222F720DC022
8F221C43098022
8F422122222202
6FC20104200031
1EFFDCEFFDCA10
01798527985000
ENDCHAR
STARTCHAR Wacute.salt
ENCODING 57645
SWIDTH 1170 0
DWIDTH 14 0
BBX 14 14 0 -2
BITMAP
00000122222000
00003512212000
0003F724572000
02338FA5644222
3E212E7109B012
8F222F720DC022
8F222F720DC022
8F222F720DC022
8F222F720DC022
8F221C43098022
8F422122222202
6FC20104200031
1EFFDCEFFDCA10
01798527985000
ENDCHAR
STARTCHAR Wdieresis.salt
ENCODING 57646
SWIDTH 1170 0
DWIDTH 14 0
BBX 14 14 0 -2
BITMAP
00001222221000
0002D018112000
000AF22A423000
02348FA56A5222
3E212E7109B012
8F222F720DC022
8F222F720DC022
8F222F720DC022
8F222F720DC022
8F221C43098022
8F422122222202
6FC20104200031
1EFFDCEFFDCA10
01798527985000
ENDCHAR
STARTCHAR X.salt
ENCODING 57647
SWIDTH 837 0
DWIDTH 10 0
BBX 10 11 0 -2
BITMAP
0142214222
2D91097102
3FD0293220
0EE1241220
0A40323202
4F12032112
8F122FC022
8F122EC012
8F202DC002
8FFE4DFFC1
3662056600
ENDCHAR
STARTCHAR Y.salt
ENCODING 57648
SWIDTH 806 0
DWIDTH 10 0
BBX 10 11 0 -2
BITMAP
0322204221
5E012A9102
BE023F9102
BE023F8102
BF02031202
AF50232111
6FFA220720
08EF310300
007F401200
007FFF6000
0026630000
ENDCHAR
STARTCHAR Yacute.salt
ENCODING 57649
SWIDTH 806 0
DWIDTH 10 0
BBX 10 14 0 -2
BITMAP
0001222210
0053122020
05F4246610
07669FC321
5E012A9102
BE023F9102
BE023F8102
BF02031202
AF50232111
6FFA220720
08EF310300
007F401200
007FFF6000
0026630000
ENDCHAR
STARTCHAR Ycircumflex.salt
ENCODING 57650
SWIDTH 806 0
DWIDTH 10 0
BBX 10 14 0 -2
BITMAP
0001222200
0062222020
06F3596220
09669FC521
5E012C9102
BE023F9102
BE023F8102
BF02031202
AF50232111
6FFA220720
08EF310300
007F401200
007FFF6000
0026630000
ENDCHAR
STARTCHAR Ydieresis.salt
ENCODING 57651
SWIDTH 806 0
DWIDTH 10 0
BBX 10 14 0 -2
BITMAP
0022222210
04B01A0120
0DD22B2220
0D669FC621
5E013D9102
BE023F9102
BE023F8102
BF02031202
AF50232111
6FFA220720
08EF310300
007F401200
007FFF6000
0026630000
ENDCHAR
STARTCHAR Ygrave.salt
ENCODING 57652
SWIDTH 806 0
DWIDTH 10 0
BBX 10 14 0 -2
BITMAP
0022222100
04E0222110
0AF8642120
09669FC521
5E013D9102
BE023F9102
BE023F8102
BF02031202
AF50232111
6FFA220720
08EF310300
007F401200
007FFF6000
0026630000
ENDCHAR
STARTCHAR AE.salt
ENCODING 57653
SWIDTH 1113 0
DWIDTH 13 0
BBX 14 11 0 -2
BITMAP
00022222222220
02502222322211
1D320650236650
6F223FB0248920
8F221870322010
8F232222224410
8F22132026B420
8F223FB0322211
8F302EC0000011
8FFE4EFFFFFF50
26620566666300
ENDCHAR
STARTCHAR IJ.salt
ENCODING 57654
SWIDTH 1133 0
DWIDTH 14 0
BBX 14 11 0 -2
BITMAP
02422100014221
2D3102002D4102
7F3202006F4202
7F3202006F4202
7F3205227F4202
7F320F016F4202
7F320F024C2202
7F320F22212210
7F401FB2010220
7FFF8FFFDCD500
26630279972000
ENDCHAR
STARTCHAR IJ.stack
ENCODING 57655
SWIDTH 1363 0
DWIDTH 16 0
BBX 16 11 0 -2
BITMAP
0322222210003222
4E0222202004E012
AF631135100AF022
9FFA1172000AF022
02FA1120422BF022
00FA1128B019F022
01B7112AC026B022
1C022320D0321212
9F100001F8100021
AFFFFFFAFFFDCC30
3666663048996100
ENDCHAR
STARTCHAR quoteleft.salt
ENCODING 57656
SWIDTH 407 0
DWIDTH 5 0
BBX 5 5 0 4
BITMAP
003320
1B3530
8F3120
AF7630
9FF600
ENDCHAR
STARTCHAR quoteright.salt
ENCODING 57657
SWIDTH 407 0
DWIDTH 5 0
BBX 5 5 0 4
BITMAP
042220
5F1320
9F7320
7F8610
7FB100
ENDCHAR
STARTCHAR ampersand.salt
ENCODING 57658
SWIDTH 732 0
DWIDTH 9 0
BBX 9 13 0 -3
BITMAP
0001522100
0018310220
0180232120
0BA1146620
0FC2068600
0E72421200
2C02244200
AC025B8210
DD02222120
CF81020020
6FFF600A10
038FFE7000
0018840000
ENDCHAR
STARTCHAR caron.2
ENCODING 57659
SWIDTH 600 0
DWIDTH 7 0
BBX 5 5 1 4
BITMAP
014220
2D2120
7E0120
AE6610
BFD200
ENDCHAR
STARTCHAR indexup
ENCODING 57660
SWIDTH 1100 0
DWIDTH 13 0
BBX 9 11 2 -2
BITMAP
0032100000
05E0200000
0AE0321000
0BD0223200
0CC0001200
0DE0000200
0CF1000200
0993222320
2D50000020
5FFFFFFC10
2666666000
ENDCHAR
STARTCHAR indexdown
ENCODING 57661
SWIDTH 1100 0
DWIDTH 13 0
BBX 9 11 2 -2
BITMAP
0142222220
2D51111120
5FF3111510
1AE0000200
0AC0000200
0CC0122200
0DD059B300
0CE0B92000
0BF1200000
0AF8000000
0340000000
ENDCHAR
STARTCHAR indexupleft
ENCODING 57662
SWIDTH 1100 0
DWIDTH 13 0
BBX 10 12 2 -2
BITMAP
0010000000
0622000000
6FC1210000
3EE4111000
0792002000
1B30000420
9D20002111
DFD1021120
2EFC511200
03EF212000
007FB20000
004C300000
ENDCHAR
STARTCHAR indexupright
ENCODING 57663
SWIDTH 1100 0
DWIDTH 13 0
BBX 10 12 2 -2
BITMAP
0000000110
0000001220
0000022110
0000311300
0007300320
0137000131
3A01100021
EFA0110110
5FFA014100
05FFA02000
005FFA1000
0005C20000
ENDCHAR
STARTCHAR indexdownleft
ENCODING 57664
SWIDTH 1100 0
DWIDTH 13 0
BBX 13 10 0 -1
BITMAP
00000001100000
00000022210000
000003E5021000
00000750302100
00003100030210
00062100004110
0053322003D200
04A3EE52261000
1EC6CFF7100000
051018A1000000
ENDCHAR
STARTCHAR indexdownright
ENCODING 57665
SWIDTH 1100 0
DWIDTH 13 0
BBX 13 10 0 -1
BITMAP
00000010000000
00000322000000
00004203000000
00042020210000
00420200021000
05C14000012100
1EFED100231200
035EFD237EC220
0003EFD75EF500
00002C50033000
ENDCHAR
STARTCHAR indexdownleft.outline
ENCODING 57666
SWIDTH 1100 0
DWIDTH 13 0
BBX 11 9 2 0
BITMAP
000001100000
000006B10000
0000073B1000
00024053B100
003300053B10
023200007620
144440032100
442354420000
010004200000
ENDCHAR
STARTCHAR indexdownright.outline
ENCODING 57667
SWIDTH 1100 0
DWIDTH 13 0
BBX 11 9 2 0
BITMAP
000010000000
0003B5000000
003B26000000
03B341510000
3B3400041000
556000024100
023200452500
000335523430
000033000100
ENDCHAR
STARTCHAR indexupleft.outline
ENCODING 57668
SWIDTH 1100 0
DWIDTH 13 0
BBX 9 11 3 -1
BITMAP
0200000000
0551000000
0324100000
0262410000
0540050000
3610016500
2300033B20
032043B400
00363B4000
0015B40000
0005400000
ENDCHAR
STARTCHAR indexupright.outline
ENCODING 57669
SWIDTH 1100 0
DWIDTH 13 0
BBX 9 11 3 -1
BITMAP
0000001100
0000024500
0000333200
0003336000
0014005300
1560002610
5932000410
0893203200
0089352000
0008950000
0000630000
ENDCHAR
STARTCHAR uni261A.salt
ENCODING 57670
SWIDTH 1100 0
DWIDTH 13 0
BBX 11 9 1 -1
BITMAP
000012211210
042210017020
6F8772102020
9EEFF0302020
000AF5205020
0009FF35F230
00009F4BFB10
0000AD334000
000011000000
ENDCHAR
STARTCHAR uni261B.salt
ENCODING 57671
SWIDTH 1100 0
DWIDTH 13 0
BBX 11 9 1 -1
BITMAP
002201221000
1A3221001230
7F3200137850
7F320033E900
7F3320230000
7F55E2400000
7FDCFC300000
1412EB100000
000020000000
ENDCHAR
STARTCHAR indexdown.salt
ENCODING 57672
SWIDTH 1100 0
DWIDTH 13 0
BBX 9 11 2 -2
BITMAP
0014222220
02D6111120
05FF611510
0176000010
0463331020
3FFF913020
055FFFA020
00046FA010
00000FB200
00000EE400
0000052000
ENDCHAR
STARTCHAR indexdownleft.salt
ENCODING 57673
SWIDTH 1100 0
DWIDTH 13 0
BBX 11 9 1 -1
BITMAP
000000321000
000008A01100
000037130110
000520003020
006502104A20
038083113300
1C18FEAA1100
9F52BAFF6000
440000760000
ENDCHAR
STARTCHAR indexdownright.salt
ENCODING 57674
SWIDTH 1100 0
DWIDTH 13 0
BBX 11 9 1 -1
BITMAP
000032100000
000511200000
005112121000
081120002000
8FAC10210200
5DCF02155020
009D0C9FF620
00BF9919FE20
008600007200
ENDCHAR
STARTCHAR indexup.salt
ENCODING 57675
SWIDTH 1100 0
DWIDTH 13 0
BBX 9 11 2 -2
BITMAP
0042100000
06C0200000
0CB0200000
0E90321000
1F70223220
3F90000220
3FE1003200
0C93223200
2D60000200
5FFFFFC100
2666660000
ENDCHAR
STARTCHAR indexupleft.salt
ENCODING 57676
SWIDTH 1100 0
DWIDTH 13 0
BBX 9 11 2 -2
BITMAP
0322000000
5F70200000
8FF6021000
0AF7202000
02A1201210
0DD2001220
0C10011020
9FCED20200
887CA02000
001FF50000
0005400000
ENDCHAR
STARTCHAR indexupright.salt
ENCODING 57677
SWIDTH 1100 0
DWIDTH 13 0
BBX 10 11 2 -2
BITMAP
0000000230
0000012020
0000210200
0006402200
003D003020
0512101310
8F70210021
8FF704EE60
08FF718600
008FE30000
0007300000
ENDCHAR
STARTCHAR uni261C.salt
ENCODING 57678
SWIDTH 1100 0
DWIDTH 13 0
BBX 10 7 2 1
BITMAP
0001341043
144310363A
144442023A
000225023A
000054063A
0000044369
0000252000
ENDCHAR
STARTCHAR uni261D.salt
ENCODING 57679
SWIDTH 1100 0
DWIDTH 13 0
BBX 7 10 4 -1
BITMAP
15100000
41200000
41300000
40742000
40526430
40020330
32004100
45445300
9AAAA600
12222000
ENDCHAR
STARTCHAR uni261E.salt
ENCODING 57680
SWIDTH 1100 0
DWIDTH 13 0
BBX 9 7 3 1
BITMAP
4302420000
C442013450
C400354440
C400540000
C430540000
B622400000
0004500000
ENDCHAR
STARTCHAR uni261F.salt
ENCODING 57681
SWIDTH 1100 0
DWIDTH 13 0
BBX 7 10 4 -1
BITMAP
08CCCC60
05333350
01511500
24000130
54553040
10435040
00014030
00004220
00004500
00000100
ENDCHAR
STARTCHAR indexdownleft.salt_outline
ENCODING 57682
SWIDTH 1100 0
DWIDTH 13 0
BBX 10 8 2 0
BITMAP
000003B300
0000053C30
00024243C3
002300052B
0040440433
0415314400
2440246220
0200000400
ENDCHAR
STARTCHAR indexdownright.salt_outline
ENCODING 57683
SWIDTH 1100 0
DWIDTH 13 0
BBX 10 8 2 0
BITMAP
0005A20000
005A330000
06A3334100
2A33000400
0452044050
0031415414
0042541055
0014000002
ENDCHAR
STARTCHAR indexupleft.salt_outline
ENCODING 57684
SWIDTH 1100 0
DWIDTH 13 0
BBX 8 10 3 -1
BITMAP
15400000
05150000
00404100
00540400
04140232
04510249
33012397
14354970
00049700
00003000
ENDCHAR
STARTCHAR indexupright.salt_outline
ENCODING 57685
SWIDTH 1100 0
DWIDTH 13 0
BBX 9 10 3 -1
BITMAP
0000005500
0000151400
0003305000
0004055000
0340052300
2751026100
0A64110510
00A6644400
000A720000
0000200000
ENDCHAR
STARTCHAR block.v
ENCODING 57687
SWIDTH 1000 0
DWIDTH 12 0
BBX 14 14 -1 -3
BITMAP
4CCCCCCCCCCCC4
6FFFFFFFFFFFF6
6FFFFFFFFFFFF6
6FFFFFFFFFFFF6
6FFFFFFFFFFFF6
6FFFFFFFFFFFF6
6FFFFFFFFFFFF6
6FFFFFFFFFFFF6
6FFFFFFFFFFFF6
6FFFFFFFFFFFF6
6FFFFFFFFFFFF6
6FFFFFFFFFFFF6
6FFFFFFFFFFFF6
12222222222221
ENDCHAR
STARTCHAR uni25D6.v
ENCODING 57688
SWIDTH 1335 0
DWIDTH 16 0
BBX 14 8 1 0
BITMAP
000048AA840000
002BEFFFFEB200
02CFFFFFFFFC20
09FFFFFFFFFF90
2DFFFFFFFFFFD2
4FFFFFFFFFFFF4
5FFFFFFFFFFFF6
13333333333331
ENDCHAR
STARTCHAR uni25D7.v
ENCODING 57689
SWIDTH 1335 0
DWIDTH 16 0
BBX 14 8 1 0
BITMAP
4DDDDDDDDDDDD5
4FFFFFFFFFFFF5
3EFFFFFFFFFFE3
0BFFFFFFFFFFB0
04EFFFFFFFFE40
006DFFFFFFD600
00039DDDD93000
00000122100000
ENDCHAR
STARTCHAR uni27A1.w
ENCODING 57690
SWIDTH 650 0
DWIDTH 8 0
BBX 9 19 0 -5
BITMAP
0000002100
000003C800
00002CF900
00009FFC30
0007EFFF40
004EFFFF40
02CFFFFF40
0AFFFFFF40
6EFFFFFF40
BFFFFFFF40
8FFFFFFF40
2CFFFFFF40
04EFFFFF40
007EFFFF40
000AFFFF40
0002CFFE30
00004EF910
000007E900
0000005300
ENDCHAR
STARTCHAR uni27A1.n
ENCODING 57691
SWIDTH 1000 0
DWIDTH 12 0
BBX 18 9 -3 0
BITMAP
002666666666666200
8BBFFFFFFFFFFFFBB8
9FFFFFFFFFFFFFFFF9
18EFFFFFFFFFFFFE81
005DFFFFFFFFFFD500
0002BFFFFFFFFB2000
000018EFFFFE810000
0000005DFFD5000000
000000028820000000
ENDCHAR
STARTCHAR uni27A1.s
ENCODING 57692
SWIDTH 1000 0
DWIDTH 12 0
BBX 18 9 -3 0
BITMAP
000000003300000000
0000002AEEA2000000
000004CFFFFC400000
00007EFFFFFFE70000
002AEFFFFFFFFE9200
04CFFFFFFFFFFFFC40
5EFFFFFFFFFFFFFFE5
ADDFFFFFFFFFFFFDDA
136CCCCCCCCCCCC631
ENDCHAR
STARTCHAR uni2B24.salt
ENCODING 57693
SWIDTH 1280 0
DWIDTH 15 0
BBX 14 15 1 -3
BITMAP
00000121000000
0026BDDDC83000
06DFFFFFFFE910
6EFFFFFFFFFFA1
AFFFFFFFFFFFD2
AFFFFFFFFFFFD2
AFFFFFFFFFFFD2
AFFFFFFFFFFFD2
AFFFFFFFFFFFD2
AFFFFFFFFFFFD2
AFFFFFFFFFFFD2
9FFFFFFFFFFFD2
1AEFFFFFFFFD40
005CEFFFED8200
00003455410000
ENDCHAR
STARTCHAR uni25DD.curve
ENCODING 57694
SWIDTH 1280 0
DWIDTH 15 0
BBX 14 14 1 -3
BITMAP
7AAAAAAA962000
AFFFFFFFFFC400
AFFFFFFFFFFD30
AFFFFFFFFFFF90
AFFFFFFFFFFFD0
AFFFFFFFFFFFD2
AFFFFFFFFFFFD2
AFFFFFFFFFFFD2
AFFFFFFFFFFFD2
AFFFFFFFFFFFD2
AFFFFFFFFFFFD2
AFFFFFFFFFFFD2
9DDDDDDDDDDDC2
12222222222220
ENDCHAR
STARTCHAR uni2B1B.trapezoid_e
ENCODING 57695
SWIDTH 1280 0
DWIDTH 15 0
BBX 15 14 1 -3
BITMAP
7AAAAAAAAAAAAA30
AFFFFFFFFFFFFD30
AFFFFFFFFFFFFD00
AFFFFFFFFFFFFA00
AFFFFFFFFFFFF700
AFFFFFFFFFFFF400
AFFFFFFFFFFFD300
AFFFFFFFFFFFD000
AFFFFFFFFFFFA000
AFFFFFFFFFFF7000
AFFFFFFFFFFF4000
AFFFFFFFFFFD3000
9DDDDDDDDDDC0000
1222222222220000
ENDCHAR
STARTCHAR uni2B1B.trapezoid_w
ENCODING 57696
SWIDTH 1280 0
DWIDTH 15 0
BBX 15 14 0 -3
BITMAP
8AAAAAAAAAAAA920
AFFFFFFFFFFFFD30
7FFFFFFFFFFFFD30
4FFFFFFFFFFFFD30
3DFFFFFFFFFFFD30
0DFFFFFFFFFFFD30
0AFFFFFFFFFFFD30
07FFFFFFFFFFFD30
04FFFFFFFFFFFD30
03DFFFFFFFFFFD30
00DFFFFFFFFFFD30
00AFFFFFFFFFFD30
007DDDDDDDDDDC30
0012222222222200
ENDCHAR
STARTCHAR arrowleft.chevron
ENCODING 57697
SWIDTH 1330 0
DWIDTH 16 0
BBX 16 18 0 -5
BITMAP
0000005600000000
000004D700000000
00002CFCAAAAAAA8
0001AFFFFFFFFFF7
0009FFFFFFFFFFE2
007EFFFFFFFFFFA0
05EFFFFFFFFFFE50
3DFFFFFFFFFFFC10
AFFFFFFFFFFFF800
6EFFFFFFFFFFFB00
08FFFFFFFFFFFE30
01AFFFFFFFFFFF80
002CFFFFFFFFFFD1
0003DFFFFFFFFFF5
00005EFDDDDDDDD9
000007E822222222
0000009700000000
0000001100000000
ENDCHAR
STARTCHAR arrowup.chevron
ENCODING 57698
SWIDTH 1280 0
DWIDTH 15 0
BBX 18 18 -1 -5
BITMAP
000000017400000000
0000002BFE70000000
000004CFFFE9100000
00006EFFFFFFB20000
0018EFFFFFFFFC3000
01AFFFFFFFFFFFD600
2BFFFFFFFFFFFFFE80
7ACFFFFFFFFFFFEA92
009FFFFFFFFFFFD400
009FFFFFFFFFFFD400
009FFFFFFFFFFFD400
009FFFFFFFFFFFD400
009FFFFFFFFFFFD400
009FFFFFFFFFFFD400
009FFFFECDFFFFD400
009FFD94026CEFD400
009C6200000049C300
002000000000002000
ENDCHAR
STARTCHAR arrowright.chevron
ENCODING 57699
SWIDTH 1330 0
DWIDTH 16 0
BBX 16 18 0 -5
BITMAP
0000000065000000
000000007E400000
8AAAAAAABFC20000
7FFFFFFFFFFB1000
2DFFFFFFFFFF9000
0AFFFFFFFFFFE700
05EFFFFFFFFFFE50
01CFFFFFFFFFFFD3
008FFFFFFFFFFFFA
00BFFFFFFFFFFFE6
03EFFFFFFFFFFF80
08FFFFFFFFFFFA10
1CFFFFFFFFFFC200
5FFFFFFFFFFD3000
9DDDDDDDDFE50000
222222228E700000
0000000069000000
0000000011000000
ENDCHAR
STARTCHAR arrowdown.chevron
ENCODING 57700
SWIDTH 1280 0
DWIDTH 15 0
BBX 18 18 -1 -5
BITMAP
006510000000036200
009FD8300015AED400
009FFFEB57CFFFD400
009FFFFFFFFFFFD400
009FFFFFFFFFFFD400
009FFFFFFFFFFFD400
009FFFFFFFFFFFD400
009FFFFFFFFFFFD400
009FFFFFFFFFFFD400
34AFFFFFFFFFFFD641
7DEFFFFFFFFFFFFEB2
06EFFFFFFFFFFFFB20
004DFFFFFFFFFE9100
0002BFFFFFFFE70000
000019FFFFFD500000
0000008EFFB3000000
00000005D910000000
000000002000000000
ENDCHAR
STARTCHAR uni25D6.deco
ENCODING 57701
SWIDTH 560 0
DWIDTH 7 0
BBX 8 16 0 -4
BITMAP
00005B30
0009DFA2
005DFFF3
07EFFFF3
1DFFFFF3
3EFFFFF3
4FFFFFF3
4FFFFFF3
4FFFFFF3
4EFFFFF3
2DFFFFF3
09FFFFF3
029EFFF3
000CFFD3
00027D50
00001310
ENDCHAR
STARTCHAR uni25D7.deco
ENCODING 57702
SWIDTH 560 0
DWIDTH 7 0
BBX 8 16 -1 -4
BITMAP
06A20000
5CFD5000
7FFFB300
7FFFFD40
7FFFFF90
7FFFFFD0
7FFFFFD1
7FFFFFD2
7FFFFFD1
7FFFFFD0
7FFFFFB0
7FFFFE60
7FFFD700
6EFF8000
18C61000
02300000
ENDCHAR
STARTCHAR uni25D6.v_deco
ENCODING 57703
SWIDTH 1280 0
DWIDTH 15 0
BBX 16 8 0 0
BITMAP
0000012331000000
0004ADDDDDC71000
003DFFFFFFFF7000
06CFFFFFFFFFD910
3DFFFFFFFFFFFF70
AFFFFFFFFFFFFFC3
5BFFFFFFFFFFFD71
0466666666666510
ENDCHAR
STARTCHAR uni25D7.v_deco
ENCODING 57704
SWIDTH 1280 0
DWIDTH 15 0
BBX 16 8 0 1
BITMAP
0011111111111100
2BFFFFFFFFFFFD50
AEFFFFFFFFFFFFC3
6DFFFFFFFFFFFF92
0AEFFFFFFFFFEC30
016EFFFFFFFF9200
0009DFFFFFEB3000
0000256765300000
ENDCHAR
STARTCHAR uni25D6.bevel
ENCODING 57705
SWIDTH 350 0
DWIDTH 4 0
BBX 5 14 0 -3
BITMAP
000770
01AEA0
06FFA0
2DFFA0
2DFFA0
2DFFA0
2DFFA0
2DFFA0
2DFFA0
2DFFA0
1AFFA0
02DFA0
002A90
000120
ENDCHAR
STARTCHAR uni25D7.bevel
ENCODING 57706
SWIDTH 350 0
DWIDTH 4 0
BBX 5 14 -1 -3
BITMAP
590000
7EC200
7FF810
7FFF40
7FFF40
7FFF40
7FFF40
7FFF40
7FFF40
7FFF40
7FFC30
7FE500
6B3000
120000
ENDCHAR
STARTCHAR uni25D6.v_bevel
ENCODING 57707
SWIDTH 1280 0
DWIDTH 15 0
BBX 14 5 1 2
BITMAP
00134444442000
027DDDDDDDA300
0BFFFFFFFFFE30
8EFFFFFFFFFFB1
69999999999981
ENDCHAR
STARTCHAR uni25D7.v_bevel
ENCODING 57708
SWIDTH 1280 0
DWIDTH 15 0
BBX 14 5 1 2
BITMAP
24444444444431
9EFFFFFFFFFFC2
2DFFFFFFFFFF60
05BFFFFFFFD800
00277777775000
ENDCHAR
STARTCHAR uni25D6.spike
ENCODING 57709
SWIDTH 350 0
DWIDTH 4 0
BBX 5 15 0 -3
BITMAP
010000
0ACB70
05FFA0
01CFA0
008FA0
01BFA0
09FFA0
6EFFA0
2CFFA0
03DFA0
007FA0
00BFA0
03EFA0
08ED90
044320
ENDCHAR
STARTCHAR uni25D7.spike
ENCODING 57710
SWIDTH 350 0
DWIDTH 4 0
BBX 5 15 -1 -3
BITMAP
000100
5ACC10
7FF700
7FE300
7FB000
7FD200
7FFB10
7FFF80
7FFD30
7FE500
7FA000
7FD200
7FF600
6DEB00
134410
ENDCHAR
STARTCHAR uni25D6.v_spike
ENCODING 57711
SWIDTH 1280 0
DWIDTH 15 0
BBX 14 5 1 2
BITMAP
00000041000000
830008EB200264
DEB69EFFC59DF4
BFFFFFFFFFFFD3
8CCCCCCCCCCCB2
ENDCHAR
STARTCHAR uni25D7.v_spike
ENCODING 57712
SWIDTH 1280 0
DWIDTH 15 0
BBX 14 5 1 2
BITMAP
47777777777761
AFFFFFFFFFFFD3
CFEBDFFFEBDFE4
C8302BFE6026B4
10000184000001
ENDCHAR
STARTCHAR uni25D6.square
ENCODING 57713
SWIDTH 350 0
DWIDTH 4 0
BBX 4 14 1 -3
BITMAP
6AA7
AFFA
AFFA
AFFA
AFFA
AFFA
AFFA
AFFA
AFFA
AFFA
AFFA
AFFA
9DD9
1222
ENDCHAR
STARTCHAR uni25D7.square
ENCODING 57714
SWIDTH 350 0
DWIDTH 4 0
BBX 4 14 -1 -3
BITMAP
5AA8
7FFD
7FFD
7FFD
7FFD
7FFD
7FFD
7FFD
7FFD
7FFD
7FFD
7FFD
6DDC
1221
ENDCHAR
STARTCHAR uni25D6.v_square
ENCODING 57715
SWIDTH 1280 0
DWIDTH 15 0
BBX 14 5 1 2
BITMAP
01111111111100
8DDDDDDDDDDDC1
AFFFFFFFFFFFD2
AFFFFFFFFFFFD2
46666666666661
ENDCHAR
STARTCHAR uni25D7.v_square
ENCODING 57716
SWIDTH 1280 0
DWIDTH 15 0
BBX 14 5 1 2
BITMAP
11111111111110
AFFFFFFFFFFFD2
AFFFFFFFFFFFD2
AFFFFFFFFFFFD2
24444444444440
ENDCHAR
STARTCHAR uni25D6.rounded
ENCODING 57717
SWIDTH 350 0
DWIDTH 4 0
BBX 5 14 0 -3
BITMAP
005970
04DFA0
09FFA0
0CFFA0
1DFFA0
2DFFA0
2DFFA0
2DFFA0
1DFFA0
0DFFA0
0AFFA0
06EFA0
019D90
000220
ENDCHAR
STARTCHAR uni25D7.rounded
ENCODING 57718
SWIDTH 350 0
DWIDTH 4 0
BBX 5 14 -1 -3
BITMAP
5A6000
7FE600
7FFC00
7FFD20
7FFD40
7FFE30
7FFF40
7FFF40
7FFE40
7FFD30
7FFD00
7FF800
6DA200
120000
ENDCHAR
STARTCHAR uni25D6.v_rounded
ENCODING 57719
SWIDTH 1280 0
DWIDTH 15 0
BBX 14 5 1 2
BITMAP
00002333210000
04ADDDDDDDB610
5EFFFFFFFFFFA0
9FFFFFFFFFFFD2
69999999999981
ENDCHAR
STARTCHAR uni25D7.v_rounded
ENCODING 57720
SWIDTH 1280 0
DWIDTH 15 0
BBX 14 5 1 2
BITMAP
24444444444431
AFFFFFFFFFFFD2
7FFFFFFFFFFFC0
19DFFFFFFFDB30
00246777643000
ENDCHAR
STARTCHAR uni21AB.arrow
ENCODING 57721
SWIDTH 1000 0
DWIDTH 12 0
BBX 16 22 -1 -11
BITMAP
4AAAA96300000000
6FFFFFFEB4000000
6FFFFFFFFE600000
6FFFFFFFFFD40000
6FFFFFFFFFFB0000
6FFFFFFFFFFE4000
6FFFFFFFFFFF7000
6FFFFFFFFFFFA000
6FFFFFFFFFFFB000
6FFFFFFFFFFFC000
6FFFFFFFFFFFD000
6FFFFFFFFFFFD000
6DFFFFFFFFFFD000
13CFFFFFFFFFD000
57CFFFFFFFFFD761
6EFFFFFFFFFFFF91
05EFFFFFFFFFF910
005EFFFFFFFE8000
0004DFFFFFE80000
00004DFFFE700000
000004DFE6000000
0000003B50000000
ENDCHAR
STARTCHAR uni21AC.arrow
ENCODING 57722
SWIDTH 1000 0
DWIDTH 12 0
BBX 16 23 -1 -3
BITMAP
0000001620000000
000001AFC3000000
00001AFFFC300000
0002BFFFFFD40000
002BFFFFFFFD4000
02BFFFFFFFFFE500
2CFFFFFFFFFFFE60
9CDFFFFFFFFFECB2
00CFFFFFFFFFD000
4BEFFFFFFFFFD000
6FFFFFFFFFFFD000
6FFFFFFFFFFFD000
6FFFFFFFFFFFD000
6FFFFFFFFFFFC000
6FFFFFFFFFFFB000
6FFFFFFFFFFF8000
6FFFFFFFFFFF5000
6FFFFFFFFFFC1000
6FFFFFFFFFE60000
6FFFFFFFFFA00000
6FFFFFFFE8100000
6DDDDDC830000000
1222210000000000
ENDCHAR
STARTCHAR uni21AB.v_arrow
ENCODING 57723
SWIDTH 1335 0
DWIDTH 16 0
BBX 23 16 -8 -4
BITMAP
000000021000000000000000
0000002A44CCCCCCCCCCCC50
000002CE68FFFFFFFFFFFF60
00002BFFDEFFFFFFFFFFFF60
0002BFFFFFFFFFFFFFFFFF60
001AFFFFFFFFFFFFFFFFFF50
01AFFFFFFFFFFFFFFFFFFF40
0AFFFFFFFFFFFFFFFFFFFD20
2DFFFFFFFFFFFFFFFFFFFB00
05EFFFFFFFFFFFFFFFFFE500
005EFFFFFFFFFFFFFFFF9000
0006EFFFFFFFFFFFFFE81000
00007EFFFFFFFFFFDA400000
000008EE8777765420000000
0000008D4000000000000000
000000073000000000000000
ENDCHAR
STARTCHAR uni21AC.v_arrow
ENCODING 57724
SWIDTH 1335 0
DWIDTH 16 0
BBX 23 16 1 -4
BITMAP
000000000000000200000000
4CCCCCCCCCCCC53A30000000
5FFFFFFFFFFFF96DC2000000
5FFFFFFFFFFFFFDFFC200000
5FFFFFFFFFFFFFFFFFB20000
5FFFFFFFFFFFFFFFFFFB2000
4FFFFFFFFFFFFFFFFFFFA100
2DFFFFFFFFFFFFFFFFFFFA10
0BFFFFFFFFFFFFFFFFFFFD30
05EFFFFFFFFFFFFFFFFFE500
008FFFFFFFFFFFFFFFFE6000
0018EFFFFFFFFFFFFFE70000
00004ADEFFFFFFFFFE700000
000000245677778EF8000000
000000000000003D90000000
000000000000002710000000
ENDCHAR
STARTCHAR uni25D6.wings
ENCODING 57725
SWIDTH 900 0
DWIDTH 11 0
BBX 12 19 0 -5
BITMAP
000111111000
007DDDDDB000
008FFFFFE400
7ACFFFFFFDB3
AFFFFFFFFFF4
AFFFFFFFFFF4
AFFFFFFFFFF4
AFFFFFFFFFF4
AFFFFFFFFFF4
AFFFFFFFFFF4
AFFFFFFFFFF4
AFFFFFFFFFF4
AFFFFFFFFFF4
AFFFFFFFFFF4
AFFFFFFFFFF4
9DEFFFFFFFD4
129FFFFFE731
008FFFFFD000
003555554000
ENDCHAR
STARTCHAR uni25D7.wings
ENCODING 57726
SWIDTH 900 0
DWIDTH 11 0
BBX 12 19 -1 -5
BITMAP
000111111000
002CDDDDD500
006EFFFFF500
5BEFFFFFFBA5
7FFFFFFFFFF7
7FFFFFFFFFF7
7FFFFFFFFFF7
7FFFFFFFFFF7
7FFFFFFFFFF7
7FFFFFFFFFF7
7FFFFFFFFFF7
7FFFFFFFFFF7
7FFFFFFFFFF7
7FFFFFFFFFF7
7FFFFFFFFFF7
6DFFFFFFFDD6
139FFFFFF621
003DFFFFF500
000555555200
ENDCHAR
STARTCHAR uni25D6.v_wings
ENCODING 57727
SWIDTH 1280 0
DWIDTH 15 0
BBX 19 12 -2 -2
BITMAP
0008BBBBBBBBBBBA1000
000AFFFFFFFFFFFD2000
099CFFFFFFFFFFFEA930
1DFFFFFFFFFFFFFFFF50
1DFFFFFFFFFFFFFFFF50
1DFFFFFFFFFFFFFFFF50
1DFFFFFFFFFFFFFFFF50
1DFFFFFFFFFFFFFFFF50
1ADFFFFFFFFFFFFFEC40
003DFFFFFFFFFFFF7000
000BFFFFFFFFFFFD3000
00023333333333330000
ENDCHAR
STARTCHAR uni25D7.v_wings
ENCODING 57728
SWIDTH 1280 0
DWIDTH 15 0
BBX 19 12 -2 -2
BITMAP
0009DDDDDDDDDDDB2000
001CFFFFFFFFFFFE4000
06AFFFFFFFFFFFFFC720
1DFFFFFFFFFFFFFFFF50
1DFFFFFFFFFFFFFFFF50
1DFFFFFFFFFFFFFFFF50
1DFFFFFFFFFFFFFFFF50
1DFFFFFFFFFFFFFFFF50
1CDEFFFFFFFFFFFEDD50
011AFFFFFFFFFFFD4100
0009DDDDDDDDDDDC2000
00023333333333330000
ENDCHAR
STARTCHAR uni2B1B.chevron_e
ENCODING 57729
SWIDTH 1280 0
DWIDTH 15 0
BBX 16 14 0 -3
BITMAP
8AAAAAAAAAAA9000
7FFFFFFFFFFFE400
3DFFFFFFFFFFF900
0AFFFFFFFFFFFD20
05EFFFFFFFFFFF60
01CFFFFFFFFFFFC0
008FFFFFFFFFFFE3
00BFFFFFFFFFFFD2
03EFFFFFFFFFFF80
08FFFFFFFFFFFE40
1DFFFFFFFFFFFB00
5FFFFFFFFFFFF600
9DDDDDDDDDDDC200
2222222222222000
ENDCHAR
STARTCHAR uni2B1B.chevron_n
ENCODING 57730
SWIDTH 1280 0
DWIDTH 15 0
BBX 14 16 1 -4
BITMAP
000027C8400000
014ADFFFEB6200
6CEFFFFFFFFD91
AFFFFFFFFFFFD2
AFFFFFFFFFFFD2
AFFFFFFFFFFFD2
AFFFFFFFFFFFD2
AFFFFFFFFFFFD2
AFFFFFFFFFFFD2
AFFFFFFFFFFFD2
AFFFFFFFFFFFD2
AFFFFFFFFFFFD2
AFFFFEDEFFFFD2
AFFDA5138CFFD2
9C730000015AC2
31000000000030
ENDCHAR
STARTCHAR uni2B1B.chevron_s
ENCODING 57731
SWIDTH 1280 0
DWIDTH 15 0
BBX 14 16 1 -4
BITMAP
994000000026B2
AFEB620049DFD2
AFFFFD9CEFFFD2
AFFFFFFFFFFFD2
AFFFFFFFFFFFD2
AFFFFFFFFFFFD2
AFFFFFFFFFFFD2
AFFFFFFFFFFFD2
AFFFFFFFFFFFD2
AFFFFFFFFFFFD2
AFFFFFFFFFFFD2
AFFFFFFFFFFFD2
8EFFFFFFFFFEC2
038CFFFFFDA510
00015BDC730000
00000031000000
ENDCHAR
STARTCHAR uni2B1B.chevron_w
ENCODING 57732
SWIDTH 1280 0
DWIDTH 15 0
BBX 16 14 0 -3
BITMAP
006AAAAAAAAAAAA2
00CFFFFFFFFFFFC1
04EFFFFFFFFFFF70
09FFFFFFFFFFFE20
2DFFFFFFFFFFFA00
6FFFFFFFFFFFF400
BFFFFFFFFFFFD100
8FFFFFFFFFFFE300
4EFFFFFFFFFFF800
0BFFFFFFFFFFFD10
06FFFFFFFFFFFF50
02DFFFFFFFFFFFB0
009DDDDDDDDDDDC3
0012222222222220
ENDCHAR
STARTCHAR uni2B1B.semichevron_e
ENCODING 57733
SWIDTH 650 0
DWIDTH 8 0
BBX 9 14 0 -3
BITMAP
8AAAAAAA30
7FFFFFFF50
3EFFFFFF50
0AFFFFFF50
05FFFFFF50
01CFFFFF50
008FFFFF50
00BFFFFF50
03EFFFFF50
08FFFFFF50
1DFFFFFF50
5FFFFFFF50
ADDDDDDD50
2222222210
ENDCHAR
STARTCHAR uni2B1B.semichevron_w
ENCODING 57734
SWIDTH 650 0
DWIDTH 8 0
BBX 9 14 -1 -3
BITMAP
5AAAAAAA60
7FFFFFFF50
7FFFFFFD10
7FFFFFF800
7FFFFFE300
7FFFFFB000
7FFFFF6000
7FFFFF9000
7FFFFFD200
7FFFFFF600
7FFFFFFB00
7FFFFFFE40
6DDDDDDD80
1222222210
ENDCHAR
STARTCHAR uni2B1B.semichevron_n
ENCODING 57735
SWIDTH 1000 0
DWIDTH 12 0
BBX 14 9 -1 0
BITMAP
23000000000032
6EB51000015BE6
6FFFD8338DFFF6
6FFFFFEEFFFFF6
6FFFFFFFFFFFF6
6FFFFFFFFFFFF6
6FFFFFFFFFFFF6
6FFFFFFFFFFFF6
5CCCCCCCCCCCC5
ENDCHAR
STARTCHAR uni2B1B.semichevron_s
ENCODING 57736
SWIDTH 1000 0
DWIDTH 12 0
BBX 14 9 -1 0
BITMAP
37777777777773
6FFFFFFFFFFFF6
6FFFFFFFFFFFF6
6FFFFFFFFFFFF6
6FFFFFFFFFFFF6
6FFFFFFFFFFFF6
6FFFFC77CFFFF6
6FDA510015AEF6
47300000000374
ENDCHAR
STARTCHAR space.v
ENCODING 57737
SWIDTH 1000 0
DWIDTH 12 0
BBX 1 1 0 0
BITMAP
00
ENDCHAR
STARTCHAR Agrave.v
ENCODING 57738
SWIDTH 1000 0
DWIDTH 12 0
BBX 10 14 1 -2
BITMAP
0001100000
0064122210
05F5122020
06FFCB9720
0197010110
01E2212120
07B1171211
0C620D6202
3F32000112
7F32111212
7F322D9012
7F303FB002
7FFE4FFFB1
2662056600
ENDCHAR
STARTCHAR Aacute.v
ENCODING 57739
SWIDTH 1000 0
DWIDTH 12 0
BBX 10 14 1 -2
BITMAP
0000000200
0013222020
01C4122120
06FB89B900
04E7010110
01E2212120
07B1171211
0C620D6202
3F32000112
7F32111212
7F322D9012
7F303FB002
7FFE4FFFB1
2662056600
ENDCHAR
STARTCHAR Acircumflex.v
ENCODING 57740
SWIDTH 1000 0
DWIDTH 12 0
BBX 10 14 1 -2
BITMAP
0000021000
0003121210
01C4111020
06FBADC920
05E7010110
01E2212120
07B1171211
0C620D6202
3F32000112
7F32111212
7F322D9012
7F303FB002
7FFE4FFFB1
2662056600
ENDCHAR
STARTCHAR Atilde.v
ENCODING 57741
SWIDTH 1000 0
DWIDTH 12 0
BBX 10 13 1 -2
BITMAP
0013222220
02C4122020
06FB987610
04D7010110
01E2212120
07B1171211
0C620D6202
3F32000112
7F32111212
7F322D9012
7F303FB002
7FFE4FFFB1
2662056600
ENDCHAR
STARTCHAR Adieresis.v
ENCODING 57742
SWIDTH 1000 0
DWIDTH 12 0
BBX 10 13 1 -2
BITMAP
0072263220
08F0181120
0AFA7B8830
07E7010110
01E2212120
07B1171211
0C620D6202
3F32000112
7F32111212
7F322D9012
7F303FB002
7FFE4FFFB1
2662056600
ENDCHAR
STARTCHAR Aring.v
ENCODING 57743
SWIDTH 1000 0
DWIDTH 12 0
BBX 10 14 1 -2
BITMAP
0000122100
0014222210
01C3273220
07F32A5220
07F6233020
04F1201120
08A1192211
0D520D6202
3F33222212
7F32000012
7F323D9012
8F303FB002
7FFE4FFFB1
2662056600
ENDCHAR
STARTCHAR Amacron.v
ENCODING 57744
SWIDTH 1000 0
DWIDTH 12 0
BBX 10 13 1 -2
BITMAP
0013222210
02D4122020
06FB777710
04D7010110
01E2212120
07B1171211
0C620D6202
3F32000112
7F32111212
7F322D9012
7F303FB002
7FFE4FFFB1
2662056600
ENDCHAR
STARTCHAR Abreve.v
ENCODING 57745
SWIDTH 1000 0
DWIDTH 12 0
BBX 10 14 1 -2
BITMAP
0002202210
00A3145120
07F6222120
05FF967600
01B7010110
01E2212120
07B1171211
0C620D6202
3F32000112
7F32111212
7F322D9012
7F303FB002
7FFE4FFFB1
2662056600
ENDCHAR
STARTCHAR Aogonek.v
ENCODING 57746
SWIDTH 1000 0
DWIDTH 12 0
BBX 10 13 1 -4
BITMAP
0003222200
0094122020
04E0220220
09820B4201
1E42073112
5F33222212
7F32154012
7F313FA112
7F975F8232
6EE91F7212
00003FC442
00002FFF80
0000013200
ENDCHAR
STARTCHAR Ccedilla.v
ENCODING 57747
SWIDTH 1000 0
DWIDTH 12 0
BBX 10 12 1 -3
BITMAP
0012222221
0251222202
1E32045552
7F222FFE40
8F22222100
8F22100000
8F32022222
7F80223202
3FFB511771
05CF603D30
003FFD3000
0027710000
ENDCHAR
STARTCHAR Cacute.v
ENCODING 57748
SWIDTH 1000 0
DWIDTH 12 0
BBX 10 14 1 -2
BITMAP
0000000210
0003222020
01B6122120
04FB89BA21
03C2011102
0942211102
4F221CDD91
8F22299700
8F22200000
8F22122221
8F51222202
6FD4100002
0CFFFFFF90
0046666500
ENDCHAR
STARTCHAR Ccircumflex.v
ENCODING 57749
SWIDTH 1000 0
DWIDTH 12 0
BBX 10 14 1 -2
BITMAP
0000022000
0003221220
01A6111120
04FBADC941
03C2011102
0942211102
4F221CDD91
8F22299700
8F22200000
8F22122221
8F51222202
6FD4100002
0CFFFFFF90
0046666500
ENDCHAR
STARTCHAR Cdotaccent.v
ENCODING 57750
SWIDTH 1000 0
DWIDTH 12 0
BBX 10 14 1 -2
BITMAP
0000122000
0003700200
001E810200
002FB77321
0042011102
0942211102
4F221CDD91
8F22299700
8F22200000
8F22122221
8F51222202
6FD4100002
0CFFFFFF90
0046666500
ENDCHAR
STARTCHAR Ccaron.v
ENCODING 57751
SWIDTH 1000 0
DWIDTH 12 0
BBX 10 14 1 -2
BITMAP
0002100210
0086122020
04F9122220
04FFC78821
0072011102
0942211102
4F221CDD91
8F22299700
8F22200000
8F22122221
8F51222202
6FD4100002
0CFFFFFF90
0046666500
ENDCHAR
STARTCHAR Dcaron.v
ENCODING 57752
SWIDTH 1000 0
DWIDTH 12 0
BBX 10 14 1 -2
BITMAP
0002100210
00A4122020
06F7122220
06EDB79600
0831111021
6F32111302
7F321D9022
7F321EB022
7F321CB022
7F32197022
7F32222202
7F30000130
7FFFFFF900
2666662000
ENDCHAR
STARTCHAR Egrave.v
ENCODING 57753
SWIDTH 1000 0
DWIDTH 12 0
BBX 10 14 1 -2
BITMAP
0001100000
0064122210
05F5122020
06EDCA9730
0931111102
6F32111102
7F321CCC91
7F33222020
7F32022220
7F321CC921
7F32222202
7F30000002
7FFFFFFF90
2666666500
ENDCHAR
STARTCHAR Eacute.v
ENCODING 57754
SWIDTH 1000 0
DWIDTH 12 0
BBX 10 14 1 -2
BITMAP
0000000200
0013222020
01C4122120
06E889B920
0931111102
6F32111102
7F321CCC91
7F33222020
7F32022220
7F321CC921
7F32222202
7F30000002
7FFFFFFF90
2666666500
ENDCHAR
STARTCHAR Ecircumflex.v
ENCODING 57755
SWIDTH 1000 0
DWIDTH 12 0
BBX 10 14 1 -2
BITMAP
0000021000
0003121210
01C4111020
06E9ADC840
0931111102
6F32111102
7F321CCC91
7F33222020
7F32022220
7F321CC921
7F32222202
7F30000002
7FFFFFFF90
2666666500
ENDCHAR
STARTCHAR Edieresis.v
ENCODING 57756
SWIDTH 1000 0
DWIDTH 12 0
BBX 10 13 1 -2
BITMAP
0072263220
08F0181120
0BE87B8740
0C31111102
6F32111102
7F321CCC91
7F33222020
7F32022220
7F321CC921
7F32222202
7F30000002
7FFFFFFF90
2666666500
ENDCHAR
STARTCHAR Emacron.v
ENCODING 57757
SWIDTH 1000 0
DWIDTH 12 0
BBX 10 13 1 -2
BITMAP
0013222210
02D4122020
06E9777730
0931111102
6F32111102
7F321CCC91
7F33222020
7F32022220
7F321CC921
7F32222202
7F30000002
7FFFFFFF90
2666666500
ENDCHAR
STARTCHAR Ebreve.v
ENCODING 57758
SWIDTH 1000 0
DWIDTH 12 0
BBX 10 14 1 -2
BITMAP
0002202210
00A3155120
07F6222120
06EC867620
0931111102
6F32111102
7F321CCC91
7F33222020
7F32022220
7F321CC921
7F32222202
7F30000002
7FFFFFFF90
2666666500
ENDCHAR
STARTCHAR Edotaccent.v
ENCODING 57759
SWIDTH 1000 0
DWIDTH 12 0
BBX 10 14 1 -2
BITMAP
0000122000
0004600200
002F610200
005DA77320
0831111102
6F32111102
7F321CCC91
7F33222020
7F32022220
7F321CC921
7F32222202
7F30000002
7FFFFFFF90
2666666500
ENDCHAR
STARTCHAR Eogonek.v
ENCODING 57760
SWIDTH 1000 0
DWIDTH 12 0
BBX 10 13 1 -4
BITMAP
0232222221
3E32222202
7F32166661
7F32166640
7F33222020
7F32199810
7F32144321
7F32222302
7F97773241
6EEEFF5212
00005FA442
00004FFF60
0000023200
ENDCHAR
STARTCHAR Ecaron.v
ENCODING 57761
SWIDTH 1000 0
DWIDTH 12 0
BBX 10 14 1 -2
BITMAP
0002100210
00A4122020
06F7122220
06EDB79720
0831111102
6F32111102
7F321CCC91
7F33222020
7F32022220
7F321CC921
7F32222202
7F30000002
7FFFFFFF90
2666666500
ENDCHAR
STARTCHAR Gcircumflex.v
ENCODING 57762
SWIDTH 1000 0
DWIDTH 12 0
BBX 10 14 1 -2
BITMAP
0000021000
0003121210
01C4111020
06FBBDC830
05C1011020
0942211020
5F221CDB20
8F2229A421
8F22259012
8F221B7012
8F51222212
6FD4100002
1CFFFFFFA1
0046666500
ENDCHAR
STARTCHAR Gbreve.v
ENCODING 57763
SWIDTH 1000 0
DWIDTH 12 0
BBX 10 14 1 -2
BITMAP
0002202210
00A3155120
07F6222120
06FF967610
01A1011020
0942211020
5F221CDB20
8F2229A421
8F22259012
8F221B7012
8F51222212
6FD4100002
1CFFFFFFA1
0046666500
ENDCHAR
STARTCHAR Gdotaccent.v
ENCODING 57764
SWIDTH 1000 0
DWIDTH 12 0
BBX 10 14 1 -2
BITMAP
0000122000
0004600200
002F610200
004FB77310
0041011020
0942211020
5F221CDB20
8F2229A421
8F22259012
8F221B7012
8F51222212
6FD4100002
1CFFFFFFA1
0046666500
ENDCHAR
STARTCHAR Gcommaaccent.v
ENCODING 57765
SWIDTH 1000 0
DWIDTH 12 0
BBX 10 14 1 -5
BITMAP
0011122220
0251222120
2E32045530
7F222FF800
8F22227222
8F222CA012
8F32042012
7F80222202
2FFB877772
04BE822C40
002E722200
004FC72100
001EC83000
001DD50000
ENDCHAR
STARTCHAR Hcircumflex.v
ENCODING 57766
SWIDTH 1000 0
DWIDTH 12 0
BBX 10 14 1 -2
BITMAP
0000021000
0003121210
01C4111020
06E9BFE841
09302CA002
6F321EA112
7F321A6112
7F33222212
7F32000112
7F321D8112
7F321FA112
7F302FA002
7FFE5FFFA1
2663056500
ENDCHAR
STARTCHAR Igrave.v
ENCODING 57767
SWIDTH 1000 0
DWIDTH 12 0
BBX 10 14 1 -2
BITMAP
0001100000
0064122210
05F5122020
06EDCA9731
0841111102
5F40121102
6FED420A91
29BF520600
005F520200
005B320221
0941232202
5F50000002
6FFFFFFF90
1666666500
ENDCHAR
STARTCHAR Iacute.v
ENCODING 57768
SWIDTH 1000 0
DWIDTH 12 0
BBX 10 14 1 -2
BITMAP
0000000200
0013222020
01C4122120
06E889B921
0941111102
5F40121102
6FED420A91
29BF520600
005F520200
005B320221
0941232202
5F50000002
6FFFFFFF90
1666666500
ENDCHAR
STARTCHAR Icircumflex.v
ENCODING 57769
SWIDTH 1000 0
DWIDTH 12 0
BBX 10 14 1 -2
BITMAP
0000021000
0003121210
01C4111020
06E9ADC841
0941111102
5F40121102
6FED420A91
29BF520600
005F520200
005B320221
0941232202
5F50000002
6FFFFFFF90
1666666500
ENDCHAR
STARTCHAR Idieresis.v
ENCODING 57770
SWIDTH 1000 0
DWIDTH 12 0
BBX 10 13 1 -2
BITMAP
0072263220
08F0181120
0BE87B8741
0B41111102
5F40121102
6FED420A91
29BF520600
005F520200
005B320221
0941232202
5F50000002
6FFFFFFF90
1666666500
ENDCHAR
STARTCHAR Itilde.v
ENCODING 57771
SWIDTH 1000 0
DWIDTH 12 0
BBX 10 13 1 -2
BITMAP
0013222220
02D4122020
06E9987631
0941111102
5F40121102
6FED420A91
29BF520600
005F520200
005B320221
0941232202
5F50000002
6FFFFFFF90
1666666500
ENDCHAR
STARTCHAR Imacron.v
ENCODING 57772
SWIDTH 1000 0
DWIDTH 12 0
BBX 10 13 1 -2
BITMAP
0013222210
02D4122020
06E9777731
0941111102
5F40121102
6FED420A91
29BF520600
005F520200
005B320221
0941232202
5F50000002
6FFFFFFF90
1666666500
ENDCHAR
STARTCHAR Ibreve.v
ENCODING 57773
SWIDTH 1000 0
DWIDTH 12 0
BBX 10 14 1 -2
BITMAP
0002202210
00A3155120
07F6222120
06EC867621
0741111102
5F40121102
6FED420A91
29BF520600
005F520200
005B320221
0941232202
5F50000002
6FFFFFFF90
1666666500
ENDCHAR
STARTCHAR Iogonek.v
ENCODING 57774
SWIDTH 1000 0
DWIDTH 12 0
BBX 10 13 1 -4
BITMAP
0142222221
2D41232202
6F85220452
5FFF520B40
026F520200
005F520200
0254120222
3E41222302
6FA7773241
4EEEFF5212
00005FB442
00003FFF60
0000013200
ENDCHAR
STARTCHAR Idotaccent.v
ENCODING 57775
SWIDTH 1000 0
DWIDTH 12 0
BBX 10 14 1 -2
BITMAP
0000122000
0004600200
002F610200
004DA77321
0741111102
5F40121102
6FED420A91
29BF520600
005F520200
005B320221
0941232202
5F50000002
6FFFFFFF90
1666666500
ENDCHAR
STARTCHAR Jcircumflex.v
ENCODING 57776
SWIDTH 1000 0
DWIDTH 12 0
BBX 10 14 1 -2
BITMAP
0000002200
0000322121
001B511112
005FBCFC83
004C78A002
00001E9112
00001F9112
02324F9112
3E313F9112
7F322C6112
7F52212202
6FD3000130
1DFFECD900
0168984000
ENDCHAR
STARTCHAR Kcommaaccent.v
ENCODING 57777
SWIDTH 1000 0
DWIDTH 12 0
BBX 10 14 1 -5
BITMAP
0232303221
3E311B1120
7F32191120
7F32012021
7F33223202
7F32164112
7F321FA012
7F311FA012
7F975FD772
6EEC622C40
002E722200
004FC72100
001EC83000
001DD50000
ENDCHAR
STARTCHAR Lacute.v
ENCODING 57778
SWIDTH 1000 0
DWIDTH 12 0
BBX 10 14 1 -2
BITMAP
0000002000
0132220200
2D31221200
7F98AE7000
6F30240000
6F32100000
7F32100000
7F32103221
7F3216C012
7F321A9022
7F32222222
7F30000002
7FFFFFFFA1
2666666500
ENDCHAR
STARTCHAR Lcommaaccent.v
ENCODING 57779
SWIDTH 1000 0
DWIDTH 12 0
BBX 10 14 1 -5
BITMAP
0232300000
3E31100000
7F32100000
7F32100220
7F32118002
7F321CC012
7F32043022
7F32222212
7F97777772
6EEF822C40
002E722200
004FC72100
001EC83000
001DD50000
ENDCHAR
STARTCHAR Lcaron.v
ENCODING 57780
SWIDTH 1000 0
DWIDTH 12 0
BBX 10 11 1 -2
BITMAP
0232203322
3E3114E012
7F321AC012
7F321DD651
7F321ED532
7F3218C012
7F321A9022
7F32222222
7F30000002
7FFFFFFFB1
2666666500
ENDCHAR
STARTCHAR Ntilde.v
ENCODING 57781
SWIDTH 1000 0
DWIDTH 12 0
BBX 10 13 1 -2
BITMAP
0013222220
02D4122020
06E9BB9631
09303EB002
6F3324B022
7F32112022
7F32011022
7F32232122
7F322E2222
7F322FA022
7F302FC002
7FFE4EFFB1
2662056500
ENDCHAR
STARTCHAR Nacute.v
ENCODING 57782
SWIDTH 1000 0
DWIDTH 12 0
BBX 10 14 1 -2
BITMAP
0000000200
0013222020
01C4122120
06E89CDA21
09303AB002
6F3324B022
7F32112022
7F32011022
7F32232122
7F322E2222
7F322FA022
7F302FC002
7FFE4EFFB1
2662056500
ENDCHAR
STARTCHAR Ncommaaccent.v
ENCODING 57783
SWIDTH 1000 0
DWIDTH 12 0
BBX 10 14 1 -5
BITMAP
0232204222
3E3217B012
7F32318022
7F32030022
7F32112022
7F32291222
7F322F6122
7F312FB012
7F975EE772
6EEB622C40
002E722200
004FC72100
001EC83000
001DD50000
ENDCHAR
STARTCHAR Ncaron.v
ENCODING 57784
SWIDTH 1000 0
DWIDTH 12 0
BBX 10 14 1 -2
BITMAP
0002100210
00A4122020
06F7122220
06EDD9B721
08303BB002
6F3324B022
7F32112022
7F32011022
7F32232122
7F322E2222
7F322FA022
7F302FC002
7FFE4EFFB1
2662056500
ENDCHAR
STARTCHAR Ograve.v
ENCODING 57785
SWIDTH 1000 0
DWIDTH 12 0
BBX 10 14 1 -2
BITMAP
0001100000
0064122210
05F5122020
06FEB86720
0181122021
0A32100202
5F221E9012
8F222EB022
8F222CB022
8F221B8012
8F41212202
6FC3010030
1DFFECD910
0168984000
ENDCHAR
STARTCHAR Oacute.v
ENCODING 57786
SWIDTH 1000 0
DWIDTH 12 0
BBX 10 14 1 -2
BITMAP
0000000200
0013222020
01C4122120
06FA679910
05B1122021
0A32100202
5F221E9012
8F222EB022
8F222CB022
8F221B8012
8F41212202
6FC3010030
1DFFECD910
0168984000
ENDCHAR
STARTCHAR Ocircumflex.v
ENCODING 57787
SWIDTH 1000 0
DWIDTH 12 0
BBX 10 14 1 -2
BITMAP
0000021000
0003121210
01C4111020
06FA9AA820
05B1122021
0A32100202
5F221E9012
8F222EB022
8F222CB022
8F221B8012
8F41212202
6FC3010030
1DFFECD910
0168984000
ENDCHAR
STARTCHAR Otilde.v
ENCODING 57788
SWIDTH 1000 0
DWIDTH 12 0
BBX 10 13 1 -2
BITMAP
0013222220
02D4122020
06FB864610
04B1122021
0A32100202
5F221E9012
8F222EB022
8F222CB022
8F221B8012
8F41212202
6FC3010030
1DFFECD910
0168984000
ENDCHAR
STARTCHAR Odieresis.v
ENCODING 57789
SWIDTH 1000 0
DWIDTH 12 0
BBX 10 13 1 -2
BITMAP
0072263220
08F0181120
0BF9686730
07B1122021
0A32100202
5F221E9012
8F222EB022
8F222CB022
8F221B8012
8F41212202
6FC3010030
1DFFECD910
0168984000
ENDCHAR
STARTCHAR Omacron.v
ENCODING 57790
SWIDTH 1000 0
DWIDTH 12 0
BBX 10 13 1 -2
BITMAP
0013222210
02D4122020
06FB655720
04B1122021
0A32100202
5F221E9012
8F222EB022
8F222CB022
8F221B8012
8F41212202
6FC3010030
1DFFECD910
0168984000
ENDCHAR
STARTCHAR Obreve.v
ENCODING 57791
SWIDTH 1000 0
DWIDTH 12 0
BBX 10 14 1 -2
BITMAP
0002202210
00A3155120
07F6222120
06FE745600
0191122021
0A32100202
5F221E9012
8F222EB022
8F222CB022
8F221B8012
8F41212202
6FC3010030
1DFFECD910
0168984000
ENDCHAR
STARTCHAR Ohungarumlaut.v
ENCODING 57792
SWIDTH 1000 0
DWIDTH 12 0
BBX 10 15 1 -2
BITMAP
0000110110
0007137111
00B825A220
01F4196120
05FA697720
05B1122021
0A32100202
5F221E9012
8F222EB022
8F222CB022
8F221B8012
8F41212202
6FC3010030
1DFFECD910
0168984000
ENDCHAR
STARTCHAR Racute.v
ENCODING 57793
SWIDTH 1000 0
DWIDTH 12 0
BBX 10 14 1 -2
BITMAP
0000000200
0022222020
03E1222120
09E78AC700
0B31111120
6F32111220
7F322F2220
7F32160230
7F33222202
7F32164022
7F322FC012
7F302EC002
7FFE5DFFC1
2662056600
ENDCHAR
STARTCHAR Rcommaaccent.v
ENCODING 57794
SWIDTH 1000 0
DWIDTH 12 0
BBX 10 14 1 -5
BITMAP
0232222210
3E32222120
7F32171220
7F322E2220
7F33222321
7F32000112
7F321EA022
7F312FC012
7F975DE773
6EEC622C50
002E722200
004FC72100
001EC83000
001DD50000
ENDCHAR
STARTCHAR Rcaron.v
ENCODING 57795
SWIDTH 1000 0
DWIDTH 12 0
BBX 10 14 1 -2
BITMAP
0002100210
00A4122020
06F7122220
06EDB79600
0931111120
6F32111220
7F322F2220
7F32160230
7F33222202
7F32164022
7F322FC012
7F302EC002
7FFE5DFFC1
2662056600
ENDCHAR
STARTCHAR Sacute.v
ENCODING 57796
SWIDTH 1000 0
DWIDTH 12 0
BBX 10 14 1 -2
BITMAP
0000000200
0013222020
01C4122120
06FB89B920
05B1111102
0A42111102
5F320ABC80
7F41221011
7FB2001302
3EEDCB6112
0A31222302
6F30000130
7FFFFFFA00
2666663000
ENDCHAR
STARTCHAR Scircumflex.v
ENCODING 57797
SWIDTH 1000 0
DWIDTH 12 0
BBX 10 14 1 -2
BITMAP
0000021000
0003121210
01C4111020
06FBADC840
05B1111102
0A42111102
5F320ABC80
7F41221011
7FB2001302
3EEDCB6112
0A31222302
6F30000130
7FFFFFFA00
2666663000
ENDCHAR
STARTCHAR Scedilla.v
ENCODING 57798
SWIDTH 1000 0
DWIDTH 12 0
BBX 10 12 1 -3
BITMAP
0012222221
0351222202
2E32077761
6F32034540
7F60222202
6FE9663112
1A86663112
3E31232211
7F97123830
6EFE007300
00AFF90000
0057500000
ENDCHAR
STARTCHAR Scaron.v
ENCODING 57799
SWIDTH 1000 0
DWIDTH 12 0
BBX 10 14 1 -2
BITMAP
0002100210
00A4122020
06F7122220
06FFC79720
0081111102
0A42111102
5F320ABC80
7F41221011
7FB2001302
3EEDCB6112
0A31222302
6F30000130
7FFFFFFA00
2666663000
ENDCHAR
STARTCHAR Scommaaccent.v
ENCODING 57800
SWIDTH 1000 0
DWIDTH 12 0
BBX 10 14 1 -5
BITMAP
0012222221
0351222202
2E32077761
6F32034540
7F60222202
6FE9663112
1A86663112
3E31222211
7F97777830
6EEF822400
002E722200
004FC72100
001EC83000
001DD50000
ENDCHAR
STARTCHAR Tcommaaccent.v
ENCODING 57801
SWIDTH 1000 0
DWIDTH 12 0
BBX 10 13 1 -4
BITMAP
0232222222
3E31232212
7F75220452
7FFF520B60
026F520200
005F520200
005F510200
005FA56200
004F621200
003F822200
004FA53100
001EDA3000
001AA30000
ENDCHAR
STARTCHAR Tcaron.v
ENCODING 57802
SWIDTH 1000 0
DWIDTH 12 0
BBX 10 14 1 -2
BITMAP
0002100210
00A4122020
06F7122220
06EDB79721
0831111102
6F30121102
7FED420AA1
39BF520710
005F520200
005F520200
005F520200
005F600200
005FFF9000
0016650000
ENDCHAR
STARTCHAR Ugrave.v
ENCODING 57803
SWIDTH 1000 0
DWIDTH 12 0
BBX 10 14 1 -2
BITMAP
0001100000
0064122210
05F5122020
06EDDDB731
09301DA002
6F321EA012
7F321FA012
7F321FA012
7F321FA012
7F320C7112
7F51212202
5FD3000130
0CFFECD900
0168984000
ENDCHAR
STARTCHAR Uacute.v
ENCODING 57804
SWIDTH 1000 0
DWIDTH 12 0
BBX 10 14 1 -2
BITMAP
0000000110
0003222120
00A8122120
03EA8BDB31
09301AA002
6F321EA012
7F321FA012
7F321FA012
7F321FA012
7F320C7112
7F51212202
5FD3000130
0CFFECD900
0168984000
ENDCHAR
STARTCHAR Ucircumflex.v
ENCODING 57805
SWIDTH 1000 0
DWIDTH 12 0
BBX 10 14 1 -2
BITMAP
0000021000
0003121210
01C4111020
06E9BFE841
09301CA002
6F321EA012
7F321FA012
7F321FA012
7F321FA012
7F320C7112
7F51212202
5FD3000130
0CFFECD900
0168984000
ENDCHAR
STARTCHAR Udieresis.v
ENCODING 57806
SWIDTH 1000 0
DWIDTH 12 0
BBX 10 13 1 -2
BITMAP
0072263220
08F0181120
0BE88DA741
0C301EA002
6F321EA012
7F321FA012
7F321FA012
7F321FA012
7F320C7112
7F51212202
5FD3000130
0CFFECD900
0168984000
ENDCHAR
STARTCHAR Utilde.v
ENCODING 57807
SWIDTH 1000 0
DWIDTH 12 0
BBX 10 13 1 -2
BITMAP
0013222220
02D4122020
06E9AB9631
09301EA002
6F321EA012
7F321FA012
7F321FA012
7F321FA012
7F320C7112
7F51212202
5FD3000130
0CFFECD900
0168984000
ENDCHAR
STARTCHAR Umacron.v
ENCODING 57808
SWIDTH 1000 0
DWIDTH 12 0
BBX 10 13 1 -2
BITMAP
0013222210
02D4122020
06E98A9731
09301EA002
6F321EA012
7F321FA012
7F321FA012
7F321FA012
7F320C7112
7F51212202
5FD3000130
0CFFECD900
0168984000
ENDCHAR
STARTCHAR Ubreve.v
ENCODING 57809
SWIDTH 1000 0
DWIDTH 12 0
BBX 10 14 1 -2
BITMAP
0002202210
00A3155120
07F6222120
06EC999621
09301EA002
6F321EA012
7F321FA012
7F321FA012
7F321FA012
7F320C7112
7F51212202
5FD3000130
0CFFECD900
0168984000
ENDCHAR
STARTCHAR Uring.v
ENCODING 57810
SWIDTH 1000 0
DWIDTH 12 0
BBX 10 16 1 -2
BITMAP
0000122100
0014222210
01C3273220
06F32A5220
07F6222120
06EC999621
09301DA002
6F321EA012
7F321FA012
7F321FA012
7F321FA012
7F320C7112
7F51212202
5FD3000130
0CFFECD900
0168984000
ENDCHAR
STARTCHAR Uhungarumlaut.v
ENCODING 57811
SWIDTH 1000 0
DWIDTH 12 0
BBX 10 15 1 -2
BITMAP
0000110110
0007127111
00A925A220
01F5196120
04E98EC741
0A301EA002
6F321EA012
7F321FA012
7F321FA012
7F321FA012
7F320C7112
7F51212202
5FD3000130
0CFFECD900
0168984000
ENDCHAR
STARTCHAR Uogonek.v
ENCODING 57812
SWIDTH 1000 0
DWIDTH 12 0
BBX 10 13 1 -4
BITMAP
0232204222
3E311AA012
7F321FA012
7F321FA012
7F321FA012
7F321FA012
7F32042202
7F80222111
3FFA422730
06EF821300
002FC43300
001FFF9000
0001330000
ENDCHAR
STARTCHAR Wcircumflex.v
ENCODING 57813
SWIDTH 1000 0
DWIDTH 12 0
BBX 10 14 1 -2
BITMAP
0000021000
0003121210
01C4111020
06D9CFE941
1B0049F402
AE0226F322
BE02426322
BE02210222
BF02022022
BF12232022
AF52294312
6FA01D9011
2FFF8FFE40
0563056200
ENDCHAR
STARTCHAR Wgrave.v
ENCODING 57814
SWIDTH 1000 0
DWIDTH 12 0
BBX 10 14 1 -2
BITMAP
0001100000
0064122210
05F5122020
06DDEDB831
1A005CF402
AE0226F322
BE02426322
BE02210222
BF02022022
BF12232022
AF52294312
6FA01D9011
2FFF8FFE40
0563056200
ENDCHAR
STARTCHAR Wacute.v
ENCODING 57815
SWIDTH 1000 0
DWIDTH 12 0
BBX 10 14 1 -2
BITMAP
0000000210
0003222020
01B6122120
04D99CDB21
1A0057D402
AE0226F322
BE02426322
BE02210222
BF02022022
BF12232022
AF52294312
6FA01D9011
2FFF8FFE40
0563056200
ENDCHAR
STARTCHAR Wdieresis.v
ENCODING 57816
SWIDTH 1000 0
DWIDTH 12 0
BBX 10 13 1 -2
BITMAP
0063254230
06F1173120
09D89DB851
1B006CF402
AE0226F322
BE02426322
BE02210222
BF02022022
BF12232022
AF52294312
6FA01D9011
2FFF8FFE40
0563056200
ENDCHAR
STARTCHAR Yacute.v
ENCODING 57817
SWIDTH 1000 0
DWIDTH 12 0
BBX 10 14 1 -2
BITMAP
0000000110
0003222120
00A8122120
03EA8BDB31
09302AB002
7F322DB022
8F320D8112
7F81141211
5FF3222020
0BFD120200
01EF620200
006F600200
004FFF8000
0016640000
ENDCHAR
STARTCHAR Ycircumflex.v
ENCODING 57818
SWIDTH 1000 0
DWIDTH 12 0
BBX 10 14 1 -2
BITMAP
0000021000
0003121210
01C4111020
06E9BFE841
0A302BB002
7F322DB022
8F320D8112
7F81141211
5FF3222020
0BFD120200
01EF620200
006F600200
004FFF8000
0016640000
ENDCHAR
STARTCHAR Ydieresis.v
ENCODING 57819
SWIDTH 1000 0
DWIDTH 12 0
BBX 10 13 1 -2
BITMAP
0062263220
07F0182120
0AE88DB751
0B302DB002
7F322DB022
8F320D8112
7F81141211
5FF3222020
0BFD120200
01EF620200
006F600200
004FFF8000
0016640000
ENDCHAR
STARTCHAR Ygrave.v
ENCODING 57820
SWIDTH 1000 0
DWIDTH 12 0
BBX 10 14 1 -2
BITMAP
0001100000
0064122210
05F5122020
06EDDDB731
09302DB002
7F322DB022
8F320D8112
7F81141211
5FF3222020
0BFD120200
01EF620200
006F600200
004FFF8000
0016640000
ENDCHAR
STARTCHAR Zacute.v
ENCODING 57821
SWIDTH 1000 0
DWIDTH 12 0
BBX 10 14 1 -2
BITMAP
0000000110
0003222120
00A8122120
03EA79BB31
0841111102
5F40111122
6FEDD61202
299A612120
0013121200
0341113221
3E33222212
7F30000002
7FFFFFFFA1
2666666500
ENDCHAR
STARTCHAR Zdotaccent.v
ENCODING 57822
SWIDTH 1000 0
DWIDTH 12 0
BBX 10 14 1 -2
BITMAP
0000122000
0004600200
002F610200
004DA77321
0741111102
5F40111122
6FEDD61202
299A612120
0013121200
0341113221
3E33222212
7F30000002
7FFFFFFFA1
2666666500
ENDCHAR
STARTCHAR Zcaron.v
ENCODING 57823
SWIDTH 1000 0
DWIDTH 12 0
BBX 10 14 1 -2
BITMAP
0002100210
0095122020
05F8122220
05EDC79721
0741111102
5F40111122
6FEDD61202
299A612120
0013121200
0341113221
3E33222212
7F30000002
7FFFFFFFA1
2666666500
ENDCHAR
STARTCHAR AE.v
ENCODING 57824
SWIDTH 1000 0
DWIDTH 12 0
BBX 10 11 1 -2
BITMAP
0003222222
01B1223212
08A1122163
0D42362171
5E02542212
AC03223143
CC01112291
DC01B62212
DD00C70002
DFFCFFFFC1
4651666600
ENDCHAR
STARTCHAR Eth.v
ENCODING 57825
SWIDTH 1000 0
DWIDTH 12 0
BBX 11 11 0 -2
BITMAP
002322222100
03E322222120
07F321532020
07D221CA0120
0971313A0120
3F91206A0120
3FF321B61120
09F322222020
07F300002300
07FFFFFF8000
026666620000
ENDCHAR
STARTCHAR Oslash.v
ENCODING 57826
SWIDTH 1000 0
DWIDTH 12 0
BBX 10 13 1 -3
BITMAP
0000002220
0012221120
0351222302
2E32172112
6F32572022
8F32534022
8F3202A022
8F3214B012
8F51312202
6FC0110130
2EB24CD900
0EFD984000
0441000000
ENDCHAR
STARTCHAR Thorn.v
ENCODING 57827
SWIDTH 1000 0
DWIDTH 12 0
BBX 10 11 1 -2
BITMAP
0232200000
3E31122210
7F33222111
7F32021112
7F322FC022
7F32196022
7F33222202
7F32044530
7F302FE500
7FFE620000
2663000000
ENDCHAR
STARTCHAR Dcroat.v
ENCODING 57828
SWIDTH 1000 0
DWIDTH 12 0
BBX 11 11 0 -2
BITMAP
002322222100
03E322222120
07F321532020
07D221CA0120
0971313A0120
3F91206A0120
3FF321B61120
09F322222020
07F300002300
07FFFFFF8000
026666620000
ENDCHAR
STARTCHAR Hbar.v
ENCODING 57829
SWIDTH 1000 0
DWIDTH 12 0
BBX 12 11 0 -2
BITMAP
002322042220
03D211790130
089142222311
1FA020110121
1FF322D90120
09F320001120
08F321112120
08F322C80120
08F302FB0020
07FFE4FFFA10
026620565000
ENDCHAR
STARTCHAR IJ.v
ENCODING 57830
SWIDTH 1000 0
DWIDTH 12 0
BBX 10 11 1 -2
BITMAP
0232304222
3E311AA012
7F321FA112
7F321FA112
7F302FA112
7FFE5FA112
27952A4102
1A31222202
7F30000230
7FFFFFF700
2666662000
ENDCHAR
STARTCHAR Ldot.v
ENCODING 57831
SWIDTH 1000 0
DWIDTH 12 0
BBX 10 14 1 -5
BITMAP
0232300000
3E31100000
7F32100000
7F32100220
7F32118002
7F321CC012
7F32043022
7F32222212
7F97777772
6EEEB44A40
000B910200
001FC55200
001FFE5000
0001100000
ENDCHAR
STARTCHAR Lslash.v
ENCODING 57832
SWIDTH 1000 0
DWIDTH 12 0
BBX 10 11 1 -2
BITMAP
0232200000
3E31100000
7F32121000
7E12002000
9C04205222
DE121EC012
DF321A9022
7F32222222
7F30000002
7FFFFFFFB1
2666666500
ENDCHAR
STARTCHAR Eng.v
ENCODING 57833
SWIDTH 1000 0
DWIDTH 12 0
BBX 10 12 1 -3
BITMAP
0002222210
0150222212
1C42031202
6F322F9112
7F322F9112
7F322F9112
7F322F9112
7F312E6112
7F30371302
7FFFF70130
2666FFE900
0001773000
ENDCHAR
STARTCHAR OE.v
ENCODING 57834
SWIDTH 1000 0
DWIDTH 12 0
BBX 10 11 1 -2
BITMAP
0011122222
0431223212
4E02232064
AE02A82072
BE02A82212
BE02A82043
BE02662092
BF22223212
8FB3000002
2DFFFFFFD2
0156666610
ENDCHAR
STARTCHAR Tbar.v
ENCODING 57835
SWIDTH 1000 0
DWIDTH 12 0
BBX 10 10 1 -1
BITMAP
0542222222
5F31232212
7FFE520CB2
37A9320620
03D0242120
0AF6220430
09FF620700
027F610200
004FA65100
003FFD2000
ENDCHAR
ENDFONT
